<svg height="40" viewBox="0 0 179 43" fill="none" xmlns="http://www.w3.org/2000/svg"><path d="M21.04 42.32C9.716 42.32.536 33.139.536 21.814c0-11.326 9.18-20.507 20.506-20.507 11.325 0 20.507 9.181 20.507 20.507 0 11.325-9.182 20.506-20.507 20.506z" fill="#0C0C4F" stroke="url(#paint0_linear_789_81084)" stroke-width="1.013"/><path fill-rule="evenodd" clip-rule="evenodd" d="M12.22 17.101l.493-1.525c.1-.31.345-.552.657-.647l1.533-.471c.212-.065.213-.364.003-.432l-1.526-.494a.999.999 0 01-.647-.657l-.47-1.533a.227.227 0 00-.433-.002l-.494 1.525a.999.999 0 01-.656.647l-1.533.47a.227.227 0 00-.003.433l1.526.494a1 1 0 01.646.657l.471 1.532a.227.227 0 00.432.003z" fill="#FAFAFA"/><path fill-rule="evenodd" clip-rule="evenodd" d="M36.446 16.213c-.632-.706-1.618-1.104-2.577-1.267a8.857 8.857 0 00-2.933.027c-1.93.327-3.685 1.126-5.214 2.112-.794.484-1.472 1.044-2.174 1.614-.338.288-.646.596-.967.898l-.877.873c-.954.997-1.893 1.904-2.802 2.657-.913.748-1.766 1.317-2.607 1.714-.84.4-1.74.634-2.912.672-1.162.04-2.537-.17-4.007-.515-1.478-.345-3.03-.836-4.765-1.259.605 1.68 1.516 3.163 2.687 4.52 1.184 1.333 2.662 2.548 4.561 3.347 1.872.816 4.224 1.11 6.423.667 2.206-.424 4.14-1.445 5.705-2.625 1.568-1.192 2.837-2.55 3.907-3.962a27.4 27.4 0 00.665-.913l.59-.875c.41-.541.784-1.157 1.19-1.693.797-1.123 1.582-2.245 2.495-3.278a13.94 13.94 0 011.515-1.507 7.99 7.99 0 01.934-.673 4.43 4.43 0 011.163-.534z" fill="url(#paint1_linear_789_81084)"/><path fill-rule="evenodd" clip-rule="evenodd" d="M36.446 16.213c-.679-1.713-1.94-3.155-3.634-4.219-1.684-1.052-4.022-1.589-6.34-1.131a10.382 10.382 0 00-3.227 1.215 13.495 13.495 0 00-2.588 1.976 20.29 20.29 0 00-1.054 1.133l-.877 1.118-1.355 1.8c-1.726 2.315-3.586 5.029-6.637 5.833-2.996.79-4.295.09-6.123-.198.334.863.748 1.7 1.31 2.438a9.687 9.687 0 002.01 2.065c.41.29.84.578 1.32.821.477.235.992.442 1.541.598 1.093.3 2.323.405 3.514.244a10.569 10.569 0 003.327-1.039 14.005 14.005 0 002.656-1.74c1.551-1.288 2.757-2.71 3.776-4.15a28.91 28.91 0 001.408-2.184l.507-.872c.154-.256.311-.512.47-.751.642-.96 1.27-1.73 2.032-2.308.752-.593 1.798-1.031 3.197-1.133 1.393-.103 3.001.087 4.767.484z" fill="#FAFAFA"/><path fill-rule="evenodd" clip-rule="evenodd" d="M28.91 30.445a2.279 2.279 0 104.558 0 2.279 2.279 0 00-4.558 0z" fill="url(#paint2_linear_789_81084)"/><path d="M175.837 16.22v-2.3a.165.165 0 00-.165-.165h-13.109a.165.165 0 00-.165.165v2.3h5.328v14.885h2.783V16.22h5.328zm-27.14-2.465a.165.165 0 00-.165.165v17.02c0 .09.074.165.165.165h11.031a.165.165 0 00.166-.166v-2.276h-8.579V23.21h7.088v-2.392h-7.088v-4.622h7.968V13.92a.165.165 0 00-.166-.165h-10.42zM142.3 31.003l.06.102h2.138a.165.165 0 00.165-.166V13.92a.164.164 0 00-.165-.165h-2.569V25.77a64.182 64.182 0 00-1.554-2.345 77.982 77.982 0 00-2.424-3.38 79.001 79.001 0 00-2.596-3.354 44.836 44.836 0 00-2.454-2.871l-.061-.065h-2.013a.165.165 0 00-.165.165v17.02c0 .09.074.165.165.165h2.57V18.233c.351.415.725.874 1.122 1.38a76.62 76.62 0 011.657 2.193h.001v.002a75.55 75.55 0 011.707 2.388v.001l.001.001a95.23 95.23 0 011.683 2.463v.001l.001.001a60.772 60.772 0 011.486 2.314v.001l.001.002a90.42 90.42 0 011.244 2.023zm-15-16.903l.063-.069a.165.165 0 00-.122-.276h-3.047l-.062.071a47.91 47.91 0 01-1.509 1.655 229.028 229.028 0 01-3.906 4.003 147.55 147.55 0 01-1.53 1.476v-7.205h-2.618a.165.165 0 00-.165.165v17.02c0 .09.074.165.165.165h2.618v-7.871c.575.376 1.162.816 1.763 1.321l.001.002a26.767 26.767 0 012.135 1.964l.001.002.002.001a25.85 25.85 0 012.012 2.207h.001l.001.002a22.82 22.82 0 011.671 2.276l.061.096h2.97a.166.166 0 00.144-.248l-.036-.062a20.4 20.4 0 00-1.678-2.443 38.489 38.489 0 00-4.422-4.816 22.876 22.876 0 00-2.042-1.681 234.01 234.01 0 005.815-5.894h.001l.001-.002c.636-.684 1.207-1.304 1.712-1.859z" fill="#fff"/><path fill-rule="evenodd" clip-rule="evenodd" d="M98.603 13.624a.165.165 0 00-.165.166v17.16c0 .09.074.165.165.165h2.359v-6.31h3.445c.388.465.766.95 1.135 1.457l.001.002.001.002c.603.79 1.161 1.616 1.672 2.475h.001v.002c.464.76.868 1.51 1.213 2.252l.056.12h2.791c.12 0 .2-.124.15-.233a24.676 24.676 0 00-1.055-2.063 37.093 37.093 0 00-1.728-2.785 39.776 39.776 0 00-1.097-1.53c1.041-.32 1.865-.895 2.46-1.73h.001c.715-1.012 1.069-2.201 1.069-3.56 0-.932-.162-1.787-.49-2.558a4.76 4.76 0 00-1.486-1.944c-.657-.515-1.465-.843-2.417-.99a4.699 4.699 0 00-.688-.074 8.97 8.97 0 00-.604-.024h-6.789zm9.903 5.59c0 .452-.075.895-.226 1.332-.147.42-.382.788-.708 1.106-.308.302-.715.515-1.23.635a3.714 3.714 0 01-.528.078 6 6 0 01-.493.023h-4.359v-6.347h4.359c.143 0 .307.008.493.023h.004l.005.001c.183.007.353.033.511.076l.005.001.005.001c.514.112.919.325 1.226.633h.001l.001.001c.325.318.561.69.708 1.118h.001c.15.43.225.869.225 1.32zm-16.261 9.6v.001c.245.703.506 1.421.784 2.156l.05.134h2.793a.165.165 0 00.155-.222c-.61-1.676-1.226-3.35-1.854-5.018a166.185 166.185 0 00-1.688-4.355 120.245 120.245 0 00-1.615-3.916 98.956 98.956 0 00-1.701-3.745.165.165 0 00-.149-.094h-2.227a.165.165 0 00-.149.094 98.733 98.733 0 00-1.7 3.745 169.337 169.337 0 00-1.64 3.915v.001l-.001.001c-.538 1.37-1.093 2.82-1.663 4.353a491.056 491.056 0 00-1.854 5.019.165.165 0 00.155.222h2.726l.061-.066A23.891 23.891 0 0184.89 29l.001-.001h.001c.8-.684 1.634-1.317 2.502-1.901l.002-.002.002-.001a28.076 28.076 0 012.582-1.627h.001l.001-.001c.312-.177.62-.343.922-.496l.584 1.669v.001c.26.732.513 1.456.757 2.172zm-3.004-8.23v.002l.001.001c.235.595.47 1.2.706 1.816a23.093 23.093 0 00-2.722 1.485 40.248 40.248 0 00-2.71 1.862l.378-1.084a188.4 188.4 0 011.507-4.08 65.11 65.11 0 011.442-3.414c.485 1.093.95 2.23 1.398 3.412z" fill="#fff"/><path d="M80.468 16.22v-2.3a.165.165 0 00-.165-.165h-13.11a.165.165 0 00-.164.165v2.3h5.327v14.72c0 .09.074.165.166.165h2.453a.165.165 0 00.165-.166V16.221h5.328zM55 30.893c-1.01-.43-1.85-1.044-2.516-1.843v-.002h-.001c-.66-.81-1.087-1.763-1.286-2.857a.206.206 0 01.17-.241l2.221-.35a.206.206 0 01.232.153c.27 1.048.826 1.862 1.668 2.452.854.584 1.862.88 3.032.88.758 0 1.437-.117 2.037-.348.607-.238 1.078-.573 1.422-1 .339-.418.51-.915.51-1.499 0-.362-.064-.658-.184-.897l-.003-.006a1.771 1.771 0 00-.487-.639l-.005-.005a3.002 3.002 0 00-.724-.474 5.658 5.658 0 00-.872-.326h-.003l-4.43-1.316a9.713 9.713 0 01-1.43-.555l-.002-.002a5.316 5.316 0 01-1.255-.866h-.002v-.002a3.999 3.999 0 01-.89-1.271l-.001-.001c-.224-.507-.332-1.095-.332-1.76 0-1.068.276-1.99.837-2.754.563-.765 1.322-1.346 2.27-1.745.947-.399 2.01-.592 3.183-.584 1.19.009 2.26.222 3.208.646a6.085 6.085 0 012.37 1.797c.634.784 1.057 1.721 1.272 2.804a.206.206 0 01-.167.244l-2.28.398a.206.206 0 01-.24-.169c-.114-.676-.37-1.249-.764-1.725l-.002-.003a3.811 3.811 0 00-1.466-1.123h-.002a4.799 4.799 0 00-1.957-.416c-.684-.008-1.296.1-1.838.322-.544.222-.968.529-1.281.916l-.001.002c-.307.373-.46.8-.46 1.292 0 .489.14.866.403 1.15.284.3.634.541 1.052.724.443.182.873.332 1.29.45h.002l3.305.953c.386.107.826.254 1.32.44a6.267 6.267 0 011.496.81c.494.35.9.816 1.219 1.395.327.586.484 1.315.484 2.176 0 .865-.175 1.642-.53 2.326a4.827 4.827 0 01-1.448 1.713l-.001.001c-.617.45-1.331.79-2.14 1.021a9.096 9.096 0 01-2.592.358c-1.254 0-2.392-.213-3.41-.643z" fill="#fff"/><defs><linearGradient id="paint0_linear_789_81084" x1="41.027" y1="7.783" x2="-31.873" y2="14.619" gradientUnits="userSpaceOnUse"><stop stop-color="#EC796B"/><stop offset="1" stop-color="#D672EF"/></linearGradient><linearGradient id="paint1_linear_789_81084" x1="36.276" y1="15.612" x2="-15.751" y2="42.681" gradientUnits="userSpaceOnUse"><stop stop-color="#EC796B"/><stop offset="1" stop-color="#D672EF"/></linearGradient><linearGradient id="paint2_linear_789_81084" x1="33.464" y1="28.847" x2="25.161" y2="29.625" gradientUnits="userSpaceOnUse"><stop stop-color="#EC796B"/><stop offset="1" stop-color="#D672EF"/></linearGradient></defs></svg>