<svg width="44" height="44" viewBox="0 0 44 44" fill="none" xmlns="http://www.w3.org/2000/svg">
<path d="M29.3333 36.6667H14.6667C13.208 36.6667 11.809 36.0872 10.7776 35.0558C9.74613 34.0243 9.16667 32.6254 9.16667 31.1667V12.8334C9.16667 12.3471 8.97351 11.8808 8.6297 11.537C8.28588 11.1932 7.81956 11 7.33333 11C6.8471 11 6.38079 11.1932 6.03697 11.537C5.69315 11.8808 5.5 12.3471 5.5 12.8334V31.1667C5.5 33.5978 6.46577 35.9294 8.18485 37.6485C9.90394 39.3676 12.2355 40.3334 14.6667 40.3334H29.3333C29.8196 40.3334 30.2859 40.1402 30.6297 39.7964C30.9735 39.4526 31.1667 38.9863 31.1667 38.5C31.1667 38.0138 30.9735 37.5475 30.6297 37.2037C30.2859 36.8598 29.8196 36.6667 29.3333 36.6667ZM38.5 16.39C38.4809 16.2216 38.444 16.0557 38.39 15.895V15.73C38.3019 15.5415 38.1843 15.3682 38.0417 15.2167L27.0417 4.21669C26.8901 4.07408 26.7168 3.9565 26.5283 3.86835H26.3633L25.7767 3.66669H18.3333C16.8746 3.66669 15.4757 4.24615 14.4442 5.2776C13.4128 6.30905 12.8333 7.708 12.8333 9.16669V27.5C12.8333 28.9587 13.4128 30.3577 14.4442 31.3891C15.4757 32.4206 16.8746 33 18.3333 33H33C34.4587 33 35.8576 32.4206 36.8891 31.3891C37.9205 30.3577 38.5 28.9587 38.5 27.5V16.5C38.5 16.5 38.5 16.5 38.5 16.39ZM27.5 9.91835L32.2483 14.6667H29.3333C28.8471 14.6667 28.3808 14.4735 28.037 14.1297C27.6932 13.7859 27.5 13.3196 27.5 12.8334V9.91835ZM34.8333 27.5C34.8333 27.9863 34.6402 28.4526 34.2964 28.7964C33.9525 29.1402 33.4862 29.3334 33 29.3334H18.3333C17.8471 29.3334 17.3808 29.1402 17.037 28.7964C16.6932 28.4526 16.5 27.9863 16.5 27.5V9.16669C16.5 8.68046 16.6932 8.21414 17.037 7.87033C17.3808 7.52651 17.8471 7.33335 18.3333 7.33335H23.8333V12.8334C23.8333 14.292 24.4128 15.691 25.4442 16.7224C26.4757 17.7539 27.8746 18.3334 29.3333 18.3334H34.8333V27.5Z" fill="#AB7DF6"/>
</svg>
