<svg width="44" height="44" viewBox="0 0 44 44" fill="none" xmlns="http://www.w3.org/2000/svg">
<g clip-path="url(#clip0_0_323)">
<path d="M13.5781 34.3505L12.3504 35.5782C12.1867 35.7418 11.9985 35.8237 11.7857 35.8237C11.5729 35.8237 11.3846 35.7418 11.2209 35.5782L-0.221017 24.1362C-0.384707 23.9725 -0.466553 23.7843 -0.466553 23.5715C-0.466553 23.3587 -0.384707 23.1704 -0.221017 23.0067L11.2209 11.5648C11.3846 11.4011 11.5729 11.3192 11.7857 11.3192C11.9985 11.3192 12.1867 11.4011 12.3504 11.5648L13.5781 12.7924C13.7418 12.9561 13.8236 13.1444 13.8236 13.3572C13.8236 13.57 13.7418 13.7582 13.5781 13.9219L3.92854 23.5715L13.5781 33.221C13.7418 33.3847 13.8236 33.5729 13.8236 33.7857C13.8236 33.9985 13.7418 34.1868 13.5781 34.3505ZM28.0893 8.15181L18.9308 39.8505C18.8653 40.0633 18.7384 40.2229 18.5502 40.3293C18.3619 40.4357 18.1696 40.4561 17.9732 40.3907L16.4509 39.9732C16.2381 39.9078 16.0785 39.7809 15.9721 39.5927C15.8657 39.4044 15.8452 39.2039 15.9107 38.9911L25.0692 7.29244C25.1346 7.07964 25.2615 6.92004 25.4497 6.81364C25.638 6.70724 25.8303 6.68678 26.0268 6.75226L27.5491 7.16967C27.7619 7.23515 27.9215 7.36201 28.0279 7.55025C28.1343 7.73849 28.1547 7.93901 28.0893 8.15181ZM44.221 24.1362L32.779 35.5782C32.6153 35.7418 32.4271 35.8237 32.2143 35.8237C32.0015 35.8237 31.8132 35.7418 31.6495 35.5782L30.4218 34.3505C30.2582 34.1868 30.1763 33.9985 30.1763 33.7857C30.1763 33.5729 30.2582 33.3847 30.4218 33.221L40.0714 23.5715L30.4218 13.9219C30.2582 13.7582 30.1763 13.57 30.1763 13.3572C30.1763 13.1444 30.2582 12.9561 30.4218 12.7924L31.6495 11.5648C31.8132 11.4011 32.0015 11.3192 32.2143 11.3192C32.4271 11.3192 32.6153 11.4011 32.779 11.5648L44.221 23.0067C44.3846 23.1704 44.4665 23.3587 44.4665 23.5715C44.4665 23.7843 44.3846 23.9725 44.221 24.1362Z" fill="#81C926"/>
</g>
<defs>
<clipPath id="clip0_0_323">
<rect width="44" height="44" fill="white"/>
</clipPath>
</defs>
</svg>
