<svg width="44" height="44" viewBox="0 0 44 44" fill="none" xmlns="http://www.w3.org/2000/svg">
<path d="M40.5254 1.84594C40.5199 1.82944 40.5109 1.815 40.5041 1.7985C40.4903 1.7655 40.4786 1.73181 40.4601 1.70087C40.4518 1.68712 40.4394 1.67681 40.4298 1.66375C40.3876 1.60535 40.3363 1.55406 40.2779 1.51181C40.2621 1.50012 40.2476 1.48706 40.2304 1.47675C40.1715 1.44033 40.1072 1.4132 40.04 1.39631L40.0338 1.39356C40.0242 1.3915 40.0146 1.39356 40.0049 1.3915C39.9622 1.38187 39.9187 1.37634 39.875 1.375H27.5C27.2394 1.375 27.0016 1.52212 26.8847 1.75519L24.1347 7.25519C24.1306 7.26344 24.1292 7.27237 24.1257 7.28131C24.1189 7.29575 24.1154 7.31156 24.1099 7.32669C24.0852 7.39403 24.0709 7.46473 24.0673 7.53638C24.0673 7.54531 24.0625 7.55288 24.0625 7.5625V13.0625H19.9375V2.0625C19.9375 2.05769 19.9354 2.05425 19.9354 2.04944C19.9341 1.98022 19.9223 1.9116 19.9004 1.84594C19.8949 1.82944 19.8859 1.815 19.8791 1.7985C19.8653 1.7655 19.8536 1.73181 19.8351 1.70087C19.8268 1.68712 19.8144 1.67681 19.8048 1.66375C19.7626 1.60535 19.7113 1.55406 19.6529 1.51181C19.6371 1.50012 19.6226 1.48706 19.6054 1.47675C19.5465 1.44033 19.4822 1.4132 19.415 1.39631L19.4088 1.39356C19.3992 1.3915 19.3896 1.39356 19.3799 1.3915C19.3366 1.38325 19.294 1.375 19.25 1.375H6.875C6.61444 1.375 6.37656 1.52212 6.25969 1.75519L3.50969 7.25519C3.50556 7.26344 3.50419 7.27237 3.50075 7.28131C3.49388 7.29575 3.49044 7.31156 3.48494 7.32669C3.46024 7.39403 3.44587 7.46473 3.44231 7.53638C3.44231 7.54531 3.4375 7.55288 3.4375 7.5625V19.9375C3.4375 20.1198 3.50993 20.2947 3.63886 20.4236C3.7678 20.5526 3.94266 20.625 4.125 20.625H9.625V23.375H6.875C6.61444 23.375 6.37656 23.5221 6.25969 23.7552L3.50969 29.2552C3.50556 29.2634 3.50419 29.2724 3.50075 29.2813C3.49388 29.2957 3.49044 29.3116 3.48494 29.3267C3.46024 29.394 3.44587 29.4647 3.44231 29.5364C3.44231 29.5453 3.4375 29.5529 3.4375 29.5625V41.9375C3.4375 42.1198 3.50993 42.2947 3.63886 42.4236C3.7678 42.5526 3.94266 42.625 4.125 42.625H16.5C16.5818 42.6233 16.6625 42.607 16.7386 42.5769C16.7613 42.5686 16.7812 42.5583 16.8018 42.548C16.8554 42.5212 16.9043 42.4882 16.9503 42.4483C16.9661 42.4346 16.9826 42.4229 16.9971 42.4077C17.0493 42.3521 17.0954 42.2902 17.1277 42.218L17.1325 42.207L17.1332 42.2056L19.6969 36.4375H24.0625V41.9375C24.0625 42.1198 24.1349 42.2947 24.2639 42.4236C24.3928 42.5526 24.5677 42.625 24.75 42.625H37.125C37.2068 42.6233 37.2875 42.607 37.3636 42.5769C37.3862 42.5686 37.4062 42.5583 37.4268 42.548C37.4804 42.5212 37.5292 42.4882 37.5753 42.4483C37.5911 42.4346 37.6076 42.4229 37.6221 42.4077C37.6743 42.3521 37.7204 42.2902 37.7527 42.218L37.7575 42.207L37.7582 42.2056L40.5027 36.0305C40.5422 35.9423 40.5626 35.8467 40.5625 35.75V24.0625C40.5625 24.0577 40.5604 24.0542 40.5604 24.0494C40.5591 23.9802 40.5473 23.9116 40.5254 23.8459C40.5199 23.8294 40.5109 23.815 40.5041 23.7985C40.4903 23.7655 40.4786 23.7318 40.4601 23.7009C40.4518 23.6871 40.4394 23.6768 40.4298 23.6637C40.3876 23.6053 40.3363 23.5541 40.2779 23.5118C40.2621 23.5001 40.2476 23.4871 40.2304 23.4767C40.1715 23.4403 40.1072 23.4132 40.04 23.3963L40.0338 23.3936C40.0242 23.3915 40.0152 23.3936 40.0056 23.3915C39.9623 23.3832 39.9197 23.375 39.875 23.375H31.625V20.625H37.125C37.2068 20.6233 37.2875 20.607 37.3636 20.5769C37.3862 20.5686 37.4062 20.5583 37.4268 20.548C37.4804 20.5212 37.5292 20.4882 37.5753 20.4483C37.5911 20.4346 37.6076 20.4229 37.6221 20.4077C37.6743 20.3521 37.7204 20.2902 37.7527 20.218L37.7575 20.207L37.7582 20.2056L40.5027 14.0305C40.5422 13.9423 40.5626 13.8467 40.5625 13.75V2.0625C40.5625 2.05769 40.5604 2.05425 40.5604 2.04944C40.5591 1.98023 40.5472 1.91162 40.5254 1.84594ZM27.9249 2.75H38.7626L36.7001 6.875H25.8624L27.9249 2.75ZM17.1875 14.4375H18.1919L17.1875 16.698V14.4375ZM17.1875 13.0625V7.72475L18.5625 4.97475V13.0625H17.1875ZM7.29988 2.75H18.1376L16.0751 6.875H5.23738L7.29988 2.75ZM4.8125 8.25H15.8125V13.0625H9.625V14.4375H15.8125V19.25H4.8125V8.25ZM7.29988 24.75H9.625V28.875H5.23738L7.29988 24.75ZM18.5625 35.0625H17.1875V29.7248L18.5625 26.9748V35.0625ZM16.0751 28.875H11V24.75H18.1376L16.0751 28.875ZM4.8125 30.25H9.625V36.4375H11V30.25H15.8125V41.25H4.8125V30.25ZM17.1875 38.698V36.4375H18.1919L17.1875 38.698ZM25.4375 36.4375H31.625V35.0625H25.4375V30.25H36.4375V41.25H25.4375V36.4375ZM25.8624 28.875L27.9249 24.75H30.25V28.875H25.8624ZM37.8125 38.698V29.7248L39.1875 26.9748V35.6036L37.8125 38.698ZM38.7626 24.75L36.7001 28.875H31.625V24.75H38.7626ZM30.25 23.375H27.5C27.2394 23.375 27.0016 23.5221 26.8847 23.7552L24.1347 29.2552C24.1306 29.2634 24.1292 29.2724 24.1257 29.2813C24.1189 29.2957 24.1154 29.3116 24.1099 29.3267C24.0852 29.394 24.0709 29.4647 24.0673 29.5364C24.0673 29.5453 24.0625 29.5529 24.0625 29.5625V35.0625H19.9375V24.0625C19.9375 24.0577 19.9354 24.0542 19.9354 24.0494C19.9341 23.9802 19.9223 23.9116 19.9004 23.8459C19.8949 23.8294 19.8859 23.815 19.8791 23.7985C19.8653 23.7655 19.8536 23.7318 19.8351 23.7009C19.8268 23.6871 19.8144 23.6768 19.8048 23.6637C19.7626 23.6053 19.7113 23.5541 19.6529 23.5118C19.6371 23.5001 19.6226 23.4871 19.6054 23.4767C19.5465 23.4403 19.4822 23.4132 19.415 23.3963L19.4088 23.3936C19.3992 23.3915 19.3903 23.3936 19.3806 23.3915C19.3373 23.3832 19.2947 23.375 19.25 23.375H11V20.625H16.5C16.5818 20.6233 16.6625 20.607 16.7386 20.5769C16.7613 20.5686 16.7812 20.5583 16.8018 20.548C16.8554 20.5212 16.9043 20.4882 16.9503 20.4483C16.9661 20.4346 16.9826 20.4229 16.9971 20.4077C17.0493 20.3521 17.0954 20.2902 17.1277 20.218L17.1325 20.207L17.1332 20.2056L19.6969 14.4375H24.0625V19.9375C24.0625 20.1198 24.1349 20.2947 24.2639 20.4236C24.3928 20.5526 24.5677 20.625 24.75 20.625H30.25V23.375ZM30.25 13.0625V19.25H25.4375V8.25H36.4375V19.25H31.625V13.0625H30.25ZM37.8125 16.698V7.72475L39.1875 4.97475V13.6036L37.8125 16.698Z" fill="#FACA00"/>
</svg>
