<svg width="44" height="44" viewBox="0 0 44 44" fill="none" xmlns="http://www.w3.org/2000/svg">
<path d="M31.2125 3.41169C31.1827 3.33594 31.1459 3.26315 31.1025 3.19427C31.0157 3.05841 30.903 2.94098 30.7708 2.8487C30.6386 2.75642 30.4895 2.6911 30.332 2.65646C30.1746 2.62182 30.0118 2.61856 29.8531 2.64684C29.6944 2.67512 29.5428 2.73441 29.407 2.8213L29.3915 2.83075C25.5529 5.28284 21.729 7.77073 17.9197 10.2944L16.8068 10.3099L11.6188 10.2386L7.50407 10.2016L5.44672 10.1861H5.18891C5.14422 10.1861 5.10727 10.1861 5.05571 10.1861L4.88383 10.193C4.76868 10.199 4.65352 10.2025 4.54008 10.2128L4.19633 10.2626C4.08036 10.2791 3.96554 10.3029 3.85258 10.334C3.74086 10.364 3.62657 10.3872 3.51743 10.4259L3.19 10.5436L3.10836 10.5746L3.0293 10.6115L2.87203 10.6863C2.66427 10.7877 2.46332 10.9025 2.27047 11.0301C2.17508 11.0962 2.08313 11.1658 1.99032 11.2354C1.94477 11.2707 1.89664 11.3042 1.85282 11.3411L1.71875 11.4511C1.37156 11.758 1.06951 12.1124 0.821565 12.5039L0.641096 12.8047C0.588961 12.9084 0.537971 13.0126 0.488128 13.1175C0.464065 13.1699 0.436565 13.2215 0.41594 13.2756L0.354924 13.4389C0.316252 13.5489 0.268987 13.6563 0.240627 13.768L0.15469 14.1058L0.134065 14.1917L0.119456 14.2776L0.0919556 14.4495C0.0558202 14.6784 0.0357192 14.9096 0.0317993 15.1413C0.0317993 15.1679 0.0317993 15.2032 0.0317993 15.2272V17.2184V19.2732L0.0386743 21.3271V21.8427V22.1005L0.0558618 22.4443C0.0558618 22.5019 0.0618774 22.5594 0.0678931 22.6161L0.0936743 22.788C0.112581 22.9023 0.128049 23.0175 0.152112 23.1318C0.201376 23.3558 0.265395 23.5762 0.343753 23.7918L0.404768 23.9542C0.424018 24.0088 0.446693 24.0622 0.472659 24.114L0.624768 24.426C0.676331 24.5291 0.741643 24.6254 0.796643 24.7242L0.888596 24.8711C0.919534 24.9193 0.956487 24.9648 0.990003 25.0112C1.05961 25.1032 1.12836 25.196 1.20055 25.2854L1.43344 25.5432C1.51432 25.6275 1.60012 25.707 1.69039 25.7812L1.8193 25.8955L1.88375 25.9522L1.9525 26.0038L2.23438 26.2109C2.32805 26.2771 2.42946 26.3329 2.52742 26.3931L2.6761 26.479C2.7268 26.5065 2.77922 26.5297 2.83078 26.5555C2.93477 26.6045 3.03875 26.6544 3.1436 26.7008C3.35728 26.786 3.57631 26.8572 3.7993 26.9139C3.91102 26.9397 4.02188 26.9732 4.13532 26.9895L4.47907 27.0385C4.59312 27.0528 4.70788 27.0608 4.82282 27.0626L4.99469 27.0686H5.08063H5.14422L5.64352 27.0617L6.64125 27.0462L8.63844 27.0093L8.84555 27.005C8.10305 28.2218 7.57797 29.6879 7.20758 31.2082L6.41868 34.4059L6.22188 35.206L6.12391 35.6065L6.07063 35.8643C6.05516 35.9502 6.04399 36.0422 6.0311 36.1315C5.94489 36.8576 6.03146 37.5937 6.28375 38.28C6.53798 38.9719 6.94991 39.5951 7.48688 40.1001C8.30582 40.8713 9.37585 41.3205 10.4998 41.3651C10.5918 41.3651 10.6838 41.3711 10.7766 41.3651L11.0533 41.3497C11.238 41.3367 11.4217 41.312 11.6033 41.2758C11.6943 41.2595 11.7844 41.2383 11.8731 41.2122L12.1404 41.1374L12.3982 41.0394C12.4862 41.0083 12.5722 40.9722 12.656 40.9311C12.8232 40.8536 12.9851 40.7652 13.1407 40.6665C13.2181 40.6166 13.2963 40.5685 13.3719 40.5169L13.5893 40.3451L13.7019 40.2686C13.7388 40.2428 13.7732 40.2127 13.8084 40.1826L14.019 40.0108C14.0903 39.954 14.1513 39.8861 14.2175 39.8243C14.2837 39.7624 14.349 39.6979 14.4091 39.6292L14.5853 39.4195L14.6713 39.3138L14.7503 39.2012L14.905 38.9735C14.9566 38.897 14.997 38.8145 15.0425 38.7337C15.3231 38.2178 15.5067 37.6548 15.5839 37.0726L15.6071 36.8543C15.614 36.7847 15.6226 36.6979 15.6243 36.6523L15.6432 36.3283L15.6793 35.6804C15.7251 34.8158 15.7615 33.9513 15.7884 33.0868C15.84 31.3577 15.8434 29.6295 15.7713 27.903C15.7617 27.5044 15.6886 27.1099 15.5547 26.7343C15.9294 26.6965 16.2774 26.6535 16.5859 26.6054C17.6129 26.4464 18.26 26.229 18.2299 25.9428C18.2024 25.685 17.6645 25.4547 16.7217 25.2811C15.779 25.1075 14.4332 24.988 12.8141 24.9519L12.4188 24.9433C12.5122 24.8415 12.5738 24.7145 12.5959 24.5781C12.7102 23.8536 12.8348 23.1223 12.8202 22.3953C12.797 21.2248 12.6638 20.0561 12.577 18.8865C13.3306 16.7904 12.8984 14.6463 13.0556 12.5271C13.054 12.4962 13.0408 12.467 13.0187 12.4454L18.1655 12.3913C17.7113 12.9067 17.434 13.5538 17.374 14.2381C17.1841 16.0591 16.8936 17.8801 17.1093 19.7132C17.0852 19.9401 17.0552 20.1661 17.038 20.3929C16.928 21.8307 16.8953 23.2684 17.166 24.6984C17.2425 25.1049 17.545 25.4435 18.1423 25.4126C18.2829 25.4062 18.4219 25.3793 18.5548 25.3326C18.737 25.6343 19.2603 26.1336 19.9152 26.6956C22.7743 29.1431 26.0906 31.6585 29.6158 34.1094C29.6642 34.1435 29.716 34.1723 29.7705 34.1954C29.966 34.2747 30.1851 34.273 30.3794 34.1908C30.5738 34.1086 30.7275 33.9526 30.8069 33.7571L30.8189 33.727C31.0716 33.1057 31.3285 32.4792 31.5717 31.8441L31.9009 30.8765L32.0641 30.3901C32.1174 30.2276 32.175 30.0661 32.218 29.9002L32.6709 28.2837C32.8041 27.7406 32.9244 27.1932 33.0516 26.6509C33.0816 26.5143 33.1177 26.3785 33.1418 26.241L33.2166 25.8276L33.3661 25.0009C33.477 24.4509 33.538 23.894 33.6153 23.338C33.907 21.1071 34.0174 18.8562 33.9453 16.6074C33.7717 12.0878 32.8482 7.62849 31.2125 3.41169ZM8.43907 24.8565L6.24078 24.8144L5.13993 24.7955H5.07118L5.02219 24.7912L4.92422 24.7835C4.85875 24.7818 4.79352 24.7749 4.72914 24.7629C4.66498 24.7508 4.60081 24.7399 4.53664 24.7302L4.3493 24.6778C3.85082 24.5274 3.40644 24.2361 3.06969 23.839C2.90261 23.6435 2.76587 23.4239 2.66407 23.1876C2.559 22.9548 2.49003 22.7073 2.45953 22.4537L2.44492 22.3592V22.2629L2.43633 22.0661V21.5273L2.44149 20.4531C2.44149 19.7347 2.44149 19.0168 2.44149 18.2995L2.43117 15.5297V15.2719C2.43117 15.2444 2.43117 15.2109 2.43117 15.1937C2.43633 15.1078 2.43977 15.0296 2.44149 14.9471C2.44321 14.8646 2.46641 14.7855 2.47672 14.7039C2.48703 14.6222 2.51711 14.5449 2.53344 14.465C2.67155 13.9867 2.9403 13.5563 3.3095 13.2224C3.6787 12.8884 4.13372 12.664 4.62344 12.5743C4.70478 12.5575 4.78719 12.5463 4.87008 12.5408L4.99469 12.5331L5.05743 12.5288H5.13821L5.83 12.5228L7.21875 12.5047L11.8663 12.4558C11.2707 12.9726 10.8978 13.6995 10.8256 14.4847C10.6356 16.2447 10.3452 18.0082 10.5609 19.7759C10.5368 19.9951 10.5067 20.2133 10.4895 20.4333C10.3795 21.8229 10.3469 23.2126 10.6176 24.5944C10.6385 24.7044 10.6796 24.8096 10.7388 24.9047L8.43907 24.8565ZM12.6328 26.9087C13.1192 26.895 13.5936 26.8743 14.0482 26.8486C13.8999 27.1764 13.8089 27.5272 13.7792 27.8858C13.5988 29.6905 13.408 31.5029 13.3564 33.3145C13.3358 34.0433 13.3212 34.7723 13.3126 35.5016L13.3014 36.5956V36.6291V36.6532V36.7022L13.2971 36.8001C13.2971 36.8328 13.2971 36.8663 13.292 36.8981L13.2773 36.9952C13.2597 37.1254 13.2336 37.2543 13.1991 37.3811C13.1199 37.6346 13.0056 37.8758 12.8597 38.0978C12.7103 38.3231 12.5261 38.5232 12.314 38.6908C12.208 38.7763 12.096 38.8541 11.9788 38.9236L11.7975 39.019C11.7373 39.0517 11.6712 39.0715 11.6084 39.099C11.5766 39.111 11.5457 39.1273 11.5122 39.1368L11.4134 39.1651C11.348 39.1876 11.2811 39.2054 11.2131 39.2184L11.0086 39.2579L10.7998 39.276C10.3359 39.2074 9.89641 39.0241 9.52125 38.7427C9.14609 38.4614 8.84708 38.0908 8.65133 37.6647C8.56193 37.4678 8.49866 37.2601 8.46313 37.0468C8.42663 36.8374 8.41825 36.6241 8.43821 36.4126C8.44778 36.3063 8.46385 36.2006 8.48633 36.0963L8.58774 35.6159L8.78711 34.6431C9.30274 32.0856 9.74532 29.5066 10.3228 26.9689C11.0894 26.9511 11.8594 26.9311 12.6328 26.9087ZM29.4147 31.4686C26.5576 29.6249 23.7047 27.7793 20.8562 25.9316C20.2622 25.5669 19.6236 25.2806 18.9561 25.08C19.0619 24.9694 19.1312 24.829 19.1546 24.6778C19.2689 23.9276 19.3935 23.1713 19.3789 22.4193C19.3557 21.2085 19.2225 19.9993 19.1357 18.7893C19.8894 16.6203 19.4571 14.4065 19.6144 12.2083C19.6213 12.1172 19.4236 11.9788 19.2655 11.9212L23.4145 9.17724L23.2272 9.23396C23.2925 9.21247 23.3561 9.19271 23.4145 9.17724C25.4341 7.99818 27.4479 6.79505 29.4559 5.56786C30.8635 9.7727 31.5826 14.1773 31.5855 18.6115C31.5868 22.9885 30.853 27.3346 29.4147 31.4686Z" fill="#4CB3D4"/>
<path d="M43.633 17.7788C43.2833 17.6645 42.9309 17.5399 42.5803 17.5545C42.0157 17.5777 41.4519 17.7109 40.8873 17.7977C39.8758 17.044 38.8412 17.4763 37.8185 17.319C37.773 17.3121 37.7016 17.5407 37.6793 17.7031C37.6398 17.9734 37.6742 18.2493 37.779 18.5015C38.0643 19.1796 38.4115 19.4769 38.7647 19.556C39.6137 19.7459 40.4628 20.0364 41.3179 19.8206C41.4236 19.8447 41.5293 19.8748 41.635 19.892C42.3053 20.002 42.9756 20.0346 43.6425 19.7639C43.8324 19.6874 43.9862 19.3849 43.9759 18.7877C43.9622 18.2437 43.8281 17.8424 43.633 17.7788Z" fill="#4CB3D4"/>
<path d="M38.3926 13.3976C39.2399 13.2 40.1311 13.0934 40.8074 12.528C40.9131 12.5039 41.0214 12.485 41.1237 12.4549C41.7751 12.2633 42.3938 12.0012 42.8768 11.4683C43.0143 11.3171 43.0254 10.9768 42.753 10.444C42.5055 9.95929 42.2099 9.65593 42.0071 9.68343C41.6427 9.73241 41.2706 9.76936 40.9612 9.94124C40.4628 10.2076 40.0159 10.572 39.5415 10.8951C38.3032 10.6554 37.559 11.4967 36.569 11.7958C36.5251 11.8095 36.5604 12.0467 36.6102 12.2023C36.6919 12.463 36.8428 12.6967 37.0468 12.8786C37.5994 13.3624 38.0411 13.4801 38.3926 13.3976Z" fill="#4CB3D4"/>
<path d="M41.9091 25.3859C41.3935 25.1625 40.8246 25.037 40.2763 24.8703C39.692 23.7531 38.5731 23.6929 37.7197 23.1069C37.6819 23.0811 37.5177 23.2564 37.4275 23.3922C37.2743 23.6183 37.1852 23.8817 37.1697 24.1544C37.1327 24.8892 37.3166 25.3077 37.5994 25.5294C38.2817 26.0691 38.9211 26.699 39.7848 26.8761C39.8707 26.944 39.9515 27.0162 40.0426 27.078C40.5986 27.4682 41.189 27.7887 41.9066 27.8343C42.1111 27.8472 42.3835 27.6435 42.6302 27.0995C42.8545 26.6037 42.9077 26.1843 42.7599 26.0416C42.4952 25.7898 42.2314 25.5234 41.9091 25.3859Z" fill="#4CB3D4"/>
</svg>
