<svg width="32" height="37" viewBox="0 0 32 37" fill="none" xmlns="http://www.w3.org/2000/svg"><path d="M12.14 36.614l4.79-5.38c.08-.086.014-.225-.098-.225h-5.267a.14.14 0 01-.1-.046l-4.473-5.018a.13.13 0 01-.014-.158l7.475-12.822a.13.13 0 000-.138L11.34 7.485c-.053-.092-.185-.092-.231 0L.019 26.487a.152.152 0 00.014.158l8.888 9.97a.14.14 0 00.1.046h3.013c.04 0 .08-.02.106-.047z" fill="#fff"/><path d="M15.424.064l-3.112 5.342a.13.13 0 000 .138l3.231 5.546 8.571 14.697a.152.152 0 01-.013.158l-4.514 5.064-4.83 5.42c-.08.086-.014.225.099.225h7.203a.14.14 0 00.1-.046l8.888-9.97a.129.129 0 00.013-.158L15.656.064c-.053-.085-.186-.085-.232 0z" fill="#fff"/></svg>