<svg width="17" height="17" viewBox="0 0 17 17" fill="none" xmlns="http://www.w3.org/2000/svg"><path fill-rule="evenodd" clip-rule="evenodd" d="M16.25 3.535c0 .883-.345 1.717-.969 2.341L6.255 14.92a1.277 1.277 0 01-.598.34l-3.803.951a1.289 1.289 0 01-1.565-1.563l.95-3.81c.056-.226.174-.434.339-.6l9.027-9.042c1.258-1.26 3.42-1.26 4.677 0 .625.624.969 1.456.969 2.34zm-1.839-1.47c-.776-.779-2.159-.779-2.936 0l-9.027 9.042a.059.059 0 00-.015.027l-.95 3.81a.062.062 0 00.015.058c.01.011.025.017.04.017.004 0 .007 0 .013-.002l3.81-.954a.052.052 0 00.022-.014l9.027-9.042c.394-.394.61-.915.61-1.472a2.06 2.06 0 00-.609-1.47z" fill="#8A8CA2"/></svg>