<svg width="150" height="30" viewBox="0 0 150 30" fill="none" xmlns="http://www.w3.org/2000/svg"><g clip-path="url(#clip0_383_8230)"><path d="M47.859 18.44c0 2.81-1.587 4.424-4.71 4.424h-7.467v-3.329h6.583c.962 0 1.43-.338 1.43-1.197 0-.702-.52-1.145-1.664-1.951l-3.903-3.018c-1.977-1.509-2.81-2.914-2.81-4.58 0-2.837 1.666-4.136 4.945-4.136h7.285v3.33h-6.56c-1.013 0-1.509.338-1.509 1.223 0 .676.52 1.119 1.692 1.9l3.876 2.705c1.98 1.351 2.812 2.99 2.812 4.63zM63.494 7.982H58.81v14.881h-4.165V7.982h-4.68v-3.33h13.528v3.33z" fill="#fff"/><path fill-rule="evenodd" clip-rule="evenodd" d="M68.178 19.351h7.336l1.248 3.512h4.527L74.03 4.652h-4.37L62.4 22.863h4.527l1.251-3.512zm3.694-10.25l2.547 7.206h-5.123l2.576-7.206zm20.811 13.762h4.188l-.806-3.485c-.572-2.55-1.275-3.904-2.706-4.58 2.004-.624 2.993-2.16 2.993-4.683 0-3.746-1.77-5.463-5.647-5.463h-7.467v18.211h4.163v-6.581h1.666c1.82.026 2.29.677 2.81 3.096l.806 3.485zm-.495-12.358c0 1.926-.675 2.732-2.965 2.732h-1.821V7.774h1.82c2.29 0 2.967.806 2.967 2.731zm18.214-5.853l-6.634 8.82 7.1 9.391h4.973l-7.441-9.391 6.971-8.82h-4.969zm-10.8 18.211h4.165V4.652h-4.165v18.211z" fill="#fff"/><path d="M123.978 21.59h4.935a2.87 2.87 0 001.042-.17c.269-.1.514-.255.719-.455a2.13 2.13 0 00.449-.668 3.27 3.27 0 00.225-.806l.175-1.1h1.337l-.175 4.472H118.97V21.79h.324c.27.001.539-.018.806-.056.236-.031.463-.11.668-.231.199-.125.357-.305.456-.518a2.07 2.07 0 00.168-.906V7.512a2.379 2.379 0 00-.162-.962 1.28 1.28 0 00-.45-.556 1.656 1.656 0 00-.668-.256 5.048 5.048 0 00-.818-.064h-.324V4.6h12.89l.125 4.472h-1.324l-.125-1.1a3.387 3.387 0 00-.194-.805 2.005 2.005 0 00-.411-.669 1.927 1.927 0 00-.675-.455 2.56 2.56 0 00-.981-.17h-4.296v6.81h6.171v1.249h-6.172v7.657zm20.081-10.618a.58.58 0 00-.393-.606 2.887 2.887 0 00-.981-.144h-.075V9.148h5.596v1.074h-.224a3.407 3.407 0 00-.681.063 1.925 1.925 0 00-.6.237 2.95 2.95 0 00-.605.5c-.25.265-.483.544-.7.837l-2.634 3.51 3.759 5.058c.287.414.649.771 1.067 1.053.293.19.632.297.981.306h.337v1.074H142.3v-1.074h.125c1.024 0 1.537-.283 1.537-.85a1.11 1.11 0 00-.038-.282 1.398 1.398 0 00-.15-.337 8.448 8.448 0 00-.299-.468 18.937 18.937 0 00-.487-.675l-1.711-2.299-1.786 2.499a4.892 4.892 0 00-.462.762c-.066.139-.12.283-.162.43a1.57 1.57 0 00-.063.42.635.635 0 00.363.617c.39.146.807.208 1.224.182h.075v1.074h-6.099v-1.074h.237c.272.003.544-.022.81-.075.234-.05.458-.14.662-.262a3.19 3.19 0 00.625-.507c.243-.252.472-.516.687-.793l3.223-4.171-3.223-4.398a5.332 5.332 0 00-1.094-1.013 1.989 1.989 0 00-1.106-.35h-.335V9.142h6.496v1.074h-.075a3.849 3.849 0 00-.724.056 1.25 1.25 0 00-.45.163.585.585 0 00-.225.243.694.694 0 00-.063.287.992.992 0 00.156.518c.105.171.253.39.446.656l1.686 2.299 1.325-1.911c.175-.263.329-.539.462-.825.108-.229.167-.477.172-.73z" fill="#F6643C"/><g clip-path="url(#clip1_383_8230)"><path d="M1.742 14.302l8.978-5.2a1.791 1.791 0 011.16-.23c.215.029.424.096.617.199l1.34.767 7.893 4.545a1.826 1.826 0 01.68.867l-.024-13.953a.894.894 0 00-.898-.892L1.797.436a.902.902 0 00-.892.899l.023 13.833a1.831 1.831 0 01.814-.866z" fill="#28286E"/><path d="M.934 18.391a1.831 1.831 0 01.808-.854l8.977-5.199a1.793 1.793 0 011.16-.23c.216.03.425.097.617.2l1.34.766 7.893 4.545a1.824 1.824 0 01.686.886l-.005-2.286v-.97a1.824 1.824 0 00-.68-.867l-7.894-4.544-1.34-.767a1.844 1.844 0 00-.873-.218c-.318.001-.63.087-.904.25l-8.977 5.199a1.832 1.832 0 00-.814.866v1.039l.006 2.184z" fill="#28286E"/><path opacity=".4" d="M.934 18.391a1.831 1.831 0 01.808-.854l8.977-5.199a1.793 1.793 0 011.16-.23c.216.03.425.097.617.2l1.34.766 7.893 4.545a1.824 1.824 0 01.686.886l-.005-2.286v-.97a1.824 1.824 0 00-.68-.867l-7.894-4.544-1.34-.767a1.844 1.844 0 00-.873-.218c-.318.001-.63.087-.904.25l-8.977 5.199a1.832 1.832 0 00-.814.866v1.039l.006 2.184z" fill="#F6643C"/><path d="M1.872 20.827l8.86-5.132a1.768 1.768 0 011.144-.227c.213.03.418.096.608.197l1.323.757 7.792 4.485a1.794 1.794 0 01.776 1.3c.03-.13.047-.262.048-.395l-.007-3.307a1.788 1.788 0 00-.686-.886l-7.893-4.545-1.34-.767a1.843 1.843 0 00-.873-.218c-.318.002-.63.088-.904.25l-8.978 5.199a1.833 1.833 0 00-.807.853l.007 3.458c0 .06.006.12.012.177a1.801 1.801 0 01.918-1.199z" fill="#28286E"/><path opacity=".7" d="M1.872 20.827l8.86-5.132a1.768 1.768 0 011.144-.227c.213.03.418.096.608.197l1.323.757 7.792 4.485a1.794 1.794 0 01.776 1.3c.03-.13.047-.262.048-.395l-.007-3.307a1.788 1.788 0 00-.686-.886l-7.893-4.545-1.34-.767a1.843 1.843 0 00-.873-.218c-.318.002-.63.088-.904.25l-8.978 5.199a1.833 1.833 0 00-.807.853l.007 3.458c0 .06.006.12.012.177a1.801 1.801 0 01.918-1.199z" fill="#F6643C"/><path d="M1.73 23.326l7.79 4.485 1.322.758a1.82 1.82 0 00.86.215 1.77 1.77 0 00.892-.246l8.862-5.132a1.801 1.801 0 00.918-1.199 1.793 1.793 0 00-.776-1.3l-7.79-4.485-1.323-.757a1.816 1.816 0 00-.86-.216 1.77 1.77 0 00-.891.246L1.87 20.827a1.806 1.806 0 00-.917 1.199 1.795 1.795 0 00.776 1.3z" fill="#F6643C"/></g></g><defs><clipPath id="clip0_383_8230"><path fill="#fff" transform="translate(.5)" d="M0 0h148.784v30H0z"/></clipPath><clipPath id="clip1_383_8230"><path fill="#fff" transform="translate(.905 .405)" d="M0 0h21.486v28.378H0z"/></clipPath></defs></svg>