<svg width="146" height="32" viewBox="0 0 146 32" fill="none" xmlns="http://www.w3.org/2000/svg"><path fill-rule="evenodd" clip-rule="evenodd" d="M2 16c0 8.837 7.163 16 16 16s16-7.163 16-16S26.838 0 18 0 2 7.163 2 16z" fill="#0C0C4F"/><path fill-rule="evenodd" clip-rule="evenodd" d="M30.324 11.52c-.505-.565-1.294-.883-2.061-1.014a7.083 7.083 0 00-2.347.022c-1.544.261-2.948.9-4.171 1.69-.636.387-1.178.835-1.739 1.291-.27.23-.517.476-.774.719l-.702.698c-.762.797-1.514 1.523-2.241 2.125-.73.599-1.413 1.054-2.086 1.372-.672.319-1.392.507-2.33.537-.929.033-2.029-.135-3.205-.412-1.182-.276-2.424-.669-3.812-1.007.484 1.344 1.213 2.53 2.15 3.616.947 1.066 2.13 2.038 3.649 2.677 1.497.654 3.379.888 5.138.534 1.765-.34 3.313-1.156 4.564-2.1 1.255-.954 2.27-2.04 3.125-3.17.237-.311.361-.486.532-.73l.473-.7c.328-.433.627-.926.952-1.355.637-.898 1.265-1.795 1.995-2.622.368-.419.755-.82 1.213-1.206.228-.188.474-.372.747-.537.277-.18.57-.32.93-.428zm-6.029 11.386a1.823 1.823 0 103.647 0 1.823 1.823 0 00-3.647 0z" fill="#EC796B"/><path fill-rule="evenodd" clip-rule="evenodd" d="M10.943 12.23l.395-1.22a.797.797 0 01.525-.517l1.226-.377c.17-.052.171-.291.003-.346l-1.22-.395a.799.799 0 01-.518-.525l-.377-1.226a.181.181 0 00-.346-.003l-.395 1.22a.799.799 0 01-.525.518l-1.226.377a.181.181 0 00-.003.345l1.22.395a.8.8 0 01.518.526l.377 1.226c.052.17.291.171.346.003zm19.381-.71c-.543-1.37-1.552-2.524-2.908-3.375-1.346-.842-3.217-1.271-5.07-.905a8.305 8.305 0 00-2.582.972c-.775.453-1.47.997-2.071 1.581-.3.293-.573.599-.844.906l-.701.895-1.084 1.44c-1.38 1.852-2.869 4.023-5.31 4.666-2.396.632-3.435.072-4.898-.159.267.69.599 1.361 1.048 1.951.44.602.961 1.167 1.608 1.652.327.233.673.462 1.056.657.382.188.794.354 1.233.479.874.24 1.858.323 2.811.194a8.458 8.458 0 002.661-.83A11.213 11.213 0 0017.4 20.25c1.24-1.03 2.205-2.168 3.02-3.32.41-.574.783-1.16 1.127-1.747l.405-.698c.124-.204.25-.41.376-.6.514-.769 1.016-1.385 1.626-1.847.601-.474 1.438-.825 2.558-.906 1.114-.083 2.4.07 3.813.387z" fill="#FAFAFA"/><path d="M141.817 11.156v-1.84a.132.132 0 00-.132-.133h-10.487a.133.133 0 00-.133.133v1.84h4.263v11.907h2.227V11.156h4.262zm-21.712-1.973a.132.132 0 00-.132.133V22.93c0 .073.059.132.132.132h8.825c.073 0 .132-.06.132-.132v-1.82H122.2v-4.362h5.669v-1.914H122.2v-3.697h6.373V9.316a.132.132 0 00-.132-.133h-8.336zm-5.118 13.799l.048.081h1.711c.073 0 .132-.06.132-.132V9.316a.132.132 0 00-.132-.133h-2.056v9.613a51.516 51.516 0 00-1.243-1.876 62.438 62.438 0 00-1.939-2.704 62.791 62.791 0 00-2.077-2.683 35.627 35.627 0 00-1.963-2.298l-.049-.052h-1.61a.132.132 0 00-.132.133V22.93c0 .073.059.132.132.132h2.056V12.766c.281.332.58.7.897 1.103.429.546.871 1.131 1.326 1.755h.001v.002c.455.61.91 1.247 1.365 1.91l.001.001v.001c.469.664.917 1.32 1.347 1.97v.002c.429.637.825 1.254 1.189 1.851l.001.001v.001c.378.599.709 1.139.995 1.62zm-12-13.522l.051-.055a.132.132 0 00-.098-.222h-2.438l-.049.058c-.324.375-.726.816-1.207 1.323-.469.495-.97 1.016-1.504 1.563-.534.547-1.074 1.093-1.62 1.64-.438.427-.846.82-1.225 1.18V9.184h-2.095a.132.132 0 00-.132.133V22.93c0 .073.06.132.132.132h2.095v-6.297c.46.302.93.654 1.41 1.058h.001a21.612 21.612 0 011.708 1.572v.002l.002.001a20.835 20.835 0 011.61 1.765l.001.002c.505.607.95 1.215 1.337 1.82l.049.077h2.377c.101 0 .165-.11.114-.198l-.028-.05a16.41 16.41 0 00-1.343-1.954 30.726 30.726 0 00-3.538-3.852 18.149 18.149 0 00-1.633-1.346 205.935 205.935 0 003.048-3.051 184.4 184.4 0 001.604-1.664h.001l.001-.001c.508-.548.965-1.044 1.369-1.487z" fill="#0C0C4F"/><path fill-rule="evenodd" clip-rule="evenodd" d="M80.03 9.08a.132.132 0 00-.133.131V22.94c0 .073.06.132.132.132h1.887v-5.047h2.757c.31.371.612.76.907 1.166l.001.001.002.002c.482.632.928 1.292 1.337 1.98h.001c.37.61.694 1.21.97 1.803l.045.095h2.233a.13.13 0 00.12-.185 19.644 19.644 0 00-.844-1.65 29.376 29.376 0 00-1.383-2.229c-.286-.42-.579-.828-.878-1.225.833-.254 1.492-.715 1.969-1.383.572-.81.856-1.76.856-2.847 0-.747-.13-1.43-.392-2.047a3.802 3.802 0 00-1.19-1.556c-.525-.412-1.171-.674-1.933-.792a3.761 3.761 0 00-.55-.059 7.178 7.178 0 00-.483-.019h-5.432zm7.922 4.472c0 .36-.06.715-.18 1.065-.118.336-.307.63-.567.885-.247.24-.572.412-.984.507-.13.03-.271.05-.422.063-.15.012-.28.018-.395.018h-3.488v-5.077h3.488c.114 0 .246.006.394.018h.007c.147.007.283.027.41.062h.003l.005.002c.41.089.734.26.98.505h.001v.002c.26.254.45.551.567.893v.001c.121.343.181.695.181 1.056zM74.943 21.23v.001c.196.563.405 1.137.627 1.725l.04.107h2.235a.132.132 0 00.124-.177c-.488-1.34-.98-2.68-1.483-4.015a132.528 132.528 0 00-1.35-3.483 96.127 96.127 0 00-1.293-3.133 78.887 78.887 0 00-1.36-2.997.132.132 0 00-.12-.075h-1.781a.136.136 0 00-.12.075c-.473.99-.928 1.989-1.36 2.997-.43.992-.868 2.036-1.312 3.132v.001a209.65 209.65 0 00-1.33 3.483 394.628 394.628 0 00-1.484 4.015.132.132 0 00.124.177h2.181l.049-.053a19.096 19.096 0 011.73-1.63v-.001a21.933 21.933 0 012.003-1.52l.001-.002h.002a22.467 22.467 0 012.065-1.302h.001l.001-.001c.25-.142.495-.274.737-.397l.468 1.335v.001c.208.586.41 1.165.605 1.738zm-2.403-6.583v.002c.189.476.377.96.565 1.453l-.043.02c-.662.3-1.373.69-2.134 1.168a32.22 32.22 0 00-2.169 1.49l.304-.868c.401-1.127.803-2.215 1.205-3.264a52.24 52.24 0 011.153-2.73c.388.873.761 1.783 1.119 2.729z" fill="#0C0C4F"/><path d="M65.521 11.156v-1.84a.132.132 0 00-.132-.133H54.902a.132.132 0 00-.132.133v1.84h4.262v11.775c0 .073.06.132.132.132h1.963c.073 0 .132-.06.132-.132V11.156h4.262zM45.147 22.894a5.255 5.255 0 01-2.012-1.475h-.001v-.001c-.528-.648-.87-1.41-1.03-2.286a.166.166 0 01.138-.193l1.776-.28a.165.165 0 01.185.123c.216.838.66 1.49 1.334 1.961.684.468 1.49.704 2.426.704.607 0 1.15-.093 1.63-.278.485-.19.862-.458 1.138-.8.27-.335.407-.732.407-1.199 0-.29-.051-.527-.147-.718l-.002-.005a1.417 1.417 0 00-.39-.51l-.004-.005a2.398 2.398 0 00-.579-.38 4.472 4.472 0 00-.698-.26h-.002l-3.544-1.053a7.779 7.779 0 01-1.144-.444h-.002a4.255 4.255 0 01-1.004-.694l-.001-.001a3.198 3.198 0 01-.713-1.018c-.179-.405-.265-.877-.265-1.409 0-.854.22-1.59.669-2.202.45-.612 1.058-1.077 1.816-1.397.758-.318 1.607-.473 2.547-.466.952.006 1.808.177 2.565.516a4.868 4.868 0 011.897 1.438c.507.627.846 1.377 1.018 2.243a.165.165 0 01-.134.195l-1.825.319a.165.165 0 01-.19-.136 2.889 2.889 0 00-.612-1.38l-.002-.002a3.048 3.048 0 00-1.173-.898h-.002a3.84 3.84 0 00-1.565-.333 3.744 3.744 0 00-1.47.258c-.435.177-.775.423-1.025.732l-.001.002a1.57 1.57 0 00-.368 1.034c0 .39.111.692.322.92.228.24.507.432.842.579.354.145.699.265 1.033.36l2.645.762c.308.085.66.203 1.055.352.414.154.813.37 1.197.648.395.28.72.653.975 1.116.262.469.388 1.052.388 1.74 0 .692-.14 1.314-.424 1.862a3.862 3.862 0 01-1.158 1.37l-.002.001a5.387 5.387 0 01-1.711.817 7.274 7.274 0 01-2.074.286c-1.003 0-1.914-.17-2.729-.515z" fill="#0C0C4F"/></svg>