<svg width="20" height="20" viewBox="0 0 20 20" fill="none" xmlns="http://www.w3.org/2000/svg"><mask id="a" fill="#fff"><path fill-rule="evenodd" clip-rule="evenodd" d="M1 5a3 3 0 013-3h12a3 3 0 013 3v10a3 3 0 01-3 3H4a3 3 0 01-3-3V5zm8-1.7a.65.65 0 01.65.65v12.1a.65.65 0 11-1.3 0V3.95A.65.65 0 019 3.3zM4 5.35a.65.65 0 000 1.3h2a.65.65 0 000-1.3H4zM3.35 9A.65.65 0 014 8.35h2a.65.65 0 010 1.3H4A.65.65 0 013.35 9zM4 11.35a.65.65 0 100 1.3h2a.65.65 0 100-1.3H4z"/></mask><path fill-rule="evenodd" clip-rule="evenodd" d="M1 5a3 3 0 013-3h12a3 3 0 013 3v10a3 3 0 01-3 3H4a3 3 0 01-3-3V5zm8-1.7a.65.65 0 01.65.65v12.1a.65.65 0 11-1.3 0V3.95A.65.65 0 019 3.3zM4 5.35a.65.65 0 000 1.3h2a.65.65 0 000-1.3H4zM3.35 9A.65.65 0 014 8.35h2a.65.65 0 010 1.3H4A.65.65 0 013.35 9zM4 11.35a.65.65 0 100 1.3h2a.65.65 0 100-1.3H4z" fill="#4070F4"/><path d="M4 .7A4.3 4.3 0 00-.3 5h2.6A1.7 1.7 0 014 3.3V.7zm12 0H4v2.6h12V.7zM20.3 5A4.3 4.3 0 0016 .7v2.6A1.7 1.7 0 0117.7 5h2.6zm0 10V5h-2.6v10h2.6zM16 19.3a4.3 4.3 0 004.3-4.3h-2.6a1.7 1.7 0 01-1.7 1.7v2.6zm-12 0h12v-2.6H4v2.6zM-.3 15A4.3 4.3 0 004 19.3v-2.6A1.7 1.7 0 012.3 15H-.3zm0-10v10h2.6V5H-.3zm11.25-1.05A1.95 1.95 0 009 2v2.6a.65.65 0 01-.65-.65h2.6zm0 12.1V3.95h-2.6v12.1h2.6zM9 18a1.95 1.95 0 001.95-1.95h-2.6A.65.65 0 019 15.4V18zm-1.95-1.95A1.95 1.95 0 009 18v-2.6a.65.65 0 01.65.65h-2.6zm0-12.1v12.1h2.6V3.95h-2.6zM9 2a1.95 1.95 0 00-1.95 1.95h2.6A.65.65 0 019 4.6V2zM4.65 6a.65.65 0 01-.65.65v-2.6A1.95 1.95 0 002.05 6h2.6zM4 5.35a.65.65 0 01.65.65h-2.6A1.95 1.95 0 004 7.95v-2.6zm2 0H4v2.6h2v-2.6zM5.35 6A.65.65 0 016 5.35v2.6A1.95 1.95 0 007.95 6h-2.6zm.65.65A.65.65 0 015.35 6h2.6A1.95 1.95 0 006 4.05v2.6zm-2 0h2v-2.6H4v2.6zm0 .4A1.95 1.95 0 002.05 9h2.6a.65.65 0 01-.65.65v-2.6zm2 0H4v2.6h2v-2.6zM7.95 9A1.95 1.95 0 006 7.05v2.6A.65.65 0 015.35 9h2.6zM6 10.95A1.95 1.95 0 007.95 9h-2.6A.65.65 0 016 8.35v2.6zm-2 0h2v-2.6H4v2.6zM2.05 9A1.95 1.95 0 004 10.95v-2.6a.65.65 0 01.65.65h-2.6zm2.6 3a.65.65 0 01-.65.65v-2.6A1.95 1.95 0 002.05 12h2.6zM4 11.35a.65.65 0 01.65.65h-2.6A1.95 1.95 0 004 13.95v-2.6zm2 0H4v2.6h2v-2.6zm-.65.65a.65.65 0 01.65-.65v2.6A1.95 1.95 0 007.95 12h-2.6zm.65.65a.65.65 0 01-.65-.65h2.6A1.95 1.95 0 006 10.05v2.6zm-2 0h2v-2.6H4v2.6z" fill="#4070F4" mask="url(#a)"/></svg>