<svg width="260" height="261" viewBox="0 0 260 261" fill="none" xmlns="http://www.w3.org/2000/svg">
<path d="M130.002 32C75.9083 32 32 76.0071 32 130.214C32 153.171 40.0623 174.432 53.2113 191.226C63.8189 176.133 75.271 161.89 89.6986 150.197C90.1248 149.77 91.1844 149.135 92.4551 148.285C98.3942 143.822 102.636 137.231 103.696 129.79V129.579C107.301 105.555 117.06 97.2641 144.426 97.2641C146.76 97.2641 149.516 97.2641 152.062 97.4757C166.063 98.1144 174.121 102.154 174.97 104.278C175.607 105.34 175.396 106.617 175.181 107.891L174.121 107.679C165.426 106.617 152.273 109.168 150.365 118.733C149.305 124.046 150.576 129.998 151.002 135.315C151.639 140.844 152.062 146.581 152.062 152.109C152.062 152.536 151.635 154.66 152.062 154.872C137.212 140.629 102.848 158.484 92.0289 166.353C93.0884 165.925 94.152 165.502 95.4227 165.075C105.815 161.462 137.001 152.109 149.09 162.524C159.272 175.067 150.15 198.24 142.514 209.717C138.06 216.519 132.543 222.683 126.393 228H129.998C184.092 228 228 183.993 228 129.786C228 75.58 184.307 32 130.002 32ZM141.243 85.1446C130.635 85.1446 121.94 76.4302 121.94 65.7997C121.94 55.1692 130.635 46.4548 141.243 46.4548C151.851 46.4548 160.546 55.1692 160.546 65.7997C160.546 76.4302 152.062 85.1446 141.243 85.1446Z" fill="#0C0C4F"/>
</svg>
