<svg width="260" height="260" viewBox="0 0 260 260" fill="none" xmlns="http://www.w3.org/2000/svg">
<path d="M71.2651 41.4819C71.2651 43.1409 70.3638 44.5893 69.0241 45.3643V66.1325C69.0241 69.8455 72.034 72.8554 75.747 72.8554H120.566C123.089 72.8554 125.416 73.6889 127.289 75.0956V66.1325C127.289 59.9443 132.306 54.9277 138.494 54.9277H192.277C195.99 54.9277 199 51.9178 199 48.2048V45.3643C197.66 44.5893 196.759 43.1409 196.759 41.4819C196.759 39.0066 198.766 37 201.241 37C203.716 37 205.723 39.0066 205.723 41.4819C205.723 43.1409 204.822 44.5893 203.482 45.3643V48.2048C203.482 54.3931 198.465 59.4096 192.277 59.4096H138.494C134.781 59.4096 131.771 62.4196 131.771 66.1325V104.229H127.289V84.0602C127.289 80.3473 124.279 77.3373 120.566 77.3373H75.747C69.5587 77.3373 64.5422 72.3208 64.5422 66.1325V45.3643C63.2025 44.5893 62.3012 43.1409 62.3012 41.4819C62.3012 39.0066 64.3078 37 66.7831 37C69.2584 37 71.2651 39.0066 71.2651 41.4819Z" fill="#0C0C4F"/>
<path d="M80.2289 151.289H75.747C72.034 151.289 69.0241 148.279 69.0241 144.566V119.916C69.0241 113.727 64.0075 108.711 57.8193 108.711H21.3643C20.5893 107.371 19.1409 106.47 17.4819 106.47C15.0066 106.47 13 108.477 13 110.952C13 113.427 15.0066 115.434 17.4819 115.434C19.1409 115.434 20.5893 114.532 21.3643 113.193H57.8193C61.5322 113.193 64.5422 116.203 64.5422 119.916V144.566C64.5422 150.755 69.5587 155.771 75.747 155.771H80.2289V151.289Z" fill="#0C0C4F"/>
<path fill-rule="evenodd" clip-rule="evenodd" d="M39.8916 207.313H21.9639V214.036C21.9639 218.987 25.9771 223 30.9277 223H228.133C233.083 223 237.096 218.987 237.096 214.036V207.313H219.169V95.2651C219.169 90.3145 215.155 86.3012 210.205 86.3012V90.7831C212.68 90.7831 214.687 92.7898 214.687 95.2651V207.313H44.3735V117.675H39.8916V207.313ZM26.4458 211.795V214.036C26.4458 216.511 28.4524 218.518 30.9277 218.518H228.133C230.608 218.518 232.614 216.511 232.614 214.036V211.795H26.4458Z" fill="#0C0C4F"/>
<path d="M246.06 66.1325C246.06 68.6078 244.054 70.6145 241.578 70.6145C239.919 70.6145 238.471 69.7131 237.696 68.3735H212.446C208.733 68.3735 205.723 71.3834 205.723 75.0964V144.566C205.723 150.755 200.706 155.771 194.518 155.771H178.831V151.289H194.518C198.231 151.289 201.241 148.279 201.241 144.566V75.0964C201.241 68.9081 206.258 63.8916 212.446 63.8916H237.696C238.471 62.5519 239.919 61.6506 241.578 61.6506C244.054 61.6506 246.06 63.6572 246.06 66.1325Z" fill="#0C0C4F"/>
<path d="M151.94 153.53C151.94 165.907 141.907 175.94 129.53 175.94C117.154 175.94 107.12 165.907 107.12 153.53C107.12 141.154 117.154 131.12 129.53 131.12C141.907 131.12 151.94 141.154 151.94 153.53Z" fill="#0C0C4F"/>
<path fill-rule="evenodd" clip-rule="evenodd" d="M126.305 108.711C122.788 108.711 119.666 110.961 118.554 114.297L116.962 119.072C116.089 119.673 115.099 120.083 114.058 120.276L109.549 118.022C106.403 116.449 102.604 117.066 100.118 119.552L95.5581 124.112C93.0714 126.599 92.455 130.398 94.0277 133.543L96.2788 138.045C96.0871 139.087 95.6784 140.077 95.0797 140.951L90.2974 142.545C86.9612 143.657 84.7108 146.779 84.7108 150.296V156.744C84.7108 160.261 86.9611 163.383 90.2974 164.495L95.0619 166.083C95.67 166.963 96.0847 167.962 96.2785 169.013L94.0295 173.511C92.4568 176.657 93.0733 180.455 95.56 182.942L100.12 187.502C102.606 189.988 106.405 190.605 109.551 189.032L114.05 186.782C115.095 186.975 116.087 187.386 116.962 187.988L118.554 192.763C119.666 196.099 122.788 198.349 126.305 198.349H132.753C136.27 198.349 139.392 196.099 140.504 192.763L142.094 187.991C142.973 187.386 143.97 186.973 145.019 186.781L149.511 189.026C152.657 190.599 156.455 189.983 158.942 187.496L163.502 182.936C165.988 180.45 166.605 176.651 165.032 173.505L162.783 169.007C162.977 167.958 163.392 166.961 163.998 166.083L168.763 164.495C172.099 163.383 174.349 160.261 174.349 156.744V150.296C174.349 146.779 172.099 143.657 168.763 142.545L163.981 140.951C163.383 140.079 162.975 139.091 162.783 138.052L165.034 133.549C166.607 130.403 165.99 126.604 163.504 124.118L158.944 119.558C156.457 117.071 152.658 116.455 149.513 118.028L145.012 120.278C143.965 120.085 142.971 119.673 142.095 119.07L140.504 114.297C139.392 110.961 136.27 108.711 132.753 108.711H126.305ZM132.753 113.193C134.34 113.193 135.75 114.209 136.252 115.715L138.257 121.731C140.339 123.635 143.025 124.747 145.843 124.873L151.517 122.036C152.937 121.326 154.652 121.605 155.775 122.727L160.334 127.287C161.457 128.41 161.735 130.124 161.025 131.544L158.187 137.221C158.314 140.031 159.421 142.708 161.315 144.787L167.346 146.797C168.852 147.299 169.867 148.708 169.867 150.296V156.744C169.867 158.332 168.852 159.741 167.346 160.243L161.341 162.245C159.432 164.327 158.315 167.015 158.187 169.837L161.024 175.51C161.733 176.93 161.455 178.645 160.333 179.767L155.773 184.327C154.65 185.449 152.935 185.728 151.516 185.018L145.853 182.186C143.031 182.311 140.342 183.424 138.257 185.33L136.252 191.346C135.75 192.852 134.34 193.867 132.753 193.867H126.305C124.717 193.867 123.308 192.852 122.806 191.346L120.799 185.326C118.718 183.425 116.035 182.314 113.219 182.187L107.546 185.024C106.126 185.733 104.411 185.455 103.289 184.333L98.7291 179.773C97.6066 178.65 97.3283 176.935 98.0383 175.516L100.874 169.845C100.747 167.02 99.6305 164.329 97.7194 162.245L91.7147 160.243C90.2086 159.741 89.1928 158.332 89.1928 156.744V150.296C89.1928 148.708 90.2086 147.299 91.7147 146.797L97.7455 144.787C99.6412 142.706 100.748 140.026 100.874 137.213L98.0364 131.539C97.3265 130.119 97.6048 128.404 98.7273 127.281L103.287 122.722C104.41 121.599 106.124 121.321 107.544 122.031L113.229 124.873C116.041 124.744 118.72 123.633 120.799 121.734L122.806 115.715C123.308 114.209 124.717 113.193 126.305 113.193H132.753Z" fill="#0C0C4F"/>
<path d="M122.807 86.3012H48.8554C43.9048 86.3012 39.8916 90.3145 39.8916 95.2651V104.229H44.3735V95.2651C44.3735 92.7898 46.3801 90.7831 48.8554 90.7831H122.807V86.3012Z" fill="#0C0C4F"/>
<path d="M136.253 86.3012H196.759V90.7831H136.253V86.3012Z" fill="#0C0C4F"/>
</svg>
