<svg width="78" height="26" viewBox="0 0 78 26" fill="none" xmlns="http://www.w3.org/2000/svg"><path d="M9.9.498H.1v24.5h9.8c6.755 0 11.9-5.32 11.9-12.25S16.655.498 9.9.498zm0 19.11H5.7V5.888h4.2c3.85 0 6.51 2.66 6.51 6.86s-2.66 6.86-6.51 6.86zm23.274 5.88c5.145 0 9.275-4.025 9.275-9.24s-4.13-9.24-9.275-9.24c-5.145 0-9.275 4.025-9.275 9.24s4.13 9.24 9.275 9.24zm0-5.11c-2.275 0-4.025-1.645-4.025-4.13s1.75-4.13 4.025-4.13c2.275 0 4.025 1.645 4.025 4.13s-1.75 4.13-4.025 4.13zm20.644 5.11c3.43 0 6.405-1.785 7.91-4.515l-4.585-2.625c-.56 1.225-1.855 1.96-3.395 1.96-2.275 0-3.955-1.645-3.955-4.06 0-2.415 1.68-4.06 3.955-4.06 1.54 0 2.8.735 3.395 1.96l4.585-2.66c-1.505-2.695-4.515-4.48-7.91-4.48-5.32 0-9.275 4.025-9.275 9.24s3.955 9.24 9.275 9.24zm14.993-12.88c0-.63.56-.98 1.47-.98 1.155 0 1.855.63 2.345 1.54l4.48-2.415c-1.47-2.485-3.99-3.745-6.825-3.745-3.64 0-6.86 1.925-6.86 5.74 0 6.055 8.61 5.04 8.61 6.965 0 .7-.63 1.085-1.89 1.085-1.54 0-2.52-.735-2.975-2.065l-4.55 2.59c1.365 2.835 4.025 4.165 7.525 4.165 3.78 0 7.28-1.715 7.28-5.74 0-6.475-8.61-5.145-8.61-7.14z" fill="#0C152E"/></svg>