<svg width="17" height="17" viewBox="0 0 17 17" fill="none" xmlns="http://www.w3.org/2000/svg"><path fill-rule="evenodd" clip-rule="evenodd" d="M10.292 3.858l.18-1.14 4.168 4.167-1.14.18a1.4 1.4 0 00-.773.393l-2.743 2.744a1.4 1.4 0 00-.378.692l-.784 3.608-5.967-5.966 3.608-.785a1.4 1.4 0 00.693-.378L9.899 4.63a1.4 1.4 0 00.393-.772zM9.433.963a.5.5 0 01.848-.276l6.389 6.39a.5.5 0 01-.276.847l-2.692.426a.1.1 0 00-.055.028l-2.744 2.743a.1.1 0 00-.027.05l-1.095 5.04a.5.5 0 01-.842.247l-3.56-3.56-3.89 3.889a.65.65 0 01-.918-.92l3.889-3.889L.9 8.418a.5.5 0 01.247-.841l5.04-1.096a.1.1 0 00.05-.027L8.98 3.711a.1.1 0 00.028-.055L9.433.963z" fill="#fff"/></svg>