<svg width="20" height="21" viewBox="0 0 20 21" fill="none" xmlns="http://www.w3.org/2000/svg"><path fill-rule="evenodd" clip-rule="evenodd" d="M4.25 6a.75.75 0 00-.75.75v8.5c0 .414.336.75.75.75h8.5a.75.75 0 00.75-.75v-4a.75.75 0 011.5 0v4a2.25 2.25 0 01-2.25 2.25h-8.5A2.25 2.25 0 012 15.25v-8.5A2.25 2.25 0 014.25 4.5h5a.75.75 0 010 1.5h-5z" fill="#6B7280"/><path fill-rule="evenodd" clip-rule="evenodd" d="M6.194 13.253a.75.75 0 001.06.053L16.5 4.94v2.81a.75.75 0 001.5 0v-4.5a.75.75 0 00-.75-.75h-4.5a.75.75 0 000 1.5h2.553l-9.056 8.194a.75.75 0 00-.053 1.06z" fill="#6B7280"/></svg>