<svg width="10" height="14" viewBox="0 0 10 14" fill="none" xmlns="http://www.w3.org/2000/svg">
<path d="M1.01191 1.56944C0.697412 1.29988 0.660991 0.826401 0.930558 0.511906C1.20012 0.197412 1.6736 0.160991 1.98809 0.430558L1.01191 1.56944ZM8.5 7L8.98809 6.43056C9.15433 6.57304 9.25 6.78106 9.25 7C9.25 7.21894 9.15433 7.42696 8.98809 7.56944L8.5 7ZM1.98809 13.5694C1.6736 13.839 1.20012 13.8026 0.930558 13.4881C0.660991 13.1736 0.697412 12.7001 1.01191 12.4306L1.98809 13.5694ZM1.98809 0.430558L8.98809 6.43056L8.01191 7.56944L1.01191 1.56944L1.98809 0.430558ZM8.98809 7.56944L1.98809 13.5694L1.01191 12.4306L8.01191 6.43056L8.98809 7.56944Z" fill="#DFE6F2"/>
</svg>
