<svg width="10" height="14" viewBox="0 0 10 14" fill="none" xmlns="http://www.w3.org/2000/svg">
<path d="M8.98809 1.56944C9.30259 1.29988 9.33901 0.826401 9.06944 0.511906C8.79988 0.197412 8.3264 0.160991 8.01191 0.430558L8.98809 1.56944ZM1.5 7L1.01191 6.43056C0.845672 6.57304 0.75 6.78106 0.75 7C0.75 7.21894 0.845672 7.42696 1.01191 7.56944L1.5 7ZM8.01191 13.5694C8.3264 13.839 8.79988 13.8026 9.06944 13.4881C9.33901 13.1736 9.30259 12.7001 8.98809 12.4306L8.01191 13.5694ZM8.01191 0.430558L1.01191 6.43056L1.98809 7.56944L8.98809 1.56944L8.01191 0.430558ZM1.01191 7.56944L8.01191 13.5694L8.98809 12.4306L1.98809 6.43056L1.01191 7.56944Z" fill="#8A8CA2"/>
</svg>
