<svg width="18" height="19" viewBox="0 0 18 19" fill="none" xmlns="http://www.w3.org/2000/svg">
<path d="M9.07706 0.833984C4.1492 0.833984 6.10352e-05 4.82912 6.10352e-05 9.75874V19.0002L9.07531 18.9915C14.0032 18.9915 18.0001 14.8423 18.0001 9.91448C18.0001 4.98662 13.9997 0.833984 9.07706 0.833984Z" fill="black"/>
<path d="M9.16493 4.28809C7.21583 4.28924 5.41109 5.31576 4.41389 6.99044C3.41669 8.66513 3.37411 10.7409 4.30181 12.4551L3.30084 15.675L6.89524 14.863C8.95354 15.7904 11.3688 15.3739 12.9976 13.8107C14.6265 12.2476 15.1419 9.85143 14.3 7.75674C13.4581 5.66206 11.4277 4.28919 9.17018 4.28809H9.16493Z" fill="#FFF9AE"/>
<path d="M13.4904 13.2438C11.9191 15.2259 9.20335 15.8893 6.89524 14.8548L3.30084 15.6773L6.95999 15.2451C9.38575 16.6661 12.4916 16.0409 14.1786 13.792C15.8656 11.5431 15.5968 8.38632 13.5538 6.45508C15.0877 8.4662 15.0616 11.2617 13.4904 13.2438Z" fill="#00AEEF"/>
<path d="M13.1809 12.1927C11.8253 14.3279 9.1937 15.2713 6.79025 14.4836L3.30084 15.677L6.89524 14.8633C9.45516 16.0197 12.4753 15.0731 13.9173 12.6625C15.3593 10.2519 14.7649 7.1432 12.5353 5.43457C14.2707 7.27455 14.5366 10.0574 13.1809 12.1927Z" fill="#00A94F"/>
<path d="M4.63256 12.5776C3.63076 10.1628 4.45634 7.37634 6.61191 5.89703C8.76747 4.41772 11.6644 4.6495 13.5573 6.45274C11.8042 4.15206 8.57455 3.59048 6.14771 5.16433C3.72086 6.73818 2.91629 9.91599 4.30181 12.4551L3.30084 15.675L4.63256 12.5776Z" fill="#F15D22"/>
<path d="M4.30159 12.4561C3.05855 10.1601 3.5902 7.30751 5.5769 5.61343C7.56361 3.91935 10.4643 3.84509 12.5351 5.43529C10.5487 3.34366 7.28843 3.12961 5.04559 4.94357C2.80275 6.75752 2.33033 9.99046 3.96035 12.3703L3.30237 15.6778L4.30159 12.4561Z" fill="#D0232B"/>
</svg>
