<svg width="24" height="24" viewBox="0 0 24 24" fill="none" xmlns="http://www.w3.org/2000/svg">
<path d="M4.72988 5.33005C6.05988 4.71005 7.49988 4.26005 8.99988 4.00005C9.01303 3.99963 9.02612 4.00209 9.03821 4.00728C9.05031 4.01246 9.06112 4.02023 9.06988 4.03005C9.24988 4.36005 9.45988 4.79005 9.59988 5.12005C11.1909 4.88005 12.8089 4.88005 14.3999 5.12005C14.5399 4.78005 14.7499 4.36005 14.9399 4.03005C14.9499 4.01005 14.9799 4.00005 15.0099 4.00005C16.5099 4.26005 17.9399 4.71005 19.2799 5.33005C19.2899 5.33005 19.2999 5.34005 19.3099 5.35005C22.0299 9.42005 22.7799 13.38 22.4099 17.3C22.4099 17.32 22.3999 17.34 22.3799 17.35C20.5799 18.67 18.8499 19.47 17.1399 20C17.1099 20.01 17.0799 20 17.0699 19.98C16.6699 19.43 16.3099 18.85 15.9999 18.24C15.9799 18.2 15.9999 18.16 16.0399 18.15C16.6099 17.93 17.1499 17.67 17.6799 17.37C17.7199 17.35 17.7199 17.29 17.6899 17.26C17.5799 17.18 17.4699 17.09 17.3599 17.01C17.3399 16.99 17.3099 16.99 17.2899 17C13.8499 18.57 10.1399 18.57 6.73988 17C6.71988 16.99 6.68988 16.99 6.66988 17.01C6.55988 17.1 6.44988 17.18 6.33988 17.27C6.29988 17.3 6.29988 17.36 6.34988 17.38C6.86988 17.69 7.41988 17.94 7.98988 18.16C8.02988 18.17 8.03988 18.22 8.02988 18.25C7.70988 18.86 7.34988 19.44 6.95988 19.99C6.92988 20 6.89988 20.01 6.86988 20C5.14988 19.47 3.41988 18.67 1.61988 17.35C1.59988 17.34 1.58988 17.32 1.58988 17.3C1.14988 12.77 2.31989 8.84005 4.68988 5.35005C4.69988 5.34005 4.70988 5.33005 4.72988 5.33005ZM15.4799 14.91C16.5099 14.91 17.3699 13.96 17.3699 12.79C17.3699 11.62 16.5299 10.67 15.4799 10.67C14.4199 10.67 13.5799 11.63 13.5899 12.79C13.5899 13.96 14.4299 14.91 15.4799 14.91ZM8.50988 14.91C9.53988 14.91 10.3999 13.96 10.3999 12.79C10.3999 11.62 9.55988 10.67 8.50988 10.67C7.44988 10.67 6.60988 11.63 6.61988 12.79C6.61988 13.96 7.44988 14.91 8.50988 14.91Z" fill="#080844"/>
</svg>
