<svg width="24" height="24" viewBox="0 0 24 24" fill="none" xmlns="http://www.w3.org/2000/svg">
<path d="M12 2.24609C14.3745 2.24619 16.6715 3.09121 18.48 4.62994C20.2885 6.16867 21.4905 8.30071 21.8708 10.6446C22.2512 12.9884 21.7852 15.3912 20.5561 17.4228C19.327 19.4545 17.4151 20.9826 15.1625 21.7336C14.6625 21.8211 14.475 21.5211 14.475 21.2586C14.475 21.0211 14.4875 20.2336 14.4875 19.3961C17 19.8586 17.65 18.7836 17.85 18.2211C18.0719 17.674 18.4237 17.1892 18.875 16.8086C19.225 16.6211 19.725 16.1586 18.8875 16.1461C18.5677 16.1808 18.261 16.2921 17.9933 16.4705C17.7257 16.6489 17.505 16.8892 17.35 17.1711C17.2132 17.4168 17.0293 17.6331 16.8088 17.8076C16.5883 17.9821 16.3355 18.1114 16.0649 18.188C15.7944 18.2646 15.5114 18.2871 15.2321 18.2542C14.9528 18.2213 14.6828 18.1336 14.4375 17.9961C14.3942 17.4877 14.1676 17.0124 13.8 16.6586C16.025 16.4086 18.35 15.5461 18.35 11.7211C18.364 10.7273 17.9973 9.7657 17.325 9.03362C17.6307 8.16984 17.5949 7.22191 17.225 6.38362C17.225 6.38362 16.3875 6.12111 14.475 7.40862C12.8387 6.9586 11.1113 6.9586 9.47497 7.40862C7.56249 6.10862 6.72497 6.38362 6.72497 6.38362C6.35498 7.2219 6.3192 8.16985 6.62497 9.03362C5.95063 9.76445 5.58358 10.7269 5.59997 11.7211C5.59997 15.5586 7.93749 16.4086 10.1625 16.6586C9.92382 16.9005 9.74002 17.1909 9.62355 17.5101C9.50708 17.8293 9.46067 18.1699 9.48747 18.5086C9.48747 19.8461 9.49998 20.9211 9.49998 21.2586C9.49998 21.5211 9.31248 21.8336 8.81248 21.7336C6.56382 20.9765 4.65741 19.4449 3.43356 17.4121C2.20971 15.3794 1.74809 12.9779 2.13109 10.6363C2.5141 8.29474 3.7168 6.16547 5.52451 4.6286C7.33221 3.09174 9.62726 2.24733 12 2.24609Z" fill="#CCCCCC"/>
</svg>
