<svg width="21" height="20" viewBox="0 0 21 20" fill="none" xmlns="http://www.w3.org/2000/svg">
<path d="M15.2295 1L15.8344 1.2379C15.9473 0.950967 15.843 0.624233 15.5848 0.455698C15.3267 0.287164 14.9856 0.323207 14.7683 0.541985L15.2295 1ZM5.06982 11.2308L4.60861 10.7728C4.42365 10.959 4.36886 11.2382 4.46974 11.4806C4.57061 11.7229 4.80734 11.8808 5.06982 11.8808V11.2308ZM8.88927 11.2308L9.49213 11.4738C9.57288 11.2735 9.54885 11.0461 9.428 10.8671C9.30715 10.6881 9.10526 10.5808 8.88927 10.5808V11.2308ZM12.174 8.76923L11.5691 8.53133C11.4904 8.73143 11.5157 8.9575 11.6368 9.1352C11.7579 9.3129 11.959 9.41923 12.174 9.41923L12.174 8.76923ZM5.75733 19L5.15447 18.757C5.03914 19.0431 5.14076 19.3708 5.3977 19.5415C5.65464 19.7121 5.99614 19.6787 6.21511 19.4614L5.75733 19ZM16.0698 8.76923L16.5276 9.23068C16.7146 9.04519 16.7711 8.76521 16.6708 8.52168C16.5705 8.27816 16.3332 8.11923 16.0698 8.11923L16.0698 8.76923ZM14.7683 0.541985L4.60861 10.7728L5.53104 11.6888L15.6908 1.45802L14.7683 0.541985ZM5.06982 11.8808H8.88927V10.5808H5.06982V11.8808ZM12.7789 9.00713L15.8344 1.2379L14.6246 0.7621L11.5691 8.53133L12.7789 9.00713ZM6.21511 19.4614L16.5276 9.23068L15.612 8.30779L5.29954 18.5386L6.21511 19.4614ZM16.0698 8.11923L12.174 8.11923L12.174 9.41923L16.0698 9.41923L16.0698 8.11923ZM8.28641 10.9877L5.15447 18.757L6.36019 19.243L9.49213 11.4738L8.28641 10.9877Z" fill="white"/>
</svg>
