<svg width="20" height="20" viewBox="0 0 20 20" fill="none" xmlns="http://www.w3.org/2000/svg">
<path fill-rule="evenodd" clip-rule="evenodd" d="M8.81507 0.9953C7.87201 0.9953 7.1057 1.75653 7.10045 2.69903L6.8941 10.3638C6.55519 10.0751 6.20899 9.85256 5.86555 9.70572C5.11371 9.38427 4.24196 9.39526 3.66243 10.092C3.31238 10.5129 3.24683 11.0431 3.28137 11.507C3.31642 11.9778 3.46028 12.4755 3.64076 12.9403C4.00281 13.8728 4.56501 14.8056 4.97034 15.3764C5.38626 15.962 6.15511 16.8512 7.16559 17.6005C8.17265 18.3472 9.47608 18.9959 10.9444 18.9959C14.2467 18.9959 16.9323 16.3532 16.9953 13.0679H16.9967V9.4048C16.9967 8.4578 16.2284 7.69132 15.2821 7.69132C15.0947 7.69132 14.9144 7.72135 14.7456 7.77688C14.4888 7.12676 13.8544 6.66722 13.1133 6.66722C12.9262 6.66722 12.7458 6.69653 12.5766 6.75081C12.3541 6.06203 11.7071 5.56435 10.9446 5.56435C10.8016 5.56435 10.6626 5.58186 10.5297 5.61486V2.70879C10.5297 1.76179 9.76137 0.9953 8.81507 0.9953ZM10.5297 7.31722V10.8622C10.5297 11.2211 10.2387 11.5122 9.87971 11.5122C9.52073 11.5122 9.22971 11.2211 9.22971 10.8622V2.70879C9.22971 2.48109 9.04474 2.2953 8.81507 2.2953C8.58539 2.2953 8.40042 2.4811 8.40042 2.70879V2.71753L8.40018 2.72628L8.15006 12.0175C8.14255 12.2964 7.95784 12.5394 7.6911 12.6214C7.42436 12.7033 7.1351 12.6058 6.97233 12.3792C6.38844 11.5661 5.80418 11.0933 5.35448 10.9011C4.91485 10.7131 4.74259 10.8263 4.66189 10.9233C4.61644 10.978 4.55554 11.1119 4.57778 11.4105C4.59951 11.7023 4.69566 12.0655 4.85262 12.4698C5.16545 13.2755 5.66781 14.1133 6.03024 14.6236C6.38209 15.119 7.05862 15.9028 7.93989 16.5562C8.82459 17.2122 9.85932 17.6959 10.9444 17.6959C13.5695 17.6959 15.6965 15.5703 15.6965 12.9497H15.6967V9.4048C15.6967 9.17711 15.5117 8.99132 15.2821 8.99132C15.0524 8.99132 14.8674 9.17711 14.8674 9.4048V9.44419V10.8622C14.8674 11.2212 14.5764 11.5122 14.2174 11.5122C13.8584 11.5122 13.5674 11.2212 13.5674 10.8622V9.44419V9.4048V8.42009C13.5674 8.17065 13.3648 7.96722 13.1133 7.96722C12.8619 7.96722 12.6593 8.17065 12.6593 8.42009V8.49887V10.8622C12.6593 11.2212 12.3682 11.5122 12.0093 11.5122C11.6503 11.5122 11.3593 11.2212 11.3593 10.8622V8.49887V8.42009V7.27783C11.3593 7.05014 11.1743 6.86435 10.9446 6.86435C10.7149 6.86435 10.53 7.05014 10.53 7.27783V7.31722H10.5297Z" fill="#0C152E"/>
</svg>
