<svg width="18" height="18" viewBox="0 0 18 18" fill="none" xmlns="http://www.w3.org/2000/svg">
<path fill-rule="evenodd" clip-rule="evenodd" d="M9.00006 0.139137C4.02756 0.139137 6.10352e-05 4.16664 6.10352e-05 9.13914C6.10352e-05 13.1216 2.57631 16.4854 6.15381 17.6779C6.60381 17.7566 6.77256 17.4866 6.77256 17.2504C6.77256 17.0366 6.76131 16.3279 6.76131 15.5741C4.50006 15.9904 3.91506 15.0229 3.73506 14.5166C3.63381 14.2579 3.19506 13.4591 2.81256 13.2454C2.49756 13.0766 2.04756 12.6604 2.80131 12.6491C3.51006 12.6379 4.01631 13.3016 4.18506 13.5716C4.99506 14.9329 6.28881 14.5504 6.80631 14.3141C6.88506 13.7291 7.12131 13.3354 7.38006 13.1104C5.37756 12.8854 3.28506 12.1091 3.28506 8.66664C3.28506 7.68789 3.63381 6.87789 4.20756 6.24789C4.11756 6.02289 3.80256 5.10039 4.29756 3.86289C4.29756 3.86289 5.05131 3.62664 6.77256 4.78539C7.49256 4.58289 8.25756 4.48164 9.02256 4.48164C9.78756 4.48164 10.5526 4.58289 11.2726 4.78539C12.9938 3.61539 13.7476 3.86289 13.7476 3.86289C14.2426 5.10039 13.9276 6.02289 13.8376 6.24789C14.4113 6.87789 14.7601 7.67664 14.7601 8.66664C14.7601 12.1204 12.6563 12.8854 10.6538 13.1104C10.9801 13.3916 11.2613 13.9316 11.2613 14.7754C11.2613 15.9791 11.2501 16.9466 11.2501 17.2504C11.2501 17.4866 11.4188 17.7679 11.8688 17.6779C13.6555 17.0747 15.208 15.9265 16.3079 14.3947C17.4078 12.863 17.9996 11.0249 18.0001 9.13914C18.0001 4.16664 13.9726 0.139137 9.00006 0.139137Z" fill="#0C152E"/>
</svg>
