<svg width="18" height="14" viewBox="0 0 18 14" fill="none" xmlns="http://www.w3.org/2000/svg">
<path d="M15.2893 1.30142C14.1284 0.770451 12.8954 0.383469 11.6085 0.16748C11.4465 0.446469 11.2665 0.824446 11.1405 1.12143C9.77166 0.92344 8.41271 0.92344 7.06277 1.12143C6.93677 0.824446 6.74777 0.446469 6.59477 0.16748C5.29886 0.383469 4.06592 0.770451 2.91308 1.30142C0.582193 4.73925 -0.0477787 8.09607 0.267206 11.4079C1.81513 12.5328 3.30907 13.2168 4.7769 13.6668C5.13688 13.1808 5.46087 12.6588 5.73986 12.1099C5.20888 11.9119 4.70491 11.6689 4.21893 11.3809C4.34492 11.291 4.47092 11.192 4.58792 11.093C7.52177 12.4339 10.6995 12.4339 13.5974 11.093C13.7234 11.192 13.8404 11.291 13.9664 11.3809C13.4804 11.6689 12.9764 11.9119 12.4454 12.1099C12.7244 12.6588 13.0484 13.1808 13.4084 13.6668C14.8753 13.2168 16.3782 12.5328 17.918 11.4079C18.305 7.57413 17.3052 4.24431 15.2893 1.30142ZM6.14483 9.36502C5.26287 9.36502 4.5429 8.56407 4.5429 7.58313C4.5429 6.60219 5.24487 5.80119 6.14483 5.80119C7.03577 5.80119 7.76471 6.60219 7.74672 7.58313C7.74672 8.56407 7.03577 9.36502 6.14483 9.36502ZM12.0585 9.36502C11.1765 9.36502 10.4556 8.56407 10.4556 7.58313C10.4556 6.60219 11.1585 5.80119 12.0585 5.80119C12.9494 5.80119 13.6784 6.60219 13.6604 7.58313C13.6604 8.56407 12.9584 9.36502 12.0585 9.36502Z" fill="white"/>
</svg>
