<svg width="18" height="18" viewBox="0 0 18 18" fill="none" xmlns="http://www.w3.org/2000/svg">
<path fill-rule="evenodd" clip-rule="evenodd" d="M9.00006 0.13916C4.02756 0.13916 6.10352e-05 4.16666 6.10352e-05 9.13916C6.10352e-05 13.1217 2.57631 16.4854 6.15381 17.6779C6.60381 17.7567 6.77256 17.4867 6.77256 17.2504C6.77256 17.0367 6.76131 16.3279 6.76131 15.5742C4.50006 15.9904 3.91506 15.0229 3.73506 14.5167C3.63381 14.2579 3.19506 13.4592 2.81256 13.2454C2.49756 13.0767 2.04756 12.6604 2.80131 12.6492C3.51006 12.6379 4.01631 13.3017 4.18506 13.5717C4.99506 14.9329 6.28881 14.5504 6.80631 14.3142C6.88506 13.7292 7.12131 13.3354 7.38006 13.1104C5.37756 12.8854 3.28506 12.1092 3.28506 8.66666C3.28506 7.68791 3.63381 6.87791 4.20756 6.24791C4.11756 6.02291 3.80256 5.10041 4.29756 3.86291C4.29756 3.86291 5.05131 3.62666 6.77256 4.78541C7.49256 4.58291 8.25756 4.48166 9.02256 4.48166C9.78756 4.48166 10.5526 4.58291 11.2726 4.78541C12.9938 3.61541 13.7476 3.86291 13.7476 3.86291C14.2426 5.10041 13.9276 6.02291 13.8376 6.24791C14.4113 6.87791 14.7601 7.67666 14.7601 8.66666C14.7601 12.1204 12.6563 12.8854 10.6538 13.1104C10.9801 13.3917 11.2613 13.9317 11.2613 14.7754C11.2613 15.9792 11.2501 16.9467 11.2501 17.2504C11.2501 17.4867 11.4188 17.7679 11.8688 17.6779C13.6555 17.0748 15.208 15.9265 16.3079 14.3947C17.4078 12.863 17.9996 11.0249 18.0001 9.13916C18.0001 4.16666 13.9726 0.13916 9.00006 0.13916Z" fill="white"/>
</svg>
