<svg width="18" height="14" viewBox="0 0 18 14" fill="none" xmlns="http://www.w3.org/2000/svg">
<path d="M15.2893 1.30137C14.1284 0.770398 12.8954 0.383415 11.6085 0.167427C11.4465 0.446415 11.2665 0.824392 11.1405 1.12138C9.77166 0.923386 8.41271 0.923386 7.06277 1.12138C6.93677 0.824392 6.74777 0.446415 6.59477 0.167427C5.29886 0.383415 4.06592 0.770398 2.91308 1.30137C0.582193 4.73919 -0.0477787 8.09602 0.267206 11.4078C1.81513 12.5328 3.30907 13.2168 4.7769 13.6668C5.13688 13.1808 5.46087 12.6588 5.73986 12.1098C5.20888 11.9118 4.70491 11.6688 4.21893 11.3808C4.34492 11.2909 4.47092 11.1919 4.58792 11.0929C7.52177 12.4338 10.6995 12.4338 13.5974 11.0929C13.7234 11.1919 13.8404 11.2909 13.9664 11.3808C13.4804 11.6688 12.9764 11.9118 12.4454 12.1098C12.7244 12.6588 13.0484 13.1808 13.4084 13.6668C14.8753 13.2168 16.3782 12.5328 17.918 11.4078C18.305 7.57408 17.3052 4.24425 15.2893 1.30137ZM6.14483 9.36496C5.26287 9.36496 4.5429 8.56402 4.5429 7.58308C4.5429 6.60214 5.24487 5.80114 6.14483 5.80114C7.03577 5.80114 7.76471 6.60214 7.74672 7.58308C7.74672 8.56402 7.03577 9.36496 6.14483 9.36496ZM12.0585 9.36496C11.1765 9.36496 10.4556 8.56402 10.4556 7.58308C10.4556 6.60214 11.1585 5.80114 12.0585 5.80114C12.9494 5.80114 13.6784 6.60214 13.6604 7.58308C13.6604 8.56402 12.9584 9.36496 12.0585 9.36496Z" fill="#0C152E"/>
</svg>
