<svg width="17" height="17" viewBox="0 0 17 17" fill="none" xmlns="http://www.w3.org/2000/svg">
<path fill-rule="evenodd" clip-rule="evenodd" d="M15.2815 5.87618C15.905 5.25165 16.25 4.4179 16.25 3.53492C16.25 2.65118 15.9057 1.81884 15.2814 1.19478C14.0249 -0.0650184 11.8617 -0.0648831 10.604 1.19492L9.88389 1.91631L14.5334 6.62556L15.2815 5.87618ZM13.6639 7.49661L6.25447 14.9187C6.08876 15.0847 5.88138 15.203 5.6563 15.2581L1.8531 16.2105C1.74926 16.2371 1.64373 16.2501 1.53732 16.2501C1.19702 16.2501 0.868835 16.1146 0.62499 15.8703C0.307182 15.5495 0.179287 15.0862 0.288109 14.6477L1.23812 10.8374C1.29405 10.6109 1.41199 10.4027 1.57698 10.2375L9.01433 2.78736L13.6639 7.49661Z" fill="#4070F4"/>
</svg>
