<svg width="142" height="33" viewBox="0 0 142 33" fill="none" xmlns="http://www.w3.org/2000/svg">
<path fill-rule="evenodd" clip-rule="evenodd" d="M0.0327339 16.8496C0.0327339 25.6863 7.19609 32.8496 16.0327 32.8496C24.8694 32.8496 32.0332 25.6863 32.0332 16.8496C32.0332 8.01296 24.8694 0.849609 16.0327 0.849609C7.19609 0.849609 0.0327339 8.01296 0.0327339 16.8496Z" fill="#0C0C4F"/>
<path fill-rule="evenodd" clip-rule="evenodd" d="M8.97541 13.0807L9.37038 11.8605C9.45066 11.6123 9.64654 11.4192 9.89564 11.343L11.1218 10.9659C11.2916 10.9141 11.2929 10.6747 11.1246 10.6201L9.90389 10.2251C9.65618 10.1448 9.46305 9.94893 9.38644 9.69984L9.00982 8.47364C8.95798 8.30436 8.71852 8.30253 8.66393 8.47134L8.26896 9.69158C8.18868 9.9393 7.9928 10.1324 7.74371 10.209L6.51751 10.5857C6.34777 10.638 6.34594 10.877 6.51475 10.9315L7.73545 11.3265C7.98317 11.4068 8.1763 11.6031 8.2529 11.8522L8.62953 13.078C8.68136 13.2477 8.92082 13.2495 8.97541 13.0807Z" fill="#FAFAFA"/>
<path fill-rule="evenodd" clip-rule="evenodd" d="M28.3569 12.3714C27.8514 11.8061 27.0624 11.4879 26.2954 11.3573C25.5223 11.232 24.7117 11.2436 23.9484 11.3792C22.4041 11.6404 21.0011 12.2799 19.7775 13.0687C19.142 13.4559 18.6001 13.9039 18.0387 14.3601C17.7682 14.5908 17.5216 14.8365 17.2647 15.0787L16.5629 15.777C15.8003 16.5741 15.0486 17.3002 14.3214 17.902C13.5912 18.501 12.9085 18.956 12.2357 19.2736C11.5634 19.593 10.8439 19.7808 9.90623 19.8109C8.97676 19.8437 7.87708 19.6759 6.70079 19.399C5.51819 19.1233 4.27634 18.7304 2.8886 18.3923C3.37281 19.7356 4.10198 20.9228 5.03815 22.0079C5.9853 23.0742 7.16801 24.0462 8.68735 24.6853C10.1847 25.3387 12.0665 25.5732 13.826 25.2194C15.5902 24.8798 17.1383 24.0635 18.3897 23.1194C19.6443 22.1656 20.6593 21.0791 21.515 19.9496C21.7512 19.6376 21.8762 19.4629 22.0471 19.219L22.5195 18.5192C22.8479 18.0863 23.1468 17.5934 23.4718 17.1645C24.109 16.2662 24.7371 15.3689 25.4671 14.5423C25.8345 14.123 26.2218 13.722 26.6792 13.3366C26.9074 13.1485 27.1538 12.9644 27.4268 12.7985C27.7039 12.6197 27.9966 12.4797 28.3569 12.3714Z" fill="url(#paint0_linear_1370_41452)"/>
<path fill-rule="evenodd" clip-rule="evenodd" d="M28.3571 12.3703C27.8139 11 26.8044 9.84644 25.4493 8.99524C24.1024 8.1534 22.2317 7.72377 20.378 8.09C19.4623 8.26711 18.575 8.6081 17.7964 9.06219C17.0214 9.51447 16.3268 10.0589 15.7256 10.643C15.4254 10.936 15.153 11.2417 14.8823 11.5491L14.1808 12.4435L13.0972 13.8833C11.7159 15.7358 10.2284 17.9067 7.78726 18.55C5.39079 19.1815 4.35141 18.6223 2.88878 18.3912C3.15621 19.0817 3.48749 19.7522 3.93659 20.3421C4.37733 20.9439 4.89791 21.5092 5.54513 21.9937C5.87221 22.2264 6.21753 22.4561 6.60106 22.6509C6.98284 22.8391 7.39456 23.0048 7.83402 23.1295C8.70815 23.3691 9.69229 23.453 10.6452 23.3241C11.5985 23.1969 12.5097 22.8948 13.3062 22.4936C14.1085 22.0961 14.8075 21.6121 15.4316 21.1012C16.6722 20.0709 17.6372 18.9326 18.4523 17.7819C18.8624 17.2065 19.2345 16.6204 19.5787 16.034L19.9839 15.336C20.1077 15.1319 20.233 14.9266 20.3602 14.7354C20.8735 13.9672 21.3756 13.3512 21.9855 12.8889C22.5869 12.4146 23.4242 12.0642 24.5433 11.9828C25.6577 11.9004 26.9442 12.0526 28.3571 12.3703Z" fill="#FAFAFA"/>
<path fill-rule="evenodd" clip-rule="evenodd" d="M22.328 23.7564C22.328 24.7629 23.1444 25.5792 24.1508 25.5792C25.1573 25.5792 25.9727 24.7629 25.9727 23.7564C25.9727 22.7499 25.1573 21.9336 24.1508 21.9336C23.1444 21.9336 22.328 22.7499 22.328 23.7564Z" fill="#EC796B"/>
<path d="M139.87 12.377V10.5364C139.87 10.4635 139.81 10.4043 139.737 10.4043H129.25C129.177 10.4043 129.118 10.4635 129.118 10.5364V12.377H133.38V24.284H135.607V12.377H139.87Z" fill="#0C0C4F"/>
<path d="M118.158 10.4043C118.085 10.4043 118.025 10.4635 118.025 10.5364V24.1518C118.025 24.2248 118.085 24.284 118.158 24.284H126.983C127.056 24.284 127.115 24.2248 127.115 24.1518V22.3309H120.252V17.9688H125.922V16.0547H120.252V12.3574H126.626V10.5364C126.626 10.4635 126.567 10.4043 126.494 10.4043H118.158Z" fill="#0C0C4F"/>
<path d="M113.04 24.2032L113.088 24.284H114.799C114.872 24.284 114.931 24.2248 114.931 24.1518V10.5364C114.931 10.4635 114.872 10.4043 114.799 10.4043H112.743V20.0167C112.386 19.4485 111.972 18.8231 111.5 18.1405C110.899 17.2521 110.253 16.3509 109.561 15.4369C108.882 14.5099 108.19 13.6155 107.484 12.7535C106.792 11.8778 106.137 11.1119 105.521 10.4563L105.472 10.4043H103.862C103.789 10.4043 103.73 10.4635 103.73 10.5364V24.1518C103.73 24.2248 103.789 24.284 103.862 24.284H105.918V13.9865C106.199 14.3185 106.498 14.6863 106.815 15.0902C107.244 15.6359 107.686 16.2209 108.141 16.8451L108.142 16.8458L108.142 16.8465C108.597 17.4573 109.052 18.0942 109.507 18.7573L109.508 18.7582L109.508 18.7591C109.977 19.4225 110.425 20.0794 110.855 20.7296L110.855 20.7302L110.855 20.7309C111.284 21.3677 111.68 21.9847 112.044 22.5819L112.045 22.583L112.045 22.5841C112.423 23.1828 112.754 23.7225 113.04 24.2032Z" fill="#0C0C4F"/>
<path d="M101.04 10.6807L101.09 10.6255C101.168 10.5406 101.107 10.4043 100.993 10.4043H98.5546L98.5052 10.4616C98.1816 10.837 97.7794 11.2782 97.2983 11.7853L97.2982 11.7854C96.8296 12.28 96.3283 12.8008 95.7944 13.3477C95.2607 13.8945 94.7205 14.4412 94.1737 14.988C93.7364 15.4149 93.3283 15.8084 92.9495 16.1685V10.4043H90.8548C90.7818 10.4043 90.7227 10.4635 90.7227 10.5364V24.1518C90.7227 24.2248 90.7818 24.284 90.8548 24.284H92.9495V17.9873C93.4093 18.2884 93.8793 18.6406 94.3595 19.0445L94.3602 19.045L94.3609 19.0456C94.9426 19.5239 95.5117 20.0477 96.0682 20.6172L96.0695 20.6185L96.0709 20.6199C96.6399 21.1759 97.1766 21.7643 97.6809 22.3851L97.6815 22.3858L97.682 22.3864C98.1864 22.9943 98.632 23.6014 99.019 24.2077L99.0677 24.284H101.444C101.546 24.284 101.609 24.1741 101.559 24.086L101.53 24.0365C101.174 23.4159 100.726 22.7642 100.188 22.0818C99.6637 21.4002 99.1002 20.732 98.4977 20.0771C97.8951 19.4221 97.2791 18.8061 96.6499 18.2293C96.0799 17.7068 95.5354 17.2583 95.0163 16.8842C95.4579 16.4532 95.9259 15.9905 96.4204 15.496C96.9683 14.9481 97.5162 14.3937 98.0641 13.8327C98.6251 13.2587 99.16 12.7042 99.6689 12.1692L99.6696 12.1685L99.6703 12.1678C100.179 11.62 100.635 11.1244 101.04 10.6807Z" fill="#0C0C4F"/>
<path fill-rule="evenodd" clip-rule="evenodd" d="M78.0823 10.2991C78.0093 10.2992 77.9502 10.3583 77.9502 10.4313V24.159C77.9502 24.232 78.0094 24.2912 78.0823 24.2912H79.9693V19.2439H82.7258C83.0358 19.6152 83.3383 20.0037 83.6332 20.4094L83.6343 20.4109L83.6355 20.4124C84.118 21.045 84.5638 21.7049 84.973 22.3922L84.9734 22.3929L84.9739 22.3937C85.3445 23.0019 85.668 23.6026 85.9444 24.1958L85.9888 24.2912H88.2218C88.3175 24.2912 88.3814 24.1926 88.3416 24.1056C88.0848 23.5428 87.8065 22.9918 87.4974 22.455C87.0774 21.7048 86.6166 20.962 86.1153 20.2268C85.8288 19.8066 85.5361 19.3984 85.2373 19.0022C86.0702 18.7475 86.7293 18.287 87.2059 17.6187L87.2063 17.6182C87.7784 16.8093 88.062 15.858 88.062 14.7715C88.062 14.0248 87.9321 13.3416 87.6695 12.7243C87.4057 12.098 87.009 11.5786 86.4804 11.1689C85.9554 10.7569 85.3087 10.4948 84.5469 10.3773C84.3693 10.3445 84.1858 10.3249 83.9966 10.3182C83.8119 10.3055 83.6507 10.2991 83.5137 10.2991C82.9347 10.2991 82.3558 10.299 81.7768 10.2989L81.7768 10.2989C80.5453 10.2988 79.3138 10.2987 78.0823 10.2991ZM86.005 14.7715C86.005 15.1321 85.9449 15.4869 85.8244 15.8367C85.7064 16.1726 85.5181 16.4671 85.2578 16.7216C85.0111 16.9625 84.6858 17.1334 84.2737 17.229C84.1432 17.2586 84.0025 17.2797 83.8515 17.2918L83.8513 17.2918L83.851 17.2918C83.7026 17.3042 83.5713 17.3102 83.4567 17.3102H79.9693V12.2327H83.4567C83.5713 12.2327 83.7026 12.2388 83.851 12.2511L83.8545 12.2514L83.8581 12.2516C84.005 12.2575 84.1411 12.2779 84.2671 12.3123L84.2713 12.3134L84.2755 12.3144C84.6861 12.4036 85.0102 12.5739 85.2564 12.82L85.2571 12.8207L85.2577 12.8214C85.5177 13.0754 85.7061 13.3728 85.8242 13.7153L85.8244 13.7157L85.8245 13.7161C85.9449 14.0592 86.005 14.4107 86.005 14.7715Z" fill="#0C0C4F"/>
<path fill-rule="evenodd" clip-rule="evenodd" d="M72.9957 22.4516L72.9959 22.4521L72.996 22.4527C73.192 23.0145 73.4011 23.5894 73.6231 24.1772L73.6635 24.284H75.8973C75.989 24.284 76.0528 24.1929 76.0214 24.1067C75.5335 22.7661 75.041 21.4272 74.5385 20.092C74.0819 18.8658 73.6318 17.7046 73.1881 16.6085C72.7575 15.5123 72.3267 14.4681 71.8959 13.4758C71.4637 12.4673 71.0089 11.4688 70.5351 10.4793C70.5131 10.4334 70.4668 10.4043 70.416 10.4043H68.6343C68.5835 10.4043 68.5372 10.4334 68.5152 10.4793C68.0414 11.4689 67.5866 12.4674 67.1544 13.4759C66.7237 14.4678 66.2866 15.5117 65.843 16.6076L65.8426 16.6084L65.8423 16.6092C65.4118 17.705 64.9683 18.8659 64.5119 20.0919C64.0094 21.4271 63.5168 22.7661 63.0288 24.1067C62.9975 24.1929 63.0613 24.284 63.153 24.284H65.2914L65.2915 24.2839H65.3333L65.3823 24.2313C65.8981 23.6774 66.4747 23.1339 67.1122 22.6008L67.1129 22.6003L67.1135 22.5997C67.7535 22.0533 68.4208 21.5465 69.1153 21.0793L69.1169 21.0783L69.1184 21.0772C69.8026 20.5938 70.4912 20.16 71.184 19.7757L71.1848 19.7752L71.1856 19.7748C71.4352 19.6328 71.6809 19.5005 71.9228 19.3778L72.3901 20.7131L72.3905 20.7141L72.3905 20.7142C72.5987 21.2998 72.8005 21.879 72.9957 22.4516ZM70.5926 15.8677L70.5931 15.8689L70.5935 15.87C70.7817 16.3463 70.9698 16.8306 71.158 17.3228C71.1439 17.329 71.1296 17.3355 71.115 17.3421C70.4529 17.6437 69.7412 18.0335 68.9802 18.5108C68.2517 18.9678 67.529 19.4642 66.812 20L67.1155 19.1331C67.5172 18.0062 67.9188 16.9181 68.3204 15.8688C68.6897 14.9225 69.0742 14.0124 69.4741 13.1382C69.8622 14.012 70.235 14.9218 70.5926 15.8677Z" fill="#0C0C4F"/>
<path d="M63.5742 12.377V10.5364C63.5742 10.4635 63.515 10.4043 63.442 10.4043H52.9549C52.8819 10.4043 52.8228 10.4635 52.8228 10.5364V12.377H57.085V24.1518C57.085 24.2248 57.1442 24.284 57.2172 24.284H59.1797C59.2527 24.284 59.3119 24.2248 59.3119 24.1518V12.377H63.5742Z" fill="#0C0C4F"/>
<path d="M43.2001 24.1148L43.1996 24.1146C42.3919 23.7704 41.7201 23.2788 41.1874 22.6397L41.1867 22.6387L41.1862 22.6382C40.6589 21.9908 40.3165 21.2276 40.1575 20.3527C40.1495 20.309 40.1595 20.2638 40.1853 20.2276C40.211 20.1913 40.2503 20.1669 40.2942 20.16L42.0706 19.8801C42.1546 19.8668 42.235 19.9196 42.2562 20.002C42.4721 20.8408 42.9164 21.4919 43.5901 21.9637C44.2738 22.4316 45.08 22.668 46.0158 22.668C46.6227 22.668 47.1652 22.5742 47.6453 22.3896C48.1311 22.1989 48.5081 21.9314 48.7834 21.5903C49.0541 21.2548 49.1908 20.8576 49.1908 20.3907C49.1908 20.1009 49.1395 19.8637 49.0442 19.673L49.0417 19.6678C48.9488 19.4647 48.8192 19.295 48.6522 19.1568L48.6475 19.1528C48.4798 19.003 48.2873 18.8765 48.0691 18.7734C47.8458 18.668 47.6131 18.5811 47.3707 18.5127L47.3686 18.5121L43.8251 17.4597C43.4307 17.3414 43.0493 17.1934 42.681 17.0158L42.68 17.0154L42.6789 17.0148C42.3049 16.8278 41.97 16.5969 41.6747 16.3218L41.6738 16.3209L41.6733 16.3204C41.374 16.0347 41.1365 15.695 40.9609 15.3031L40.9604 15.3022C40.7819 14.897 40.6954 14.4261 40.6954 13.8937C40.6954 13.0401 40.916 12.303 41.3645 11.6914L41.3647 11.6912C41.8152 11.0793 42.4225 10.6144 43.181 10.295C43.9383 9.97613 44.788 9.82176 45.7273 9.82833C46.6794 9.83489 47.5357 10.0057 48.2932 10.3444C49.0564 10.6763 49.6895 11.1557 50.1895 11.7822C50.697 12.41 51.0355 13.1592 51.2075 14.0256C51.2161 14.0692 51.2068 14.1145 51.1817 14.1512C51.1565 14.1879 51.1177 14.2128 51.0739 14.2205L49.2493 14.5391C49.206 14.5466 49.1615 14.5366 49.1256 14.5113C49.0897 14.486 49.0654 14.4474 49.058 14.4041C48.9659 13.8635 48.7613 13.4049 48.4467 13.0238L48.4449 13.0216C48.1338 12.6311 47.7435 12.332 47.2716 12.1236L47.27 12.1229C46.7971 11.908 46.2762 11.7964 45.705 11.7902L45.705 11.7902C45.1574 11.7839 44.6681 11.871 44.2343 12.0482C43.7993 12.2259 43.4598 12.4711 43.2095 12.7811L43.2085 12.7823C42.9629 13.0805 42.8407 13.4229 42.8407 13.8164C42.8407 14.2072 42.952 14.5086 43.1628 14.7364C43.3904 14.9757 43.6701 15.169 44.0046 15.3152C44.3592 15.4607 44.7034 15.5807 45.0374 15.6752L45.0382 15.6754L47.6825 16.4378C47.9908 16.5231 48.3428 16.6406 48.7381 16.7896C49.1518 16.9431 49.5508 17.1595 49.9349 17.4375C50.3302 17.7172 50.6548 18.0905 50.9099 18.5535C51.1719 19.0226 51.2975 19.606 51.2975 20.2942C51.2975 20.986 51.1577 21.6078 50.8738 22.1555C50.5982 22.6997 50.2114 23.1568 49.7152 23.5257L49.714 23.5265C49.2206 23.8866 48.6493 24.1584 48.0024 24.3433C47.3552 24.5347 46.6638 24.6299 45.9289 24.6299C44.9253 24.6299 44.0148 24.4593 43.2001 24.1148Z" fill="#0C0C4F"/>
<defs>
<linearGradient id="paint0_linear_1370_41452" x1="28.2206" y1="11.8906" x2="-13.4007" y2="33.5454" gradientUnits="userSpaceOnUse">
<stop stop-color="#EC796B"/>
<stop offset="1" stop-color="#D672EF"/>
</linearGradient>
</defs>
</svg>
