<svg width="143" height="34" viewBox="0 0 143 34" fill="none" xmlns="http://www.w3.org/2000/svg">
<path d="M17.0327 33.2547C7.97237 33.2547 0.627666 25.91 0.627666 16.8496C0.627666 7.78925 7.97237 0.44454 17.0327 0.44454C26.0931 0.44454 33.4383 7.78923 33.4383 16.8496C33.4383 25.91 26.0931 33.2547 17.0327 33.2547Z" fill="#0C0C4F" stroke="url(#paint0_linear_1370_43377)" stroke-width="0.810138"/>
<path fill-rule="evenodd" clip-rule="evenodd" d="M9.97541 13.0807L10.3704 11.8605C10.4507 11.6123 10.6465 11.4192 10.8956 11.343L12.1218 10.9659C12.2916 10.9141 12.2929 10.6747 12.1246 10.6201L10.9039 10.2251C10.6562 10.1448 10.463 9.94893 10.3864 9.69984L10.0098 8.47364C9.95798 8.30436 9.71852 8.30253 9.66393 8.47134L9.26896 9.69158C9.18868 9.9393 8.9928 10.1324 8.74371 10.209L7.51751 10.5857C7.34777 10.638 7.34594 10.877 7.51475 10.9315L8.73545 11.3265C8.98317 11.4068 9.1763 11.6031 9.2529 11.8522L9.62953 13.078C9.68136 13.2477 9.92082 13.2495 9.97541 13.0807Z" fill="#FAFAFA"/>
<path fill-rule="evenodd" clip-rule="evenodd" d="M29.3569 12.3714C28.8514 11.8061 28.0624 11.4879 27.2954 11.3573C26.5223 11.232 25.7117 11.2436 24.9484 11.3792C23.4041 11.6404 22.0011 12.2799 20.7775 13.0687C20.142 13.4559 19.6001 13.9039 19.0387 14.3601C18.7682 14.5908 18.5216 14.8365 18.2647 15.0787L17.5629 15.777C16.8003 16.5741 16.0486 17.3002 15.3214 17.902C14.5912 18.501 13.9085 18.956 13.2357 19.2736C12.5634 19.593 11.8439 19.7808 10.9062 19.8109C9.97676 19.8437 8.87708 19.6759 7.70079 19.399C6.51819 19.1233 5.27634 18.7304 3.8886 18.3923C4.37281 19.7356 5.10198 20.9228 6.03815 22.0079C6.9853 23.0742 8.16801 24.0462 9.68735 24.6853C11.1847 25.3387 13.0665 25.5732 14.826 25.2194C16.5902 24.8798 18.1383 24.0635 19.3897 23.1194C20.6443 22.1656 21.6593 21.0791 22.515 19.9496C22.7512 19.6376 22.8762 19.4629 23.0471 19.219L23.5195 18.5192C23.8479 18.0863 24.1468 17.5934 24.4718 17.1645C25.109 16.2662 25.7371 15.3689 26.4671 14.5423C26.8345 14.123 27.2218 13.722 27.6792 13.3366C27.9074 13.1485 28.1538 12.9644 28.4268 12.7985C28.7039 12.6197 28.9966 12.4797 29.3569 12.3714Z" fill="url(#paint1_linear_1370_43377)"/>
<path fill-rule="evenodd" clip-rule="evenodd" d="M29.3566 12.3703C28.8135 11 27.8039 9.84644 26.4488 8.99524C25.102 8.1534 23.2312 7.72377 21.3776 8.09C20.4618 8.26711 19.5745 8.6081 18.796 9.06219C18.0209 9.51447 17.3263 10.0589 16.7251 10.643C16.4249 10.936 16.1525 11.2417 15.8818 11.5491L15.1803 12.4435L14.0967 13.8833C12.7154 15.7358 11.2279 17.9067 8.78677 18.55C6.39031 19.1815 5.35092 18.6223 3.88829 18.3912C4.15572 19.0817 4.487 19.7522 4.93611 20.3421C5.37684 20.9439 5.89742 21.5092 6.54464 21.9937C6.87172 22.2264 7.21704 22.4561 7.60057 22.6509C7.98235 22.8391 8.39407 23.0048 8.83354 23.1295C9.70766 23.3691 10.6918 23.453 11.6447 23.3241C12.598 23.1969 13.5092 22.8948 14.3057 22.4936C15.108 22.0961 15.807 21.6121 16.4311 21.1012C17.6717 20.0709 18.6367 18.9326 19.4519 17.7819C19.8619 17.2065 20.234 16.6204 20.5783 16.034L20.9834 15.336C21.1072 15.1319 21.2325 14.9266 21.3597 14.7354C21.8731 13.9672 22.3751 13.3512 22.985 12.8889C23.5864 12.4146 24.4237 12.0642 25.5428 11.9828C26.6572 11.9004 27.9437 12.0526 29.3566 12.3703Z" fill="#FAFAFA"/>
<path fill-rule="evenodd" clip-rule="evenodd" d="M23.328 23.7564C23.328 24.7629 24.1444 25.5792 25.1508 25.5792C26.1573 25.5792 26.9727 24.7629 26.9727 23.7564C26.9727 22.7499 26.1573 21.9336 25.1508 21.9336C24.1444 21.9336 23.328 22.7499 23.328 23.7564Z" fill="url(#paint2_linear_1370_43377)"/>
<path d="M140.87 12.377V10.5364C140.87 10.4635 140.81 10.4043 140.737 10.4043H130.25C130.177 10.4043 130.118 10.4635 130.118 10.5364V12.377H134.38V24.284H136.607V12.377H140.87Z" fill="white"/>
<path d="M119.158 10.4043C119.085 10.4043 119.025 10.4635 119.025 10.5364V24.1518C119.025 24.2248 119.085 24.284 119.158 24.284H127.983C128.056 24.284 128.115 24.2248 128.115 24.1518V22.3309H121.252V17.9688H126.922V16.0547H121.252V12.3574H127.626V10.5364C127.626 10.4635 127.567 10.4043 127.494 10.4043H119.158Z" fill="white"/>
<path d="M114.04 24.2032L114.088 24.284H115.798C115.871 24.284 115.931 24.2248 115.931 24.1518V10.5364C115.931 10.4635 115.871 10.4043 115.798 10.4043H113.743V20.0167C113.386 19.4485 112.972 18.8231 112.5 18.1405C111.899 17.2521 111.252 16.3509 110.56 15.4369C109.881 14.5099 109.189 13.6155 108.484 12.7535C107.791 11.8778 107.137 11.1119 106.52 10.4563L106.472 10.4043H104.862C104.789 10.4043 104.729 10.4635 104.729 10.5364V24.1518C104.729 24.2248 104.789 24.284 104.862 24.284H106.917V13.9865C107.198 14.3185 107.498 14.6863 107.815 15.0902C108.244 15.6359 108.686 16.2209 109.141 16.8451L109.141 16.8458L109.142 16.8465C109.597 17.4573 110.052 18.0942 110.507 18.7573L110.507 18.7582L110.508 18.7591C110.976 19.4225 111.425 20.0794 111.854 20.7296L111.855 20.7302L111.855 20.7309C112.284 21.3677 112.68 21.9847 113.044 22.5819L113.044 22.583L113.045 22.5841C113.422 23.1828 113.754 23.7225 114.04 24.2032Z" fill="white"/>
<path d="M102.04 10.6807L102.09 10.6255C102.168 10.5406 102.107 10.4043 101.993 10.4043H99.5546L99.5052 10.4616C99.1816 10.837 98.7794 11.2782 98.2983 11.7853L98.2982 11.7854C97.8296 12.28 97.3283 12.8008 96.7944 13.3477C96.2607 13.8945 95.7205 14.4412 95.1737 14.988C94.7364 15.4149 94.3283 15.8084 93.9495 16.1685V10.4043H91.8548C91.7818 10.4043 91.7227 10.4635 91.7227 10.5364V24.1518C91.7227 24.2248 91.7818 24.284 91.8548 24.284H93.9495V17.9873C94.4093 18.2884 94.8793 18.6406 95.3595 19.0445L95.3602 19.045L95.3609 19.0456C95.9426 19.5239 96.5117 20.0477 97.0682 20.6172L97.0695 20.6185L97.0709 20.6199C97.6399 21.1759 98.1766 21.7643 98.6809 22.3851L98.6815 22.3858L98.682 22.3864C99.1864 22.9943 99.632 23.6014 100.019 24.2077L100.068 24.284H102.444C102.546 24.284 102.609 24.1741 102.559 24.086L102.53 24.0365C102.174 23.4159 101.726 22.7642 101.188 22.0818C100.664 21.4002 100.1 20.732 99.4977 20.0771C98.8951 19.4221 98.2791 18.8061 97.6499 18.2293C97.0799 17.7068 96.5354 17.2583 96.0163 16.8842C96.4579 16.4532 96.9259 15.9905 97.4204 15.496C97.9683 14.9481 98.5162 14.3937 99.0641 13.8327C99.6251 13.2587 100.16 12.7042 100.669 12.1692L100.67 12.1685L100.67 12.1678C101.179 11.62 101.635 11.1244 102.04 10.6807Z" fill="white"/>
<path fill-rule="evenodd" clip-rule="evenodd" d="M79.0823 10.2991C79.0093 10.2992 78.9502 10.3583 78.9502 10.4313V24.159C78.9502 24.232 79.0094 24.2912 79.0823 24.2912H80.9693V19.2439H83.7258C84.0358 19.6152 84.3383 20.0037 84.6332 20.4094L84.6343 20.4109L84.6355 20.4124C85.118 21.045 85.5638 21.7049 85.973 22.3922L85.9734 22.3929L85.9739 22.3937C86.3445 23.0019 86.668 23.6026 86.9444 24.1958L86.9888 24.2912H89.2218C89.3175 24.2912 89.3814 24.1926 89.3416 24.1056C89.0848 23.5428 88.8065 22.9918 88.4974 22.455C88.0774 21.7048 87.6166 20.962 87.1153 20.2268C86.8288 19.8066 86.5361 19.3984 86.2373 19.0022C87.0702 18.7475 87.7293 18.287 88.2059 17.6187L88.2063 17.6182C88.7784 16.8093 89.062 15.858 89.062 14.7715C89.062 14.0248 88.9321 13.3416 88.6695 12.7243C88.4057 12.098 88.009 11.5786 87.4804 11.1689C86.9554 10.7569 86.3087 10.4948 85.5469 10.3773C85.3693 10.3445 85.1858 10.3249 84.9966 10.3182C84.8119 10.3055 84.6507 10.2991 84.5137 10.2991C83.9347 10.2991 83.3558 10.299 82.7768 10.2989L82.7768 10.2989C81.5453 10.2988 80.3138 10.2987 79.0823 10.2991ZM87.005 14.7715C87.005 15.1321 86.9449 15.4869 86.8244 15.8367C86.7064 16.1726 86.5181 16.4671 86.2578 16.7216C86.0111 16.9625 85.6858 17.1334 85.2737 17.229C85.1432 17.2586 85.0025 17.2797 84.8515 17.2918L84.8513 17.2918L84.851 17.2918C84.7026 17.3042 84.5713 17.3102 84.4567 17.3102H80.9693V12.2327H84.4567C84.5713 12.2327 84.7026 12.2388 84.851 12.2511L84.8545 12.2514L84.8581 12.2516C85.005 12.2575 85.1411 12.2779 85.2671 12.3123L85.2713 12.3134L85.2755 12.3144C85.6861 12.4036 86.0102 12.5739 86.2564 12.82L86.2571 12.8207L86.2577 12.8214C86.5177 13.0754 86.7061 13.3728 86.8242 13.7153L86.8244 13.7157L86.8245 13.7161C86.9449 14.0592 87.005 14.4107 87.005 14.7715Z" fill="white"/>
<path fill-rule="evenodd" clip-rule="evenodd" d="M73.9961 22.4516L73.9963 22.4521L73.9965 22.4527C74.1925 23.0145 74.4016 23.5894 74.6236 24.1772L74.664 24.284H76.8978C76.9895 24.284 77.0533 24.1929 77.0219 24.1067C76.534 22.7661 76.0414 21.4272 75.5389 20.092C75.0824 18.8658 74.6323 17.7046 74.1886 16.6085C73.758 15.5123 73.3272 14.4681 72.8964 13.4758C72.4642 12.4673 72.0094 11.4688 71.5356 10.4793C71.5136 10.4334 71.4673 10.4043 71.4165 10.4043H69.6348C69.584 10.4043 69.5377 10.4334 69.5157 10.4793C69.0419 11.4689 68.5871 12.4674 68.1549 13.4759C67.7242 14.4678 67.287 15.5117 66.8434 16.6076L66.8431 16.6084L66.8428 16.6092C66.4123 17.705 65.9688 18.8659 65.5123 20.0919C65.0098 21.4271 64.5173 22.7661 64.0293 24.1067C63.998 24.1929 64.0618 24.284 64.1535 24.284H66.2919L66.2919 24.2839H66.3338L66.3828 24.2313C66.8986 23.6774 67.4752 23.1339 68.1127 22.6008L68.1134 22.6003L68.114 22.5997C68.754 22.0533 69.4213 21.5465 70.1158 21.0793L70.1174 21.0783L70.1189 21.0772C70.8031 20.5938 71.4916 20.16 72.1845 19.7757L72.1853 19.7752L72.1861 19.7748C72.4357 19.6328 72.6814 19.5005 72.9232 19.3778L73.3906 20.7131L73.391 20.7141L73.391 20.7142C73.5992 21.2998 73.8009 21.879 73.9961 22.4516ZM71.5931 15.8677L71.5936 15.8689L71.594 15.87C71.7822 16.3463 71.9703 16.8306 72.1585 17.3228C72.1444 17.329 72.1301 17.3355 72.1155 17.3421C71.4534 17.6437 70.7417 18.0335 69.9807 18.5108C69.2522 18.9678 68.5294 19.4642 67.8125 20L68.116 19.1331C68.5177 18.0062 68.9193 16.9181 69.3209 15.8688C69.6902 14.9225 70.0747 14.0124 70.4746 13.1382C70.8627 14.012 71.2355 14.9218 71.5931 15.8677Z" fill="white"/>
<path d="M64.5746 12.377V10.5364C64.5746 10.4635 64.5155 10.4043 64.4425 10.4043H53.9554C53.8824 10.4043 53.8232 10.4635 53.8232 10.5364V12.377H58.0855V24.1518C58.0855 24.2248 58.1447 24.284 58.2177 24.284H60.1802C60.2532 24.284 60.3124 24.2248 60.3124 24.1518V12.377H64.5746Z" fill="white"/>
<path d="M44.2006 24.1148L44.2001 24.1146C43.3924 23.7704 42.7206 23.2788 42.1879 22.6397L42.1871 22.6387L42.1867 22.6382C41.6594 21.9908 41.317 21.2276 41.1579 20.3527C41.15 20.309 41.16 20.2638 41.1858 20.2276C41.2115 20.1913 41.2508 20.1669 41.2947 20.16L43.071 19.8801C43.1551 19.8668 43.2355 19.9196 43.2567 20.002C43.4726 20.8408 43.9169 21.4919 44.5906 21.9637C45.2743 22.4316 46.0805 22.668 47.0162 22.668C47.6232 22.668 48.1656 22.5742 48.6458 22.3896C49.1316 22.1989 49.5086 21.9314 49.7839 21.5903C50.0546 21.2548 50.1913 20.8576 50.1913 20.3907C50.1913 20.1009 50.14 19.8637 50.0447 19.673L50.0422 19.6678C49.9493 19.4647 49.8197 19.295 49.6527 19.1568L49.648 19.1528C49.4803 19.003 49.2878 18.8765 49.0696 18.7734C48.8463 18.668 48.6136 18.5811 48.3712 18.5127L48.369 18.5121L44.8256 17.4597C44.4312 17.3414 44.0498 17.1934 43.6815 17.0158L43.6805 17.0154L43.6794 17.0148C43.3054 16.8278 42.9704 16.5969 42.6752 16.3218L42.6743 16.3209L42.6738 16.3204C42.3744 16.0347 42.137 15.695 41.9613 15.3031L41.9609 15.3022C41.7824 14.897 41.6959 14.4261 41.6959 13.8937C41.6959 13.0401 41.9165 12.303 42.365 11.6914L42.3652 11.6912C42.8157 11.0793 43.423 10.6144 44.1815 10.295C44.9388 9.97613 45.7885 9.82176 46.7278 9.82833C47.6799 9.83489 48.5362 10.0057 49.2936 10.3444C50.0569 10.6763 50.69 11.1557 51.19 11.7822C51.6975 12.41 52.036 13.1592 52.2079 14.0256C52.2166 14.0692 52.2073 14.1145 52.1822 14.1512C52.157 14.1879 52.1181 14.2128 52.0743 14.2205L50.2498 14.5391C50.2065 14.5466 50.162 14.5366 50.1261 14.5113C50.0902 14.486 50.0659 14.4474 50.0585 14.4041C49.9664 13.8635 49.7618 13.4049 49.4472 13.0238L49.4454 13.0216C49.1342 12.6311 48.744 12.332 48.2721 12.1236L48.2705 12.1229C47.7976 11.908 47.2767 11.7964 46.7055 11.7902L46.7054 11.7902C46.1579 11.7839 45.6686 11.871 45.2348 12.0482C44.7998 12.2259 44.4603 12.4711 44.2099 12.7811L44.209 12.7823C43.9634 13.0805 43.8412 13.4229 43.8412 13.8164C43.8412 14.2072 43.9525 14.5086 44.1633 14.7364C44.3909 14.9757 44.6706 15.169 45.0051 15.3152C45.3597 15.4607 45.7039 15.5807 46.0379 15.6752L46.0387 15.6754L48.683 16.4378C48.9912 16.5231 49.3433 16.6406 49.7386 16.7896C50.1523 16.9431 50.5513 17.1595 50.9353 17.4375C51.3307 17.7172 51.6553 18.0905 51.9104 18.5535C52.1724 19.0226 52.298 19.606 52.298 20.2942C52.298 20.986 52.1582 21.6078 51.8743 22.1555C51.5987 22.6997 51.2119 23.1568 50.7157 23.5257L50.7145 23.5265C50.2211 23.8866 49.6498 24.1584 49.0028 24.3433C48.3557 24.5347 47.6643 24.6299 46.9294 24.6299C45.9258 24.6299 45.0153 24.4593 44.2006 24.1148Z" fill="white"/>
<defs>
<linearGradient id="paint0_linear_1370_43377" x1="33.0219" y1="5.62552" x2="-25.2987" y2="11.0942" gradientUnits="userSpaceOnUse">
<stop stop-color="#EC796B"/>
<stop offset="1" stop-color="#D672EF"/>
</linearGradient>
<linearGradient id="paint1_linear_1370_43377" x1="29.2206" y1="11.8906" x2="-12.4007" y2="33.5454" gradientUnits="userSpaceOnUse">
<stop stop-color="#EC796B"/>
<stop offset="1" stop-color="#D672EF"/>
</linearGradient>
<linearGradient id="paint2_linear_1370_43377" x1="26.9714" y1="22.4777" x2="20.329" y2="23.1004" gradientUnits="userSpaceOnUse">
<stop stop-color="#EC796B"/>
<stop offset="1" stop-color="#D672EF"/>
</linearGradient>
</defs>
</svg>
