<svg width="14" height="19" viewBox="0 0 14 19" fill="none" xmlns="http://www.w3.org/2000/svg">
<path fill-rule="evenodd" clip-rule="evenodd" d="M9.17198 12.8611C9.32914 12.5366 9.54201 12.1664 9.82483 11.74C10.121 11.2935 10.4393 10.8945 10.7175 10.5457L10.7175 10.5456L10.7175 10.5456L10.731 10.5287C11.2098 9.92839 11.5785 9.45819 11.8509 8.88578C12.1101 8.34115 12.2999 7.65917 12.2999 6.6698C12.2999 3.83889 9.95155 1.5 6.9999 1.5C4.04825 1.5 1.6999 3.83889 1.6999 6.6698C1.6999 7.65917 1.88974 8.34115 2.14892 8.88578C2.42132 9.45819 2.78998 9.92839 3.2688 10.5287L3.28225 10.5456C3.5605 10.8944 3.8788 11.2935 4.17497 11.74C4.45779 12.1664 4.67067 12.5366 4.82783 12.8611H9.17198ZM3.09163 12.4586C3.40462 12.9304 3.60418 13.2977 3.72915 13.582C3.87008 13.9027 4.17744 14.1611 4.53366 14.1611H9.46614C9.82236 14.1611 10.1297 13.9027 10.2707 13.582C10.3956 13.2977 10.5952 12.9304 10.9082 12.4586C11.1727 12.0598 11.4609 11.6984 11.7473 11.3393C12.6837 10.1654 13.5999 9.01665 13.5999 6.6698C13.5999 3.09662 10.645 0.199997 6.9999 0.199997C3.35482 0.199997 0.399902 3.09662 0.399902 6.6698C0.399902 9.01665 1.31613 10.1654 2.25248 11.3393C2.53886 11.6984 2.82712 12.0598 3.09163 12.4586ZM4.1499 15.6C4.1499 15.241 4.44092 14.95 4.7999 14.95H9.1999C9.55889 14.95 9.8499 15.241 9.8499 15.6C9.8499 15.959 9.55889 16.25 9.1999 16.25H4.7999C4.44092 16.25 4.1499 15.959 4.1499 15.6ZM5.8999 17.15C5.54092 17.15 5.2499 17.441 5.2499 17.8C5.2499 18.159 5.54092 18.45 5.8999 18.45H8.0999C8.45889 18.45 8.7499 18.159 8.7499 17.8C8.7499 17.441 8.45889 17.15 8.0999 17.15H5.8999Z" fill="white"/>
</svg>
