<svg width="24" height="24" viewBox="0 0 24 24" fill="none" xmlns="http://www.w3.org/2000/svg">
<path d="M2 5.80021C2.75166 6.1263 3.54657 6.34187 4.36 6.44021C3.50183 5.92753 2.85873 5.12099 2.55 4.17021C3.35645 4.65027 4.23924 4.98851 5.16 5.17021C5.77546 4.50278 6.59503 4.05851 7.49019 3.90706C8.38535 3.75562 9.30546 3.90557 10.1062 4.3334C10.907 4.76123 11.5431 5.44274 11.9148 6.27105C12.2865 7.09935 12.3727 8.0276 12.16 8.91021C13.7906 8.82774 15.3856 8.40316 16.8413 7.66407C18.2971 6.92498 19.5812 5.8879 20.61 4.62021C20.9709 5.25038 21.1605 5.96403 21.16 6.69021C21.1613 7.36459 20.9958 8.02883 20.6782 8.62377C20.3607 9.21872 19.901 9.72592 19.34 10.1002C19.992 10.0825 20.6301 9.90751 21.2 9.59021V9.64021C21.1951 10.5851 20.864 11.4993 20.2627 12.2282C19.6614 12.957 18.8267 13.4559 17.9 13.6402C18.2567 13.7488 18.6271 13.806 19 13.8102C19.2581 13.8072 19.5156 13.7838 19.77 13.7402C19.5061 14.553 18.9954 15.2634 18.3089 15.7724C17.6225 16.2814 16.7944 16.5638 15.94 16.5802C17.3828 17.7155 19.1641 18.3351 21 18.3402C21.3343 18.3413 21.6683 18.3213 22 18.2802C20.1256 19.4905 17.9412 20.1329 15.71 20.1302C14.1703 20.1462 12.6429 19.8552 11.2169 19.2743C9.7909 18.6934 8.49498 17.8341 7.4048 16.7467C6.31462 15.6593 5.45204 14.3656 4.86744 12.9411C4.28285 11.5166 3.98796 9.98994 4 8.45021C4 8.28021 4 8.10021 4 7.92021C3.21531 7.33502 2.53852 6.61763 2 5.80021Z" fill="#CCCCCC"/>
</svg>
