<svg width="21" height="20" viewBox="0 0 21 20" fill="none" xmlns="http://www.w3.org/2000/svg">
<path d="M9.41986 7.65C9.41986 7.29101 9.71088 7 10.0699 7C10.4288 7 10.7199 7.29101 10.7199 7.65V12.35C10.7199 12.709 10.4288 13 10.0699 13C9.71088 13 9.41986 12.709 9.41986 12.35V7.65Z" fill="white"/>
<path d="M9.41986 14.65C9.41986 14.291 9.71088 14 10.0699 14C10.4288 14 10.7199 14.291 10.7199 14.65C10.7199 15.009 10.4288 15.3 10.0699 15.3C9.71088 15.3 9.41986 15.009 9.41986 14.65Z" fill="white"/>
<path fill-rule="evenodd" clip-rule="evenodd" d="M8.39328 3C9.16901 1.66667 11.1083 1.66667 11.8841 3L18.8657 15C19.6414 16.3333 18.6717 18 17.1203 18H3.15709C1.60563 18 0.635961 16.3333 1.41169 15L8.39328 3ZM10.7496 3.65L17.7311 15.65C18.0026 16.1167 17.6633 16.7 17.1203 16.7H3.15709C2.61408 16.7 2.27469 16.1167 2.5462 15.65L9.52778 3.65C9.79929 3.18333 10.4781 3.18333 10.7496 3.65Z" fill="white"/>
</svg>
