<svg width="24" height="24" viewBox="0 0 24 24" fill="none" xmlns="http://www.w3.org/2000/svg">
<path d="M0.999973 9.7095C0.950522 8.27815 1.26354 6.85751 1.90997 5.5795C2.34857 5.05509 2.95726 4.70121 3.62997 4.5795C6.41245 4.32702 9.20644 4.22354 12 4.2695C14.7833 4.22145 17.5673 4.3216 20.34 4.5695C20.8882 4.66921 21.3955 4.92634 21.8 5.3095C22.7 6.1395 22.8 7.5595 22.9 8.7595C23.0451 10.9171 23.0451 13.0819 22.9 15.2395C22.871 15.9149 22.7705 16.5853 22.6 17.2395C22.4794 17.7446 22.2355 18.2118 21.89 18.5995C21.4827 19.003 20.9636 19.2747 20.4 19.3795C18.2441 19.6456 16.0718 19.7559 13.9 19.7095C10.4 19.7595 7.32997 19.7095 3.69997 19.4295C3.12252 19.3311 2.58878 19.059 2.16997 18.6495C1.89001 18.3694 1.68089 18.0266 1.55997 17.6495C1.20234 16.5521 1.02669 15.4036 1.03997 14.2495C0.999974 13.6895 0.999973 10.3095 0.999973 9.7095ZM14.26 14.8495V8.6595L8.33997 11.7695C9.99997 12.6895 12.19 13.7295 14.26 14.8495Z" fill="#CCCCCC"/>
</svg>
