<svg width="24" height="24" viewBox="0 0 24 24" fill="none" xmlns="http://www.w3.org/2000/svg">
<path d="M23 9.7095C23.0495 8.27815 22.7365 6.85751 22.09 5.5795C21.6514 5.05509 21.0427 4.70121 20.37 4.5795C17.5875 4.32702 14.7936 4.22354 12 4.2695C9.21667 4.22145 6.43274 4.3216 3.66003 4.5695C3.11185 4.66921 2.60454 4.92634 2.20003 5.3095C1.30003 6.1395 1.20003 7.5595 1.10003 8.7595C0.954939 10.9171 0.954939 13.0819 1.10003 15.2395C1.12896 15.9149 1.22952 16.5853 1.40003 17.2395C1.5206 17.7446 1.76455 18.2118 2.11003 18.5995C2.51729 19.003 3.03641 19.2747 3.60003 19.3795C5.75594 19.6456 7.92824 19.7559 10.1 19.7095C13.6 19.7595 16.67 19.7095 20.3 19.4295C20.8775 19.3311 21.4112 19.059 21.83 18.6495C22.11 18.3694 22.3191 18.0266 22.44 17.6495C22.7977 16.5521 22.9733 15.4036 22.96 14.2495C23 13.6895 23 10.3095 23 9.7095ZM9.74003 14.8495V8.6595L15.66 11.7695C14 12.6895 11.81 13.7295 9.74003 14.8495Z" fill="#080844"/>
</svg>
