<svg width="687" height="149" viewBox="0 0 687 149" fill="none" xmlns="http://www.w3.org/2000/svg">
<rect x="2" y="43" width="683" height="105" stroke="#808080" stroke-width="2"/>
<path d="M332.877 12L336.285 5.364V6.36L332.961 0.204H336.909L338.901 4.332H339.129L341.109 0.204H345.045L341.733 6.36V5.364L345.141 12H341.193L339.129 7.668H338.901L336.825 12H332.877ZM309.743 38.288C308.583 38.288 307.591 38.064 306.767 37.616C305.951 37.16 305.327 36.484 304.895 35.588C304.463 34.692 304.247 33.584 304.247 32.264V28.604C304.247 26.636 304.731 25.112 305.699 24.032C306.675 22.944 308.111 22.4 310.007 22.4C310.951 22.4 311.747 22.5 312.395 22.7C313.051 22.9 313.603 23.116 314.051 23.348L314.255 25.16C313.911 24.96 313.547 24.784 313.163 24.632C312.787 24.472 312.367 24.348 311.903 24.26C311.447 24.172 310.919 24.128 310.319 24.128C308.943 24.128 307.915 24.512 307.235 25.28C306.563 26.048 306.227 27.176 306.227 28.664V32.48C306.227 33.4 306.367 34.168 306.647 34.784C306.927 35.4 307.331 35.86 307.859 36.164C308.387 36.468 309.027 36.62 309.779 36.62C310.851 36.62 311.643 36.336 312.155 35.768C312.667 35.192 312.923 34.456 312.923 33.56V32.84C312.923 32.208 312.823 31.668 312.623 31.22C312.431 30.764 312.119 30.412 311.687 30.164C311.255 29.916 310.691 29.792 309.995 29.792C309.339 29.792 308.751 29.912 308.231 30.152C307.719 30.392 307.283 30.736 306.923 31.184C306.571 31.624 306.307 32.148 306.131 32.756L305.939 31.076H306.287C306.455 30.532 306.715 30.044 307.067 29.612C307.427 29.172 307.895 28.828 308.471 28.58C309.047 28.324 309.743 28.196 310.559 28.196C311.999 28.196 313.079 28.6 313.799 29.408C314.527 30.216 314.891 31.348 314.891 32.804V33.584C314.891 35 314.459 36.14 313.595 37.004C312.731 37.86 311.447 38.288 309.743 38.288ZM316.801 38V36.104L320.629 32.348C321.349 31.636 321.961 30.996 322.465 30.428C322.977 29.86 323.369 29.304 323.641 28.76C323.913 28.216 324.049 27.636 324.049 27.02V26.9C324.049 26.316 323.937 25.816 323.713 25.4C323.489 24.984 323.149 24.668 322.693 24.452C322.237 24.236 321.649 24.128 320.929 24.128C320.129 24.128 319.385 24.256 318.697 24.512C318.009 24.768 317.397 25.064 316.861 25.4L317.053 23.6C317.357 23.408 317.717 23.22 318.133 23.036C318.549 22.852 319.021 22.7 319.549 22.58C320.077 22.46 320.665 22.4 321.313 22.4C322.897 22.4 324.085 22.768 324.877 23.504C325.669 24.24 326.065 25.292 326.065 26.66V26.828C326.065 27.636 325.921 28.368 325.633 29.024C325.345 29.68 324.925 30.336 324.373 30.992C323.821 31.64 323.157 32.348 322.381 33.116L319.261 36.2V36.668L318.445 36.308H326.305V38H316.801ZM328.476 32.504V30.908H335.292V32.504H328.476ZM344.129 38.252C343.409 38.252 342.781 38.132 342.245 37.892C341.717 37.652 341.289 37.308 340.961 36.86C340.633 36.412 340.413 35.892 340.301 35.3H339.653L340.241 33.476C340.281 34.18 340.445 34.768 340.733 35.24C341.029 35.704 341.421 36.052 341.909 36.284C342.397 36.516 342.949 36.632 343.565 36.632C344.541 36.632 345.285 36.344 345.797 35.768C346.317 35.192 346.577 34.336 346.577 33.2V31.004C346.577 29.892 346.317 29.048 345.797 28.472C345.277 27.896 344.521 27.608 343.529 27.608C342.937 27.608 342.413 27.724 341.957 27.956C341.501 28.188 341.121 28.504 340.817 28.904C340.521 29.304 340.317 29.76 340.205 30.272L339.761 28.916H340.313C340.433 28.38 340.645 27.896 340.949 27.464C341.261 27.024 341.685 26.676 342.221 26.42C342.757 26.156 343.421 26.024 344.213 26.024C345.621 26.024 346.693 26.464 347.429 27.344C348.165 28.216 348.533 29.484 348.533 31.148V33.092C348.533 34.772 348.157 36.052 347.405 36.932C346.661 37.812 345.569 38.252 344.129 38.252ZM338.357 38V22.1H340.289V25.916L340.229 29.276L340.241 29.648V34.544L340.217 35.168L340.301 38H338.357ZM351.284 38V26.288H353.228V38H351.284ZM352.256 24.368C351.856 24.368 351.556 24.264 351.356 24.056C351.164 23.84 351.068 23.548 351.068 23.18V23.12C351.068 22.744 351.164 22.452 351.356 22.244C351.556 22.036 351.856 21.932 352.256 21.932C352.656 21.932 352.956 22.036 353.156 22.244C353.356 22.452 353.456 22.744 353.456 23.12V23.18C353.456 23.556 353.356 23.848 353.156 24.056C352.956 24.264 352.656 24.368 352.256 24.368ZM360.711 38.24C359.807 38.24 359.079 38.104 358.527 37.832C357.975 37.56 357.575 37.148 357.327 36.596C357.079 36.044 356.955 35.356 356.955 34.532V27.14H358.875V34.304C358.875 35.072 359.051 35.64 359.403 36.008C359.755 36.368 360.347 36.548 361.179 36.548C361.651 36.548 362.103 36.496 362.535 36.392C362.975 36.288 363.387 36.14 363.771 35.948L363.591 37.616C363.215 37.808 362.775 37.96 362.271 38.072C361.767 38.184 361.247 38.24 360.711 38.24ZM355.035 28.016V26.456H363.651L363.471 28.016H355.035ZM356.967 26.648L356.955 23.36L358.911 23.108L358.827 26.648H356.967ZM369.627 38.264C368.683 38.264 367.859 38.164 367.155 37.964C366.451 37.756 365.867 37.532 365.403 37.292L365.223 35.492C365.807 35.796 366.447 36.06 367.143 36.284C367.847 36.508 368.643 36.62 369.531 36.62C370.435 36.62 371.115 36.476 371.571 36.188C372.027 35.9 372.255 35.472 372.255 34.904V34.772C372.255 34.404 372.167 34.1 371.991 33.86C371.823 33.62 371.515 33.408 371.067 33.224C370.619 33.04 369.983 32.856 369.159 32.672C368.175 32.456 367.399 32.204 366.831 31.916C366.263 31.62 365.855 31.256 365.607 30.824C365.367 30.392 365.247 29.864 365.247 29.24V29.132C365.247 28.108 365.603 27.332 366.315 26.804C367.027 26.276 368.099 26.012 369.531 26.012C370.451 26.012 371.247 26.116 371.919 26.324C372.599 26.532 373.155 26.764 373.587 27.02L373.767 28.664C373.247 28.36 372.651 28.108 371.979 27.908C371.307 27.708 370.551 27.608 369.711 27.608C369.103 27.608 368.611 27.672 368.235 27.8C367.859 27.92 367.587 28.096 367.419 28.328C367.251 28.552 367.167 28.824 367.167 29.144V29.24C367.167 29.592 367.251 29.892 367.419 30.14C367.587 30.38 367.887 30.592 368.319 30.776C368.759 30.952 369.367 31.124 370.143 31.292C371.143 31.492 371.935 31.732 372.519 32.012C373.111 32.292 373.535 32.648 373.791 33.08C374.047 33.504 374.175 34.052 374.175 34.724V34.928C374.175 36.032 373.791 36.864 373.023 37.424C372.255 37.984 371.123 38.264 369.627 38.264Z" fill="#808080"/>
<path d="M686.707 12.7071C687.098 12.3166 687.098 11.6834 686.707 11.2929L680.343 4.92893C679.953 4.53841 679.319 4.53841 678.929 4.92893C678.538 5.31946 678.538 5.95262 678.929 6.34315L684.586 12L678.929 17.6569C678.538 18.0474 678.538 18.6805 678.929 19.0711C679.319 19.4616 679.953 19.4616 680.343 19.0711L686.707 12.7071ZM414 12V13H686V12V11H414V12Z" fill="#808080"/>
<path d="M686.707 12.7071C687.098 12.3166 687.098 11.6834 686.707 11.2929L680.343 4.92893C679.953 4.53841 679.319 4.53841 678.929 4.92893C678.538 5.31946 678.538 5.95262 678.929 6.34315L684.586 12L678.929 17.6569C678.538 18.0474 678.538 18.6805 678.929 19.0711C679.319 19.4616 679.953 19.4616 680.343 19.0711L686.707 12.7071ZM388 12V13H686V12V11H388V12Z" fill="#808080"/>
<path d="M0.292908 11.2929C-0.0976257 11.6834 -0.0976257 12.3166 0.292908 12.7071L6.65686 19.0711C7.04739 19.4616 7.68054 19.4616 8.07108 19.0711C8.46158 18.6805 8.46158 18.0474 8.07108 17.6569L2.41422 12L8.07108 6.34315C8.46158 5.95262 8.46158 5.31946 8.07108 4.92893C7.68054 4.53841 7.04739 4.53841 6.65686 4.92893L0.292908 11.2929ZM290 12V11L1 11V12V13L290 13V12Z" fill="#808080"/>
<line x1="338" y1="149" x2="338" y2="42" stroke="#808080" stroke-width="2"/>
<path d="M170.866 95.23C170.279 95.23 169.786 95.1333 169.386 94.94C168.986 94.7467 168.666 94.4733 168.426 94.12C168.186 93.76 168.016 93.3433 167.916 92.87H167.126L167.856 90.81C167.869 91.2167 167.949 91.56 168.096 91.84C168.243 92.12 168.453 92.3367 168.726 92.49C168.999 92.6367 169.319 92.71 169.686 92.71C170.246 92.71 170.669 92.5467 170.956 92.22C171.243 91.8867 171.386 91.39 171.386 90.73V89.34C171.386 88.6867 171.243 88.1967 170.956 87.87C170.676 87.5433 170.256 87.38 169.696 87.38C169.383 87.38 169.096 87.44 168.836 87.56C168.583 87.68 168.366 87.84 168.186 88.04C168.013 88.2333 167.886 88.4567 167.806 88.71L167.116 87.3H167.956C168.056 86.86 168.219 86.4633 168.446 86.11C168.673 85.75 168.989 85.4667 169.396 85.26C169.809 85.0467 170.333 84.94 170.966 84.94C172.113 84.94 172.979 85.3167 173.566 86.07C174.159 86.8167 174.456 87.94 174.456 89.44V90.64C174.456 92.1533 174.159 93.2967 173.566 94.07C172.973 94.8433 172.073 95.23 170.866 95.23ZM164.856 95V81.79H167.896V84.73L167.846 87.88L167.856 88.15V91.92L167.806 92.51L167.896 95H164.856ZM145.669 117.22C145.129 117.22 144.629 117.177 144.169 117.09C143.716 117.01 143.316 116.91 142.969 116.79C142.623 116.663 142.336 116.543 142.109 116.43L141.949 114.81C142.396 115.063 142.926 115.287 143.539 115.48C144.153 115.667 144.819 115.76 145.539 115.76C146.233 115.76 146.789 115.67 147.209 115.49C147.636 115.31 147.946 115.053 148.139 114.72C148.333 114.387 148.429 113.983 148.429 113.51V113.27C148.429 112.79 148.339 112.393 148.159 112.08C147.986 111.767 147.699 111.533 147.299 111.38C146.899 111.22 146.363 111.137 145.689 111.13L143.579 111.09V109.78L145.719 109.74C146.366 109.727 146.883 109.637 147.269 109.47C147.656 109.303 147.933 109.07 148.099 108.77C148.266 108.463 148.349 108.1 148.349 107.68V107.51C148.349 106.823 148.143 106.303 147.729 105.95C147.323 105.59 146.633 105.41 145.659 105.41C144.933 105.41 144.259 105.51 143.639 105.71C143.019 105.903 142.479 106.127 142.019 106.38L142.169 104.93C142.563 104.69 143.073 104.477 143.699 104.29C144.333 104.097 145.076 104 145.929 104C147.336 104 148.369 104.287 149.029 104.86C149.696 105.433 150.029 106.233 150.029 107.26V107.48C150.029 107.993 149.943 108.447 149.769 108.84C149.603 109.233 149.339 109.553 148.979 109.8C148.619 110.04 148.149 110.2 147.569 110.28L147.559 110.51L147.519 110.33C148.446 110.463 149.113 110.77 149.519 111.25C149.933 111.723 150.139 112.39 150.139 113.25V113.61C150.139 114.737 149.776 115.62 149.049 116.26C148.329 116.9 147.203 117.22 145.669 117.22ZM154.682 117V105.92H154.552L151.592 107.68L151.642 106.06L154.692 104.22H156.342V117H154.682ZM159.05 112.42V111.09H164.73V112.42H159.05ZM172.095 117.21C171.495 117.21 170.972 117.11 170.525 116.91C170.085 116.71 169.728 116.423 169.455 116.05C169.182 115.677 168.998 115.243 168.905 114.75H168.365L168.855 113.23C168.888 113.817 169.025 114.307 169.265 114.7C169.512 115.087 169.838 115.377 170.245 115.57C170.652 115.763 171.112 115.86 171.625 115.86C172.438 115.86 173.058 115.62 173.485 115.14C173.918 114.66 174.135 113.947 174.135 113V111.17C174.135 110.243 173.918 109.54 173.485 109.06C173.052 108.58 172.422 108.34 171.595 108.34C171.102 108.34 170.665 108.437 170.285 108.63C169.905 108.823 169.588 109.087 169.335 109.42C169.088 109.753 168.918 110.133 168.825 110.56L168.455 109.43H168.915C169.015 108.983 169.192 108.58 169.445 108.22C169.705 107.853 170.058 107.563 170.505 107.35C170.952 107.13 171.505 107.02 172.165 107.02C173.338 107.02 174.232 107.387 174.845 108.12C175.458 108.847 175.765 109.903 175.765 111.29V112.91C175.765 114.31 175.452 115.377 174.825 116.11C174.205 116.843 173.295 117.21 172.095 117.21ZM167.285 117V103.75H168.895V106.93L168.845 109.73L168.855 110.04V114.12L168.835 114.64L168.905 117H167.285ZM178.057 117V107.24H179.677V117H178.057ZM178.867 105.64C178.534 105.64 178.284 105.553 178.117 105.38C177.957 105.2 177.877 104.957 177.877 104.65V104.6C177.877 104.287 177.957 104.043 178.117 103.87C178.284 103.697 178.534 103.61 178.867 103.61C179.2 103.61 179.45 103.697 179.617 103.87C179.784 104.043 179.867 104.287 179.867 104.6V104.65C179.867 104.963 179.784 105.207 179.617 105.38C179.45 105.553 179.2 105.64 178.867 105.64ZM185.913 117.2C185.16 117.2 184.553 117.087 184.093 116.86C183.633 116.633 183.3 116.29 183.093 115.83C182.886 115.37 182.783 114.797 182.783 114.11V107.95H184.383V113.92C184.383 114.56 184.53 115.033 184.823 115.34C185.116 115.64 185.61 115.79 186.303 115.79C186.696 115.79 187.073 115.747 187.433 115.66C187.8 115.573 188.143 115.45 188.463 115.29L188.313 116.68C188 116.84 187.633 116.967 187.213 117.06C186.793 117.153 186.36 117.2 185.913 117.2ZM181.183 108.68V107.38H188.363L188.213 108.68H181.183ZM182.793 107.54L182.783 104.8L184.413 104.59L184.343 107.54H182.793ZM193.343 117.22C192.556 117.22 191.869 117.137 191.283 116.97C190.696 116.797 190.209 116.61 189.823 116.41L189.673 114.91C190.159 115.163 190.693 115.383 191.273 115.57C191.859 115.757 192.523 115.85 193.263 115.85C194.016 115.85 194.583 115.73 194.963 115.49C195.343 115.25 195.533 114.893 195.533 114.42V114.31C195.533 114.003 195.459 113.75 195.313 113.55C195.173 113.35 194.916 113.173 194.543 113.02C194.169 112.867 193.639 112.713 192.953 112.56C192.133 112.38 191.486 112.17 191.013 111.93C190.539 111.683 190.199 111.38 189.993 111.02C189.793 110.66 189.693 110.22 189.693 109.7V109.61C189.693 108.757 189.989 108.11 190.583 107.67C191.176 107.23 192.069 107.01 193.263 107.01C194.029 107.01 194.693 107.097 195.253 107.27C195.819 107.443 196.283 107.637 196.643 107.85L196.793 109.22C196.359 108.967 195.863 108.757 195.303 108.59C194.743 108.423 194.113 108.34 193.413 108.34C192.906 108.34 192.496 108.393 192.183 108.5C191.869 108.6 191.643 108.747 191.503 108.94C191.363 109.127 191.293 109.353 191.293 109.62V109.7C191.293 109.993 191.363 110.243 191.503 110.45C191.643 110.65 191.893 110.827 192.253 110.98C192.619 111.127 193.126 111.27 193.773 111.41C194.606 111.577 195.266 111.777 195.753 112.01C196.246 112.243 196.599 112.54 196.813 112.9C197.026 113.253 197.133 113.71 197.133 114.27V114.44C197.133 115.36 196.813 116.053 196.173 116.52C195.533 116.987 194.589 117.22 193.343 117.22Z" fill="#808080"/>
<path d="M339.707 95.7071C340.098 95.3166 340.098 94.6834 339.707 94.2929L333.343 87.9289C332.953 87.5384 332.319 87.5384 331.929 87.9289C331.538 88.3195 331.538 88.9526 331.929 89.3431L337.586 95L331.929 100.657C331.538 101.047 331.538 101.681 331.929 102.071C332.319 102.462 332.953 102.462 333.343 102.071L339.707 95.7071ZM206 95V96H339V95V94H206V95Z" fill="#808080"/>
<path d="M514.862 92.24C514.082 92.24 513.378 92.17 512.752 92.03C512.125 91.8967 511.588 91.74 511.142 91.56L510.882 88.99C511.395 89.2033 511.962 89.3967 512.582 89.57C513.208 89.7367 513.885 89.82 514.612 89.82C515.192 89.82 515.602 89.76 515.842 89.64C516.088 89.5133 516.212 89.32 516.212 89.06V89.02C516.212 88.84 516.148 88.6933 516.022 88.58C515.902 88.46 515.688 88.3533 515.382 88.26C515.082 88.1667 514.658 88.0567 514.112 87.93C513.292 87.7367 512.642 87.51 512.162 87.25C511.682 86.9833 511.338 86.66 511.132 86.28C510.932 85.8933 510.832 85.4367 510.832 84.91V84.83C510.832 83.8567 511.178 83.13 511.872 82.65C512.565 82.1633 513.585 81.92 514.932 81.92C515.692 81.92 516.375 81.99 516.982 82.13C517.588 82.27 518.098 82.4367 518.512 82.63L518.772 85.02C518.292 84.8067 517.755 84.63 517.162 84.49C516.575 84.35 515.958 84.28 515.312 84.28C514.918 84.28 514.608 84.3067 514.382 84.36C514.162 84.4133 514.005 84.49 513.912 84.59C513.825 84.69 513.782 84.8133 513.782 84.96V84.99C513.782 85.15 513.835 85.2867 513.942 85.4C514.048 85.5133 514.242 85.62 514.522 85.72C514.808 85.82 515.218 85.9333 515.752 86.06C516.578 86.24 517.245 86.4467 517.752 86.68C518.258 86.9067 518.628 87.2033 518.862 87.57C519.095 87.93 519.212 88.41 519.212 89.01V89.1C519.212 90.16 518.855 90.95 518.142 91.47C517.428 91.9833 516.335 92.24 514.862 92.24ZM491.169 114.22C490.629 114.22 490.129 114.177 489.669 114.09C489.216 114.01 488.816 113.91 488.469 113.79C488.123 113.663 487.836 113.543 487.609 113.43L487.449 111.81C487.896 112.063 488.426 112.287 489.039 112.48C489.653 112.667 490.319 112.76 491.039 112.76C491.733 112.76 492.289 112.67 492.709 112.49C493.136 112.31 493.446 112.053 493.639 111.72C493.833 111.387 493.929 110.983 493.929 110.51V110.27C493.929 109.79 493.839 109.393 493.659 109.08C493.486 108.767 493.199 108.533 492.799 108.38C492.399 108.22 491.863 108.137 491.189 108.13L489.079 108.09V106.78L491.219 106.74C491.866 106.727 492.383 106.637 492.769 106.47C493.156 106.303 493.433 106.07 493.599 105.77C493.766 105.463 493.849 105.1 493.849 104.68V104.51C493.849 103.823 493.643 103.303 493.229 102.95C492.823 102.59 492.133 102.41 491.159 102.41C490.433 102.41 489.759 102.51 489.139 102.71C488.519 102.903 487.979 103.127 487.519 103.38L487.669 101.93C488.063 101.69 488.573 101.477 489.199 101.29C489.833 101.097 490.576 101 491.429 101C492.836 101 493.869 101.287 494.529 101.86C495.196 102.433 495.529 103.233 495.529 104.26V104.48C495.529 104.993 495.443 105.447 495.269 105.84C495.103 106.233 494.839 106.553 494.479 106.8C494.119 107.04 493.649 107.2 493.069 107.28L493.059 107.51L493.019 107.33C493.946 107.463 494.613 107.77 495.019 108.25C495.433 108.723 495.639 109.39 495.639 110.25V110.61C495.639 111.737 495.276 112.62 494.549 113.26C493.829 113.9 492.703 114.22 491.169 114.22ZM500.182 114V102.92H500.052L497.092 104.68L497.142 103.06L500.192 101.22H501.842V114H500.182ZM504.55 109.42V108.09H510.23V109.42H504.55ZM517.595 114.21C516.995 114.21 516.472 114.11 516.025 113.91C515.585 113.71 515.228 113.423 514.955 113.05C514.682 112.677 514.498 112.243 514.405 111.75H513.865L514.355 110.23C514.388 110.817 514.525 111.307 514.765 111.7C515.012 112.087 515.338 112.377 515.745 112.57C516.152 112.763 516.612 112.86 517.125 112.86C517.938 112.86 518.558 112.62 518.985 112.14C519.418 111.66 519.635 110.947 519.635 110V108.17C519.635 107.243 519.418 106.54 518.985 106.06C518.552 105.58 517.922 105.34 517.095 105.34C516.602 105.34 516.165 105.437 515.785 105.63C515.405 105.823 515.088 106.087 514.835 106.42C514.588 106.753 514.418 107.133 514.325 107.56L513.955 106.43H514.415C514.515 105.983 514.692 105.58 514.945 105.22C515.205 104.853 515.558 104.563 516.005 104.35C516.452 104.13 517.005 104.02 517.665 104.02C518.838 104.02 519.732 104.387 520.345 105.12C520.958 105.847 521.265 106.903 521.265 108.29V109.91C521.265 111.31 520.952 112.377 520.325 113.11C519.705 113.843 518.795 114.21 517.595 114.21ZM512.785 114V100.75H514.395V103.93L514.345 106.73L514.355 107.04V111.12L514.335 111.64L514.405 114H512.785ZM523.557 114V104.24H525.177V114H523.557ZM524.367 102.64C524.034 102.64 523.784 102.553 523.617 102.38C523.457 102.2 523.377 101.957 523.377 101.65V101.6C523.377 101.287 523.457 101.043 523.617 100.87C523.784 100.697 524.034 100.61 524.367 100.61C524.7 100.61 524.95 100.697 525.117 100.87C525.284 101.043 525.367 101.287 525.367 101.6V101.65C525.367 101.963 525.284 102.207 525.117 102.38C524.95 102.553 524.7 102.64 524.367 102.64ZM531.413 114.2C530.66 114.2 530.053 114.087 529.593 113.86C529.133 113.633 528.8 113.29 528.593 112.83C528.386 112.37 528.283 111.797 528.283 111.11V104.95H529.883V110.92C529.883 111.56 530.03 112.033 530.323 112.34C530.616 112.64 531.11 112.79 531.803 112.79C532.196 112.79 532.573 112.747 532.933 112.66C533.3 112.573 533.643 112.45 533.963 112.29L533.813 113.68C533.5 113.84 533.133 113.967 532.713 114.06C532.293 114.153 531.86 114.2 531.413 114.2ZM526.683 105.68V104.38H533.863L533.713 105.68H526.683ZM528.293 104.54L528.283 101.8L529.913 101.59L529.843 104.54H528.293ZM538.843 114.22C538.056 114.22 537.369 114.137 536.783 113.97C536.196 113.797 535.709 113.61 535.323 113.41L535.173 111.91C535.659 112.163 536.193 112.383 536.773 112.57C537.359 112.757 538.023 112.85 538.763 112.85C539.516 112.85 540.083 112.73 540.463 112.49C540.843 112.25 541.033 111.893 541.033 111.42V111.31C541.033 111.003 540.959 110.75 540.813 110.55C540.673 110.35 540.416 110.173 540.043 110.02C539.669 109.867 539.139 109.713 538.453 109.56C537.633 109.38 536.986 109.17 536.513 108.93C536.039 108.683 535.699 108.38 535.493 108.02C535.293 107.66 535.193 107.22 535.193 106.7V106.61C535.193 105.757 535.489 105.11 536.083 104.67C536.676 104.23 537.569 104.01 538.763 104.01C539.529 104.01 540.193 104.097 540.753 104.27C541.319 104.443 541.783 104.637 542.143 104.85L542.293 106.22C541.859 105.967 541.363 105.757 540.803 105.59C540.243 105.423 539.613 105.34 538.913 105.34C538.406 105.34 537.996 105.393 537.683 105.5C537.369 105.6 537.143 105.747 537.003 105.94C536.863 106.127 536.793 106.353 536.793 106.62V106.7C536.793 106.993 536.863 107.243 537.003 107.45C537.143 107.65 537.393 107.827 537.753 107.98C538.119 108.127 538.626 108.27 539.273 108.41C540.106 108.577 540.766 108.777 541.253 109.01C541.746 109.243 542.099 109.54 542.313 109.9C542.526 110.253 542.633 110.71 542.633 111.27V111.44C542.633 112.36 542.313 113.053 541.673 113.52C541.033 113.987 540.089 114.22 538.843 114.22Z" fill="#808080"/>
<path d="M686.707 95.7071C687.098 95.3166 687.098 94.6834 686.707 94.2929L680.343 87.9289C679.953 87.5384 679.319 87.5384 678.929 87.9289C678.538 88.3195 678.538 88.9526 678.929 89.3431L684.586 95L678.929 100.657C678.538 101.047 678.538 101.681 678.929 102.071C679.319 102.462 679.953 102.462 680.343 102.071L686.707 95.7071ZM545 95V96L686 96V95V94L545 94V95Z" fill="#808080"/>
<path d="M338.293 94.2929C337.902 94.6834 337.902 95.3166 338.293 95.7071L344.657 102.071C345.047 102.462 345.681 102.462 346.071 102.071C346.462 101.681 346.462 101.047 346.071 100.657L340.414 95L346.071 89.3431C346.462 88.9526 346.462 88.3195 346.071 87.9289C345.681 87.5384 345.047 87.5384 344.657 87.9289L338.293 94.2929ZM477 95L477 94L339 94L339 95L339 96L477 96L477 95Z" fill="#808080"/>
<path d="M0.292892 94.2929C-0.0976257 94.6834 -0.0976257 95.3166 0.292892 95.7071L6.65685 102.071C7.04738 102.462 7.68054 102.462 8.07107 102.071C8.46159 101.681 8.46159 101.047 8.07107 100.657L2.41422 95L8.07107 89.3431C8.46159 88.9526 8.46159 88.3195 8.07107 87.9289C7.68054 87.5384 7.04738 87.5384 6.65685 87.9289L0.292892 94.2929ZM133 95L133 94L1 94L1 95L1 96L133 96L133 95Z" fill="#808080"/>
</svg>
