<svg width="24" height="24" viewBox="0 0 24 24" fill="none" xmlns="http://www.w3.org/2000/svg"><path d="M12 2.246a10 10 0 013.162 19.488c-.5.087-.687-.213-.687-.475 0-.238.013-1.025.013-1.863 2.512.463 3.162-.612 3.362-1.175a3.635 3.635 0 011.025-1.412c.35-.188.85-.65.012-.663a2.002 2.002 0 00-1.537 1.025 2.138 2.138 0 01-2.913.825 2.104 2.104 0 00-.637-1.337c2.225-.25 4.55-1.113 4.55-4.938a3.892 3.892 0 00-1.025-2.687 3.594 3.594 0 00-.1-2.65s-.838-.263-2.75 1.025a9.428 9.428 0 00-5 0c-1.913-1.3-2.75-1.025-2.75-1.025a3.593 3.593 0 00-.1 2.65A3.87 3.87 0 005.6 11.72c0 3.838 2.337 4.688 4.563 4.938a2.368 2.368 0 00-.676 1.85c0 1.337.013 2.412.013 2.75 0 .262-.188.575-.688.475A10.005 10.005 0 0112 2.246z" fill="#080844"/></svg>