<svg width="21" height="20" viewBox="0 0 21 20" fill="none" xmlns="http://www.w3.org/2000/svg"><path d="M15.23 1l.604.238a.65.65 0 00-1.066-.696L15.23 1zM5.07 11.23l-.461-.457a.65.65 0 00.46 1.108v-.65zm3.82 0l.602.244a.65.65 0 00-.603-.893v.65zm3.284-2.46l-.605-.239a.65.65 0 00.605.888v-.65zM5.757 19l-.603-.243a.65.65 0 001.061.704L5.757 19zM16.07 8.77l.458.46a.65.65 0 00-.458-1.11v.65zM14.768.541l-10.16 10.23.923.917 10.16-10.231-.923-.916zM5.07 11.881h3.82v-1.3H5.07v1.3zm7.709-2.874l3.055-7.77-1.21-.475-3.055 7.77 1.21.475zM6.215 19.461l10.313-10.23-.916-.923L5.3 18.538l.915.923zM16.07 8.12h-3.896v1.3h3.896v-1.3zm-7.784 2.869l-3.132 7.769 1.206.486 3.132-7.77-1.206-.485z" fill="#fff"/></svg>