<svg width="20" height="20" viewBox="0 0 20 20" fill="none" xmlns="http://www.w3.org/2000/svg"><path fill-rule="evenodd" clip-rule="evenodd" d="M8.815.995c-.943 0-1.71.762-1.715 1.704l-.206 7.665a4.09 4.09 0 00-1.028-.658c-.752-.322-1.624-.31-2.204.386-.35.42-.415.951-.38 1.415.034.47.178.969.359 1.433.362.933.924 1.866 1.33 2.436a10.45 10.45 0 002.195 2.225c1.007.746 2.31 1.395 3.778 1.395a6.05 6.05 0 006.051-5.928h.002V9.405a1.714 1.714 0 00-2.251-1.628 1.755 1.755 0 00-2.17-1.026 1.715 1.715 0 00-2.046-1.136V2.709c0-.947-.769-1.714-1.715-1.714zm1.715 6.322v3.545a.65.65 0 01-1.3 0V2.71a.414.414 0 00-.83 0v.017l-.25 9.291a.65.65 0 01-1.178.362c-.584-.813-1.168-1.286-1.618-1.478-.44-.188-.611-.075-.692.022-.046.055-.106.189-.084.488.022.291.118.655.275 1.059.312.805.815 1.643 1.177 2.154a9.152 9.152 0 001.91 1.932c.885.656 1.92 1.14 3.004 1.14a4.75 4.75 0 004.752-4.746V9.405a.414.414 0 00-.829 0v1.457a.65.65 0 11-1.3 0V8.42a.453.453 0 00-.908 0v2.442a.65.65 0 01-1.3 0V7.278a.414.414 0 00-.829 0v.04z" fill="#0C152E"/></svg>