<svg width="142" height="33" viewBox="0 0 142 33" fill="none" xmlns="http://www.w3.org/2000/svg"><path fill-rule="evenodd" clip-rule="evenodd" d="M.033 16.85c0 8.836 7.163 16 16 16 8.836 0 16-7.164 16-16 0-8.837-7.164-16-16-16-8.837 0-16 7.163-16 16z" fill="#0C0C4F"/><path fill-rule="evenodd" clip-rule="evenodd" d="M8.975 13.08l.395-1.22a.797.797 0 01.526-.517l1.226-.377c.17-.052.17-.291.003-.346l-1.221-.395a.8.8 0 01-.518-.525L9.01 8.474c-.052-.17-.291-.171-.346-.003l-.395 1.22a.799.799 0 01-.525.518l-1.226.377a.181.181 0 00-.003.345l1.22.396a.8.8 0 01.518.525l.377 1.226c.051.17.29.171.345.003z" fill="#FAFAFA"/><path fill-rule="evenodd" clip-rule="evenodd" d="M28.357 12.371c-.506-.565-1.295-.883-2.062-1.014a7.085 7.085 0 00-2.347.022c-1.544.261-2.947.9-4.17 1.69-.636.387-1.178.835-1.74 1.291-.27.23-.516.476-.773.719l-.702.698c-.763.797-1.514 1.523-2.242 2.125-.73.599-1.412 1.054-2.085 1.372-.673.319-1.392.507-2.33.537-.93.033-2.029-.135-3.205-.412-1.183-.276-2.425-.669-3.812-1.007.484 1.344 1.213 2.53 2.15 3.616.946 1.066 2.129 2.038 3.648 2.677 1.498.654 3.38.888 5.139.534 1.764-.34 3.312-1.155 4.564-2.1 1.254-.953 2.27-2.04 3.125-3.17.236-.311.361-.486.532-.73l.473-.7c.328-.433.627-.926.952-1.354.637-.899 1.265-1.796 1.995-2.623.367-.419.755-.82 1.212-1.205.228-.188.475-.373.748-.538.277-.18.57-.32.93-.428z" fill="url(#paint0_linear_1370_41452)"/><path fill-rule="evenodd" clip-rule="evenodd" d="M28.357 12.37c-.543-1.37-1.553-2.524-2.908-3.375-1.347-.842-3.217-1.271-5.071-.905a8.306 8.306 0 00-2.582.972c-.775.452-1.47.997-2.07 1.581-.3.293-.573.599-.844.906l-.701.895-1.084 1.44c-1.381 1.852-2.869 4.023-5.31 4.666-2.396.631-3.436.072-4.898-.159.267.69.598 1.361 1.048 1.951a7.72 7.72 0 001.608 1.652c.327.232.673.462 1.056.657.382.188.794.354 1.233.479.874.24 1.858.323 2.811.194a8.457 8.457 0 002.661-.83 11.208 11.208 0 002.126-1.393c1.24-1.03 2.205-2.168 3.02-3.32.41-.575.782-1.16 1.127-1.747l.405-.698c.124-.204.249-.41.376-.6.514-.769 1.016-1.385 1.625-1.847.602-.474 1.44-.825 2.558-.906 1.115-.083 2.401.07 3.814.387z" fill="#FAFAFA"/><path fill-rule="evenodd" clip-rule="evenodd" d="M22.328 23.756a1.823 1.823 0 103.646 0 1.823 1.823 0 00-3.646 0z" fill="#EC796B"/><path d="M139.87 12.377v-1.84a.133.133 0 00-.133-.133H129.25a.132.132 0 00-.132.132v1.841h4.262v11.907h2.227V12.377h4.263zm-21.712-1.973a.133.133 0 00-.133.132v13.616c0 .073.06.132.133.132h8.825c.073 0 .132-.06.132-.132V22.33h-6.863v-4.362h5.67v-1.914h-5.67v-3.698h6.374v-1.82a.132.132 0 00-.132-.133h-8.336zm-5.118 13.799l.048.081h1.711c.073 0 .132-.06.132-.132V10.536a.132.132 0 00-.132-.132h-2.056v9.613a51.516 51.516 0 00-1.243-1.877 62.502 62.502 0 00-1.939-2.703 62.788 62.788 0 00-2.077-2.683 35.631 35.631 0 00-1.963-2.298l-.049-.052h-1.61a.132.132 0 00-.132.132v13.616c0 .073.059.132.132.132h2.056V13.987c.281.332.58.7.897 1.103.429.546.871 1.13 1.326 1.755h.001v.002c.455.61.91 1.247 1.365 1.91l.001.001v.001c.469.663.917 1.32 1.347 1.97v.001c.429.638.825 1.255 1.189 1.852l.001.001v.001c.378.599.709 1.139.995 1.62zm-12-13.523l.05-.054a.132.132 0 00-.097-.222h-2.438l-.05.058c-.323.375-.726.816-1.207 1.323-.468.495-.97 1.016-1.504 1.563-.533.546-1.073 1.093-1.62 1.64-.438.427-.846.82-1.225 1.18v-5.764h-2.094a.132.132 0 00-.132.132v13.616c0 .073.059.132.132.132h2.094v-6.297c.46.301.93.654 1.41 1.058h.001a21.267 21.267 0 011.708 1.572l.002.002a20.818 20.818 0 011.61 1.766h.001l.001.001c.504.608.95 1.215 1.337 1.822l.049.076h2.376c.102 0 .165-.11.115-.198l-.029-.05a16.27 16.27 0 00-1.342-1.954 30.727 30.727 0 00-3.538-3.853 18.132 18.132 0 00-1.634-1.345 197.954 197.954 0 004.653-4.715l.001-.001c.509-.548.965-1.044 1.37-1.487z" fill="#0C0C4F"/><path fill-rule="evenodd" clip-rule="evenodd" d="M78.082 10.3a.132.132 0 00-.132.131V24.16c0 .073.06.132.132.132h1.887v-5.047h2.757c.31.371.612.76.907 1.165l.001.002.001.001a20.81 20.81 0 011.338 1.98v.002c.371.608.695 1.209.971 1.802l.045.095h2.233a.13.13 0 00.12-.185 19.629 19.629 0 00-.845-1.651 30.848 30.848 0 00-2.26-3.453c.833-.255 1.492-.715 1.969-1.383.572-.81.856-1.761.856-2.848 0-.746-.13-1.43-.392-2.047a3.801 3.801 0 00-1.19-1.555c-.525-.412-1.171-.674-1.933-.792a3.76 3.76 0 00-.55-.059 7.167 7.167 0 00-.483-.019h-5.432zm7.923 4.471c0 .361-.06.716-.18 1.066-.119.336-.307.63-.567.885-.247.24-.572.411-.984.507-.13.03-.272.05-.422.063h-.001a4.95 4.95 0 01-.394.018h-3.488v-5.077h3.488c.114 0 .246.006.394.018h.007c.147.007.283.027.41.061l.003.001.004.001c.411.09.735.26.981.506h.001v.001c.26.254.45.552.567.894v.001c.12.343.181.695.181 1.056zm-13.009 7.681c.196.563.405 1.137.627 1.725l.04.107h2.234a.132.132 0 00.124-.177c-.487-1.34-.98-2.68-1.483-4.015a132.872 132.872 0 00-1.35-3.483 96.132 96.132 0 00-1.292-3.133 78.95 78.95 0 00-1.36-2.997.132.132 0 00-.12-.075h-1.782c-.05 0-.097.03-.119.075-.474.99-.928 1.988-1.36 2.997-.431.992-.868 2.036-1.312 3.132v.001a200.897 200.897 0 00-1.331 3.483 394.635 394.635 0 00-1.483 4.015.132.132 0 00.124.177h2.18l.05-.053a19.11 19.11 0 011.73-1.63V22.6a21.95 21.95 0 012.002-1.52l.002-.002h.001a22.48 22.48 0 012.066-1.302l.002-.001c.25-.142.495-.274.737-.397l.467 1.335v.001c.209.586.41 1.165.606 1.738zm-2.403-6.584v.002c.189.476.377.96.565 1.453l-.043.02c-.662.3-1.374.69-2.135 1.168-.728.457-1.451.953-2.168 1.489l.303-.867c.402-1.127.804-2.215 1.205-3.264.37-.947.754-1.857 1.154-2.73.388.873.761 1.783 1.119 2.729z" fill="#0C0C4F"/><path d="M63.574 12.377v-1.84a.132.132 0 00-.132-.133H52.955a.132.132 0 00-.132.132v1.841h4.262v11.775c0 .073.06.132.132.132h1.963c.073 0 .132-.06.132-.132V12.377h4.262zM43.2 24.115a5.255 5.255 0 01-2.013-1.475v-.001c-.528-.648-.87-1.411-1.03-2.286a.165.165 0 01.137-.193l1.777-.28a.165.165 0 01.185.122c.216.839.66 1.49 1.334 1.962.684.468 1.49.704 2.426.704a4.51 4.51 0 001.63-.278c.485-.191.862-.459 1.137-.8.271-.335.408-.732.408-1.2 0-.29-.052-.526-.147-.717l-.002-.005a1.419 1.419 0 00-.39-.511l-.005-.004a2.401 2.401 0 00-.578-.38 4.488 4.488 0 00-.698-.26h-.002l-3.544-1.053a7.768 7.768 0 01-1.144-.444h-.001l-.001-.001a4.255 4.255 0 01-1.004-.693l-.001-.001a3.2 3.2 0 01-.713-1.018c-.18-.406-.266-.877-.266-1.41 0-.853.221-1.59.67-2.202.45-.612 1.057-1.077 1.816-1.396.757-.319 1.607-.473 2.546-.467.952.007 1.809.178 2.566.516a4.867 4.867 0 011.897 1.438c.507.628.846 1.377 1.018 2.244a.166.166 0 01-.134.194l-1.825.32a.166.166 0 01-.191-.136c-.092-.54-.297-1-.611-1.38l-.002-.002a3.048 3.048 0 00-1.173-.898l-.002-.001a3.84 3.84 0 00-1.565-.333 3.74 3.74 0 00-1.47.258c-.436.178-.775.423-1.026.733v.001c-.246.299-.368.64-.368 1.034 0 .391.111.693.322.92.227.24.507.433.842.58.354.145.698.265 1.032.36h.001l2.645.762c.308.085.66.203 1.055.352.414.153.813.37 1.197.648.395.28.72.652.975 1.116.262.469.388 1.052.388 1.74 0 .692-.14 1.314-.424 1.861a3.864 3.864 0 01-1.159 1.37l-.001.002a5.386 5.386 0 01-1.712.816 7.279 7.279 0 01-2.073.287c-1.004 0-1.914-.17-2.729-.515z" fill="#0C0C4F"/><defs><linearGradient id="paint0_linear_1370_41452" x1="28.221" y1="11.891" x2="-13.401" y2="33.545" gradientUnits="userSpaceOnUse"><stop stop-color="#EC796B"/><stop offset="1" stop-color="#D672EF"/></linearGradient></defs></svg>