<svg width="143" height="34" viewBox="0 0 143 34" fill="none" xmlns="http://www.w3.org/2000/svg"><path d="M17.033 33.255C7.973 33.255.628 25.91.628 16.85.628 7.79 7.972.445 17.033.445c9.06 0 16.405 7.344 16.405 16.405 0 9.06-7.345 16.405-16.405 16.405z" fill="#0C0C4F" stroke="url(#paint0_linear_1370_43377)" stroke-width=".81"/><path fill-rule="evenodd" clip-rule="evenodd" d="M9.975 13.08l.395-1.22a.797.797 0 01.526-.517l1.226-.377c.17-.052.17-.291.003-.346l-1.221-.395a.8.8 0 01-.518-.525l-.376-1.226c-.052-.17-.291-.171-.346-.003l-.395 1.22a.799.799 0 01-.525.518l-1.226.377a.181.181 0 00-.003.345l1.22.396a.8.8 0 01.518.525l.377 1.226c.051.17.29.171.345.003z" fill="#FAFAFA"/><path fill-rule="evenodd" clip-rule="evenodd" d="M29.357 12.371c-.506-.565-1.295-.883-2.062-1.014a7.085 7.085 0 00-2.347.022c-1.544.261-2.947.9-4.17 1.69-.636.387-1.178.835-1.74 1.291-.27.23-.516.476-.773.719l-.702.698c-.763.797-1.514 1.523-2.242 2.125-.73.599-1.412 1.054-2.085 1.372-.673.319-1.392.507-2.33.537-.93.033-2.029-.135-3.205-.412-1.183-.276-2.425-.669-3.812-1.007.484 1.344 1.213 2.53 2.15 3.616.946 1.066 2.129 2.038 3.648 2.677 1.498.654 3.38.888 5.139.534 1.764-.34 3.312-1.155 4.564-2.1 1.254-.953 2.27-2.04 3.125-3.17.236-.311.361-.486.532-.73l.473-.7c.328-.433.627-.926.952-1.354.637-.899 1.265-1.796 1.995-2.623.367-.419.755-.82 1.212-1.205.228-.188.475-.373.748-.538.277-.18.57-.32.93-.428z" fill="url(#paint1_linear_1370_43377)"/><path fill-rule="evenodd" clip-rule="evenodd" d="M29.357 12.37c-.543-1.37-1.553-2.524-2.908-3.375-1.347-.842-3.218-1.271-5.071-.905a8.304 8.304 0 00-2.582.972c-.775.452-1.47.997-2.07 1.581-.301.293-.573.599-.844.906l-.702.895-1.083 1.44c-1.382 1.852-2.87 4.023-5.31 4.666-2.397.631-3.436.072-4.899-.159.268.69.599 1.361 1.048 1.951.44.602.961 1.167 1.609 1.652.327.232.672.462 1.056.657.381.188.793.354 1.233.479a7.15 7.15 0 002.81.194 8.457 8.457 0 002.662-.83A11.208 11.208 0 0016.43 21.1c1.24-1.03 2.206-2.168 3.02-3.32.41-.575.783-1.16 1.127-1.747l.405-.698c.124-.204.25-.41.377-.6.513-.769 1.015-1.385 1.625-1.847.601-.474 1.439-.825 2.558-.906 1.114-.083 2.4.07 3.814.387z" fill="#FAFAFA"/><path fill-rule="evenodd" clip-rule="evenodd" d="M23.328 23.756a1.823 1.823 0 103.646 0 1.823 1.823 0 00-3.646 0z" fill="url(#paint2_linear_1370_43377)"/><path d="M140.87 12.377v-1.84a.133.133 0 00-.133-.133H130.25a.132.132 0 00-.132.132v1.841h4.262v11.907h2.227V12.377h4.263zm-21.712-1.973a.133.133 0 00-.133.132v13.616c0 .073.06.132.133.132h8.825c.073 0 .132-.06.132-.132V22.33h-6.863v-4.362h5.67v-1.914h-5.67v-3.698h6.374v-1.82a.132.132 0 00-.132-.133h-8.336zm-5.118 13.799l.048.081h1.71c.073 0 .133-.06.133-.132V10.536a.133.133 0 00-.133-.132h-2.055v9.613a51.516 51.516 0 00-1.243-1.877 62.543 62.543 0 00-1.94-2.703 63.596 63.596 0 00-2.076-2.683 35.624 35.624 0 00-1.964-2.298l-.048-.052h-1.61a.133.133 0 00-.133.132v13.616c0 .073.06.132.133.132h2.055V13.987c.281.332.581.7.898 1.103.429.546.871 1.13 1.326 1.755l.001.002c.455.61.91 1.247 1.365 1.91v.001l.001.001c.468.663.917 1.32 1.346 1.97l.001.001c.429.638.825 1.255 1.189 1.852v.001l.001.001c.377.599.709 1.139.995 1.62zm-12-13.523l.05-.054a.132.132 0 00-.097-.222h-2.438l-.05.058c-.323.375-.726.816-1.207 1.323-.468.495-.97 1.016-1.504 1.563-.533.546-1.073 1.093-1.62 1.64-.438.427-.846.82-1.225 1.18v-5.764h-2.094a.132.132 0 00-.132.132v13.616c0 .073.059.132.132.132h2.094v-6.297c.46.301.93.654 1.41 1.058h.001a21.267 21.267 0 011.708 1.572l.002.002a20.818 20.818 0 011.61 1.766h.001l.001.001c.504.608.95 1.215 1.337 1.822l.049.076h2.376c.102 0 .165-.11.115-.198l-.029-.05a16.27 16.27 0 00-1.342-1.954 30.727 30.727 0 00-3.538-3.853 18.132 18.132 0 00-1.634-1.345 197.954 197.954 0 004.653-4.715h.001v-.001c.509-.548.965-1.044 1.37-1.487z" fill="#fff"/><path fill-rule="evenodd" clip-rule="evenodd" d="M79.082 10.3a.132.132 0 00-.132.131V24.16c0 .073.06.132.132.132h1.887v-5.047h2.757c.31.371.612.76.907 1.165l.001.002.001.001a20.81 20.81 0 011.338 1.98v.002c.371.608.695 1.209.971 1.802l.045.095h2.233a.13.13 0 00.12-.185 19.629 19.629 0 00-.845-1.651 30.848 30.848 0 00-2.26-3.453c.833-.255 1.492-.715 1.969-1.383.572-.81.856-1.761.856-2.848 0-.746-.13-1.43-.392-2.047a3.801 3.801 0 00-1.19-1.555c-.525-.412-1.171-.674-1.933-.792a3.76 3.76 0 00-.55-.059 7.167 7.167 0 00-.483-.019h-5.432zm7.923 4.471c0 .361-.06.716-.18 1.066-.119.336-.307.63-.567.885-.247.24-.572.411-.984.507-.13.03-.272.05-.422.063h-.001a4.95 4.95 0 01-.394.018h-3.488v-5.077h3.488c.114 0 .246.006.394.018h.007c.147.007.283.027.41.061l.003.001.004.001c.411.09.735.26.981.506h.001v.001c.26.254.45.552.567.894v.001c.12.343.181.695.181 1.056zm-13.009 7.681c.197.563.406 1.137.628 1.725l.04.107h2.234a.132.132 0 00.124-.177c-.488-1.34-.98-2.68-1.483-4.015a132.528 132.528 0 00-1.35-3.483 96.132 96.132 0 00-1.293-3.133 78.95 78.95 0 00-1.36-2.997.132.132 0 00-.12-.075h-1.781a.136.136 0 00-.12.075 79.91 79.91 0 00-1.36 2.997c-.43.992-.868 2.036-1.312 3.132v.001a209.65 209.65 0 00-1.33 3.483 394.628 394.628 0 00-1.484 4.015.132.132 0 00.124.177h2.181l.049-.053a19.11 19.11 0 011.73-1.63l.001-.001a21.95 21.95 0 012.002-1.52l.001-.002h.002a22.467 22.467 0 012.066-1.302l.001-.001c.25-.142.495-.274.737-.397l.468 1.335v.001c.208.586.41 1.165.605 1.738zm-2.403-6.584l.001.002c.188.476.376.96.565 1.453a18.486 18.486 0 00-2.178 1.188c-.729.457-1.452.953-2.168 1.489l.303-.867c.402-1.127.803-2.215 1.205-3.264.37-.947.754-1.857 1.154-2.73.388.873.76 1.783 1.118 2.729z" fill="#fff"/><path d="M64.575 12.377v-1.84a.132.132 0 00-.133-.133H53.955a.132.132 0 00-.132.132v1.841h4.263v11.775c0 .073.059.132.132.132h1.962c.073 0 .132-.06.132-.132V12.377h4.263zM44.2 24.115a5.255 5.255 0 01-2.012-1.475v-.001h-.001c-.528-.648-.87-1.411-1.03-2.286a.165.165 0 01.138-.193l1.776-.28a.165.165 0 01.186.122c.216.839.66 1.49 1.334 1.962.683.468 1.49.704 2.425.704.607 0 1.15-.094 1.63-.278.486-.191.863-.459 1.138-.8.27-.335.407-.732.407-1.2 0-.29-.051-.526-.146-.717l-.003-.005a1.419 1.419 0 00-.39-.511l-.004-.004a2.401 2.401 0 00-.578-.38 4.488 4.488 0 00-.699-.26h-.002l-3.543-1.053a7.768 7.768 0 01-1.145-.444l-.002-.001a4.253 4.253 0 01-1.004-.693v-.001h-.001a3.2 3.2 0 01-.713-1.018c-.179-.406-.265-.877-.265-1.41 0-.853.22-1.59.669-2.202.45-.612 1.058-1.077 1.816-1.396.758-.319 1.608-.473 2.547-.467.952.007 1.808.178 2.566.516a4.867 4.867 0 011.896 1.438c.508.628.846 1.377 1.018 2.244a.165.165 0 01-.134.194l-1.824.32a.166.166 0 01-.191-.136c-.093-.54-.297-1-.612-1.38l-.002-.002a3.049 3.049 0 00-1.173-.898l-.002-.001a3.84 3.84 0 00-1.565-.333 3.74 3.74 0 00-1.47.258c-.435.178-.775.423-1.025.733l-.001.001c-.246.299-.368.64-.368 1.034 0 .391.111.693.322.92.228.24.508.433.842.58.355.145.699.265 1.033.36l2.645.762c.308.085.66.203 1.056.352.413.153.812.37 1.196.648.396.28.72.652.975 1.116.262.469.388 1.052.388 1.74 0 .692-.14 1.314-.424 1.861a3.864 3.864 0 01-1.158 1.37l-.002.002a5.385 5.385 0 01-1.711.816 7.278 7.278 0 01-2.074.287c-1.003 0-1.914-.17-2.728-.515z" fill="#fff"/><defs><linearGradient id="paint0_linear_1370_43377" x1="33.022" y1="5.626" x2="-25.299" y2="11.094" gradientUnits="userSpaceOnUse"><stop stop-color="#EC796B"/><stop offset="1" stop-color="#D672EF"/></linearGradient><linearGradient id="paint1_linear_1370_43377" x1="29.221" y1="11.891" x2="-12.401" y2="33.545" gradientUnits="userSpaceOnUse"><stop stop-color="#EC796B"/><stop offset="1" stop-color="#D672EF"/></linearGradient><linearGradient id="paint2_linear_1370_43377" x1="26.971" y1="22.478" x2="20.329" y2="23.1" gradientUnits="userSpaceOnUse"><stop stop-color="#EC796B"/><stop offset="1" stop-color="#D672EF"/></linearGradient></defs></svg>