<svg width="14" height="19" viewBox="0 0 14 19" fill="none" xmlns="http://www.w3.org/2000/svg"><path fill-rule="evenodd" clip-rule="evenodd" d="M9.172 12.861c.157-.324.37-.695.653-1.121.296-.447.614-.845.893-1.194l.013-.017c.479-.6.848-1.07 1.12-1.643.26-.545.449-1.227.449-2.216C12.3 3.839 9.952 1.5 7 1.5S1.7 3.839 1.7 6.67c0 .99.19 1.671.449 2.216.272.572.641 1.042 1.12 1.643l.013.017c.279.348.597.748.893 1.194.283.426.496.797.653 1.121h4.344zm-6.08-.402c.313.471.512.839.637 1.123.141.32.448.58.805.58h4.932c.356 0 .664-.26.805-.58a7.64 7.64 0 01.637-1.123c.265-.4.553-.76.84-1.12.936-1.174 1.852-2.322 1.852-4.67C13.6 3.098 10.645.2 7 .2 3.355.2.4 3.097.4 6.67c0 2.347.916 3.495 1.852 4.67.287.358.575.72.84 1.119zM4.15 15.6a.65.65 0 01.65-.65h4.4a.65.65 0 110 1.3H4.8a.65.65 0 01-.65-.65zm1.75 1.55a.65.65 0 100 1.3h2.2a.65.65 0 100-1.3H5.9z" fill="#fff"/></svg>