<svg width="24" height="24" viewBox="0 0 24 24" fill="none" xmlns="http://www.w3.org/2000/svg"><path d="M2 5.8a8.49 8.49 0 002.36.64 4.13 4.13 0 01-1.81-2.27 8.21 8.21 0 002.61 1 4.1 4.1 0 017 3.74 11.64 11.64 0 008.45-4.29c.36.63.55 1.344.55 2.07a4.089 4.089 0 01-1.82 3.41 4.05 4.05 0 001.86-.51v.05a4.1 4.1 0 01-3.3 4c.357.109.727.166 1.1.17.258-.003.516-.026.77-.07a4.11 4.11 0 01-3.83 2.84 8.22 8.22 0 006.06 1.7 11.57 11.57 0 01-6.29 1.85A11.59 11.59 0 014 8.45v-.53A8.43 8.43 0 012 5.8z" fill="#080844"/></svg>