<svg width="24" height="24" viewBox="0 0 24 24" fill="none" xmlns="http://www.w3.org/2000/svg"><path d="M1 9.71a8.5 8.5 0 01.91-4.13 2.92 2.92 0 011.72-1A78.358 78.358 0 0112 4.27a78.448 78.448 0 018.34.3 2.87 2.87 0 011.46.74c.9.83 1 2.25 1.1 3.45a48.286 48.286 0 010 6.48 9.555 9.555 0 01-.3 2 3.14 3.14 0 01-.71 1.36 2.86 2.86 0 01-1.49.78 45.183 45.183 0 01-6.5.33c-3.5.05-6.57 0-10.2-.28a2.88 2.88 0 01-1.53-.78 2.49 2.49 0 01-.61-1 10.58 10.58 0 01-.52-3.4C1 13.69 1 10.31 1 9.71zm13.26 5.14V8.66l-5.92 3.11c1.66.92 3.85 1.96 5.92 3.08z" fill="#CCC"/></svg>