<svg width="260" height="260" viewBox="0 0 260 260" fill="none" xmlns="http://www.w3.org/2000/svg">
<path d="M183.34 57.5472C183.34 68.8013 192.463 77.9245 203.717 77.9245C214.971 77.9245 224.094 68.8013 224.094 57.5472C224.094 46.2931 214.971 37.1698 203.717 37.1698C192.463 37.1698 183.34 46.2931 183.34 57.5472Z" fill="#0C0C4F"/>
<path fill-rule="evenodd" clip-rule="evenodd" d="M162.962 10C159.211 10 156.17 13.0411 156.17 16.7925V98.3019C156.17 102.053 159.211 105.094 162.962 105.094H244.472C248.223 105.094 251.264 102.053 251.264 98.3019V16.7925C251.264 13.0411 248.223 10 244.472 10H162.962ZM160.698 16.7925C160.698 15.542 161.712 14.5283 162.962 14.5283H244.472C245.722 14.5283 246.736 15.542 246.736 16.7925V98.3019C246.736 99.5523 245.722 100.566 244.472 100.566H162.962C161.712 100.566 160.698 99.5523 160.698 98.3019V16.7925Z" fill="#0C0C4F"/>
<path d="M36.1698 89.2453C36.1698 99.7341 44.0945 108.372 54.283 109.498V126.604H58.8113V109.498C68.9999 108.372 76.9245 99.7341 76.9245 89.2453C76.9245 77.9912 67.8013 68.8679 56.5472 68.8679C45.2931 68.8679 36.1698 77.9912 36.1698 89.2453Z" fill="#0C0C4F"/>
<path fill-rule="evenodd" clip-rule="evenodd" d="M9 48.4906C9 44.7392 12.0411 41.6981 15.7925 41.6981H97.3019C101.053 41.6981 104.094 44.7392 104.094 48.4906V130C104.094 133.751 101.053 136.792 97.3019 136.792H15.7925C12.0411 136.792 9 133.751 9 130V48.4906ZM15.7925 46.2264C14.542 46.2264 13.5283 47.2401 13.5283 48.4906V130C13.5283 131.25 14.542 132.264 15.7925 132.264H97.3019C98.5523 132.264 99.566 131.25 99.566 130V48.4906C99.566 47.2401 98.5523 46.2264 97.3019 46.2264H15.7925Z" fill="#0C0C4F"/>
<path d="M56.5472 222.83C45.2931 222.83 36.1698 213.707 36.1698 202.453C36.1698 191.964 44.0945 183.326 54.283 182.2V161.698H58.8113V182.2C68.2565 183.244 75.756 190.743 76.8002 200.189H96.1698V204.717H76.8002C75.6739 214.906 67.036 222.83 56.5472 222.83Z" fill="#0C0C4F"/>
<path fill-rule="evenodd" clip-rule="evenodd" d="M9 161.698C9 157.947 12.0411 154.906 15.7925 154.906H97.3019C101.053 154.906 104.094 157.947 104.094 161.698V243.208C104.094 246.959 101.053 250 97.3019 250H15.7925C12.0411 250 9 246.959 9 243.208V161.698ZM15.7925 159.434C14.542 159.434 13.5283 160.448 13.5283 161.698V243.208C13.5283 244.458 14.542 245.472 15.7925 245.472H97.3019C98.5523 245.472 99.566 244.458 99.566 243.208V161.698C99.566 160.448 98.5523 159.434 97.3019 159.434H15.7925Z" fill="#0C0C4F"/>
<path d="M149.502 200.189H129V204.717H149.502C150.628 214.906 159.266 222.83 169.755 222.83C181.009 222.83 190.132 213.707 190.132 202.453C190.132 191.964 182.207 183.326 172.019 182.2V161.698H167.491V182.2C158.045 183.244 150.546 190.743 149.502 200.189Z" fill="#0C0C4F"/>
<path fill-rule="evenodd" clip-rule="evenodd" d="M129 154.906C125.249 154.906 122.208 157.947 122.208 161.698V243.208C122.208 246.959 125.249 250 129 250H210.509C214.261 250 217.302 246.959 217.302 243.208V161.698C217.302 157.947 214.261 154.906 210.509 154.906H129ZM126.736 161.698C126.736 160.448 127.75 159.434 129 159.434H210.509C211.76 159.434 212.774 160.448 212.774 161.698V243.208C212.774 244.458 211.76 245.472 210.509 245.472H129C127.75 245.472 126.736 244.458 126.736 243.208V161.698Z" fill="#0C0C4F"/>
<path d="M126.736 102.83V130L126.736 130.024L152.305 104.455L155.507 107.657L130.9 132.264H156.17V136.792H129C125.249 136.792 122.208 133.751 122.208 130V102.83H126.736Z" fill="#0C0C4F"/>
<path d="M54.283 139.057V151.509H58.8113V139.057H54.283Z" fill="#0C0C4F"/>
<path d="M106.358 200.189H118.811V204.717H106.358V200.189Z" fill="#0C0C4F"/>
</svg>
