<svg version="1.1" id="Layer_1" xmlns="http://www.w3.org/2000/svg" x="0" y="0" viewBox="0 0 115.4 136.3" xml:space="preserve"><style>.st0{fill:#0c152e}</style><path class="st0" d="M45.1 136.1l17.8-20c.3-.3.1-.8-.4-.8H42.9c-.1 0-.3-.1-.4-.2L25.9 96.5c-.1-.2-.2-.4-.1-.6l27.8-47.7c.1-.2.1-.4 0-.5L42.1 27.9c-.2-.3-.7-.3-.9 0L.1 98.5c-.1.2-.1.4 0 .6l33 37.1c.1.1.2.2.4.2h11.2c.1-.1.3-.2.4-.3z"/><path class="st0" d="M57.3.3L45.7 20.1c-.1.2-.1.4 0 .5l12 20.6 31.8 54.6c.1.2.1.4-.1.6l-16.8 18.8-17.9 20.2c-.3.3-.1.8.4.8h26.8c.1 0 .3-.1.4-.2l33-37.1c.1-.2.2-.4.1-.6L58.1.3c-.1-.4-.6-.4-.8 0z"/></svg>